<?xml version="1.0" encoding="utf-8" standalone="no"?>
<!DOCTYPE svg PUBLIC "-//W3C//DTD SVG 1.1//EN"
  "http://www.w3.org/Graphics/SVG/1.1/DTD/svg11.dtd">
<svg height="720pt" version="1.1" viewBox="0 0 1440 720" width="1440pt" xmlns="http://www.w3.org/2000/svg" xmlns:xlink="http://www.w3.org/1999/xlink">
 <metadata>
  <rdf:RDF xmlns:cc="http://creativecommons.org/ns#" xmlns:dc="http://purl.org/dc/elements/1.1/" xmlns:rdf="http://www.w3.org/1999/02/22-rdf-syntax-ns#">
   <cc:Work>
    <dc:type rdf:resource="http://purl.org/dc/dcmitype/StillImage"/>
    <dc:date>2021-09-02T22:37:31.048924</dc:date>
    <dc:format>image/svg+xml</dc:format>
    <dc:creator>
     <cc:Agent>
      <dc:title>Matplotlib v3.4.3, https://matplotlib.org/</dc:title>
     </cc:Agent>
    </dc:creator>
   </cc:Work>
  </rdf:RDF>
 </metadata>
 <defs>
  <style type="text/css">*{stroke-linecap:butt;stroke-linejoin:round;}</style>
 </defs>
 <g id="figure_1">
  <g id="patch_1">
   <path d="M 0 720 
L 1440 720 
L 1440 0 
L 0 0 
z
" style="fill:#ffffff;"/>
  </g>
  <g id="axes_1">
   <g id="patch_2">
    <path d="M 51.96 336 
L 713.496562 336 
L 713.496562 44.92 
L 51.96 44.92 
z
" style="fill:#ffffff;"/>
   </g>
   <g id="matplotlib.axis_1">
    <g id="xtick_1">
     <g id="line2d_1">
      <path clip-path="url(#p900fb22bdd)" d="M 82.029844 336 
L 82.029844 44.92 
" style="fill:none;stroke:#cccccc;stroke-linecap:round;"/>
     </g>
     <g id="text_1">
      <!-- 0 -->
      <g style="fill:#262626;" transform="translate(78.971328 353.373594)scale(0.11 -0.11)">
       <defs>
        <path d="M 266 2259 
Q 266 3072 433 3567 
Q 600 4063 929 4331 
Q 1259 4600 1759 4600 
Q 2128 4600 2406 4451 
Q 2684 4303 2865 4023 
Q 3047 3744 3150 3342 
Q 3253 2941 3253 2259 
Q 3253 1453 3087 958 
Q 2922 463 2592 192 
Q 2263 -78 1759 -78 
Q 1097 -78 719 397 
Q 266 969 266 2259 
z
M 844 2259 
Q 844 1131 1108 757 
Q 1372 384 1759 384 
Q 2147 384 2411 759 
Q 2675 1134 2675 2259 
Q 2675 3391 2411 3762 
Q 2147 4134 1753 4134 
Q 1366 4134 1134 3806 
Q 844 3388 844 2259 
z
" id="ArialMT-30" transform="scale(0.015625)"/>
       </defs>
       <use xlink:href="#ArialMT-30"/>
      </g>
     </g>
    </g>
    <g id="xtick_2">
     <g id="line2d_2">
      <path clip-path="url(#p900fb22bdd)" d="M 204.7639 336 
L 204.7639 44.92 
" style="fill:none;stroke:#cccccc;stroke-linecap:round;"/>
     </g>
     <g id="text_2">
      <!-- 10 -->
      <g style="fill:#262626;" transform="translate(198.646869 353.373594)scale(0.11 -0.11)">
       <defs>
        <path d="M 2384 0 
L 1822 0 
L 1822 3584 
Q 1619 3391 1289 3197 
Q 959 3003 697 2906 
L 697 3450 
Q 1169 3672 1522 3987 
Q 1875 4303 2022 4600 
L 2384 4600 
L 2384 0 
z
" id="ArialMT-31" transform="scale(0.015625)"/>
       </defs>
       <use xlink:href="#ArialMT-31"/>
       <use x="55.615234" xlink:href="#ArialMT-30"/>
      </g>
     </g>
    </g>
    <g id="xtick_3">
     <g id="line2d_3">
      <path clip-path="url(#p900fb22bdd)" d="M 327.497956 336 
L 327.497956 44.92 
" style="fill:none;stroke:#cccccc;stroke-linecap:round;"/>
     </g>
     <g id="text_3">
      <!-- 20 -->
      <g style="fill:#262626;" transform="translate(321.380925 353.373594)scale(0.11 -0.11)">
       <defs>
        <path d="M 3222 541 
L 3222 0 
L 194 0 
Q 188 203 259 391 
Q 375 700 629 1000 
Q 884 1300 1366 1694 
Q 2113 2306 2375 2664 
Q 2638 3022 2638 3341 
Q 2638 3675 2398 3904 
Q 2159 4134 1775 4134 
Q 1369 4134 1125 3890 
Q 881 3647 878 3216 
L 300 3275 
Q 359 3922 746 4261 
Q 1134 4600 1788 4600 
Q 2447 4600 2831 4234 
Q 3216 3869 3216 3328 
Q 3216 3053 3103 2787 
Q 2991 2522 2730 2228 
Q 2469 1934 1863 1422 
Q 1356 997 1212 845 
Q 1069 694 975 541 
L 3222 541 
z
" id="ArialMT-32" transform="scale(0.015625)"/>
       </defs>
       <use xlink:href="#ArialMT-32"/>
       <use x="55.615234" xlink:href="#ArialMT-30"/>
      </g>
     </g>
    </g>
    <g id="xtick_4">
     <g id="line2d_4">
      <path clip-path="url(#p900fb22bdd)" d="M 450.232012 336 
L 450.232012 44.92 
" style="fill:none;stroke:#cccccc;stroke-linecap:round;"/>
     </g>
     <g id="text_4">
      <!-- 30 -->
      <g style="fill:#262626;" transform="translate(444.114981 353.373594)scale(0.11 -0.11)">
       <defs>
        <path d="M 269 1209 
L 831 1284 
Q 928 806 1161 595 
Q 1394 384 1728 384 
Q 2125 384 2398 659 
Q 2672 934 2672 1341 
Q 2672 1728 2419 1979 
Q 2166 2231 1775 2231 
Q 1616 2231 1378 2169 
L 1441 2663 
Q 1497 2656 1531 2656 
Q 1891 2656 2178 2843 
Q 2466 3031 2466 3422 
Q 2466 3731 2256 3934 
Q 2047 4138 1716 4138 
Q 1388 4138 1169 3931 
Q 950 3725 888 3313 
L 325 3413 
Q 428 3978 793 4289 
Q 1159 4600 1703 4600 
Q 2078 4600 2393 4439 
Q 2709 4278 2876 4000 
Q 3044 3722 3044 3409 
Q 3044 3113 2884 2869 
Q 2725 2625 2413 2481 
Q 2819 2388 3044 2092 
Q 3269 1797 3269 1353 
Q 3269 753 2831 336 
Q 2394 -81 1725 -81 
Q 1122 -81 723 278 
Q 325 638 269 1209 
z
" id="ArialMT-33" transform="scale(0.015625)"/>
       </defs>
       <use xlink:href="#ArialMT-33"/>
       <use x="55.615234" xlink:href="#ArialMT-30"/>
      </g>
     </g>
    </g>
    <g id="xtick_5">
     <g id="line2d_5">
      <path clip-path="url(#p900fb22bdd)" d="M 572.966068 336 
L 572.966068 44.92 
" style="fill:none;stroke:#cccccc;stroke-linecap:round;"/>
     </g>
     <g id="text_5">
      <!-- 40 -->
      <g style="fill:#262626;" transform="translate(566.849037 353.373594)scale(0.11 -0.11)">
       <defs>
        <path d="M 2069 0 
L 2069 1097 
L 81 1097 
L 81 1613 
L 2172 4581 
L 2631 4581 
L 2631 1613 
L 3250 1613 
L 3250 1097 
L 2631 1097 
L 2631 0 
L 2069 0 
z
M 2069 1613 
L 2069 3678 
L 634 1613 
L 2069 1613 
z
" id="ArialMT-34" transform="scale(0.015625)"/>
       </defs>
       <use xlink:href="#ArialMT-34"/>
       <use x="55.615234" xlink:href="#ArialMT-30"/>
      </g>
     </g>
    </g>
    <g id="xtick_6">
     <g id="line2d_6">
      <path clip-path="url(#p900fb22bdd)" d="M 695.700124 336 
L 695.700124 44.92 
" style="fill:none;stroke:#cccccc;stroke-linecap:round;"/>
     </g>
     <g id="text_6">
      <!-- 50 -->
      <g style="fill:#262626;" transform="translate(689.583093 353.373594)scale(0.11 -0.11)">
       <defs>
        <path d="M 266 1200 
L 856 1250 
Q 922 819 1161 601 
Q 1400 384 1738 384 
Q 2144 384 2425 690 
Q 2706 997 2706 1503 
Q 2706 1984 2436 2262 
Q 2166 2541 1728 2541 
Q 1456 2541 1237 2417 
Q 1019 2294 894 2097 
L 366 2166 
L 809 4519 
L 3088 4519 
L 3088 3981 
L 1259 3981 
L 1013 2750 
Q 1425 3038 1878 3038 
Q 2478 3038 2890 2622 
Q 3303 2206 3303 1553 
Q 3303 931 2941 478 
Q 2500 -78 1738 -78 
Q 1113 -78 717 272 
Q 322 622 266 1200 
z
" id="ArialMT-35" transform="scale(0.015625)"/>
       </defs>
       <use xlink:href="#ArialMT-35"/>
       <use x="55.615234" xlink:href="#ArialMT-30"/>
      </g>
     </g>
    </g>
   </g>
   <g id="matplotlib.axis_2">
    <g id="ytick_1">
     <g id="line2d_7">
      <path clip-path="url(#p900fb22bdd)" d="M 51.96 324.786127 
L 713.496562 324.786127 
" style="fill:none;stroke:#cccccc;stroke-linecap:round;"/>
     </g>
     <g id="text_7">
      <!-- 0.0 -->
      <g style="fill:#262626;" transform="translate(27.17 328.722924)scale(0.11 -0.11)">
       <defs>
        <path d="M 581 0 
L 581 641 
L 1222 641 
L 1222 0 
L 581 0 
z
" id="ArialMT-2e" transform="scale(0.015625)"/>
       </defs>
       <use xlink:href="#ArialMT-30"/>
       <use x="55.615234" xlink:href="#ArialMT-2e"/>
       <use x="83.398438" xlink:href="#ArialMT-30"/>
      </g>
     </g>
    </g>
    <g id="ytick_2">
     <g id="line2d_8">
      <path clip-path="url(#p900fb22bdd)" d="M 51.96 270.052846 
L 713.496562 270.052846 
" style="fill:none;stroke:#cccccc;stroke-linecap:round;"/>
     </g>
     <g id="text_8">
      <!-- 0.5 -->
      <g style="fill:#262626;" transform="translate(27.17 273.989642)scale(0.11 -0.11)">
       <use xlink:href="#ArialMT-30"/>
       <use x="55.615234" xlink:href="#ArialMT-2e"/>
       <use x="83.398438" xlink:href="#ArialMT-35"/>
      </g>
     </g>
    </g>
    <g id="ytick_3">
     <g id="line2d_9">
      <path clip-path="url(#p900fb22bdd)" d="M 51.96 215.319564 
L 713.496562 215.319564 
" style="fill:none;stroke:#cccccc;stroke-linecap:round;"/>
     </g>
     <g id="text_9">
      <!-- 1.0 -->
      <g style="fill:#262626;" transform="translate(27.17 219.256361)scale(0.11 -0.11)">
       <use xlink:href="#ArialMT-31"/>
       <use x="55.615234" xlink:href="#ArialMT-2e"/>
       <use x="83.398438" xlink:href="#ArialMT-30"/>
      </g>
     </g>
    </g>
    <g id="ytick_4">
     <g id="line2d_10">
      <path clip-path="url(#p900fb22bdd)" d="M 51.96 160.586282 
L 713.496562 160.586282 
" style="fill:none;stroke:#cccccc;stroke-linecap:round;"/>
     </g>
     <g id="text_10">
      <!-- 1.5 -->
      <g style="fill:#262626;" transform="translate(27.17 164.523079)scale(0.11 -0.11)">
       <use xlink:href="#ArialMT-31"/>
       <use x="55.615234" xlink:href="#ArialMT-2e"/>
       <use x="83.398438" xlink:href="#ArialMT-35"/>
      </g>
     </g>
    </g>
    <g id="ytick_5">
     <g id="line2d_11">
      <path clip-path="url(#p900fb22bdd)" d="M 51.96 105.853001 
L 713.496562 105.853001 
" style="fill:none;stroke:#cccccc;stroke-linecap:round;"/>
     </g>
     <g id="text_11">
      <!-- 2.0 -->
      <g style="fill:#262626;" transform="translate(27.17 109.789797)scale(0.11 -0.11)">
       <use xlink:href="#ArialMT-32"/>
       <use x="55.615234" xlink:href="#ArialMT-2e"/>
       <use x="83.398438" xlink:href="#ArialMT-30"/>
      </g>
     </g>
    </g>
    <g id="ytick_6">
     <g id="line2d_12">
      <path clip-path="url(#p900fb22bdd)" d="M 51.96 51.119719 
L 713.496562 51.119719 
" style="fill:none;stroke:#cccccc;stroke-linecap:round;"/>
     </g>
     <g id="text_12">
      <!-- 2.5 -->
      <g style="fill:#262626;" transform="translate(27.17 55.056516)scale(0.11 -0.11)">
       <use xlink:href="#ArialMT-32"/>
       <use x="55.615234" xlink:href="#ArialMT-2e"/>
       <use x="83.398438" xlink:href="#ArialMT-35"/>
      </g>
     </g>
    </g>
    <g id="text_13">
     <!-- Training Loss -->
     <g style="fill:#262626;" transform="translate(20.644375 226.25)rotate(-90)scale(0.12 -0.12)">
      <defs>
       <path d="M 1659 0 
L 1659 4041 
L 150 4041 
L 150 4581 
L 3781 4581 
L 3781 4041 
L 2266 4041 
L 2266 0 
L 1659 0 
z
" id="ArialMT-54" transform="scale(0.015625)"/>
       <path d="M 416 0 
L 416 3319 
L 922 3319 
L 922 2816 
Q 1116 3169 1280 3281 
Q 1444 3394 1641 3394 
Q 1925 3394 2219 3213 
L 2025 2691 
Q 1819 2813 1613 2813 
Q 1428 2813 1281 2702 
Q 1134 2591 1072 2394 
Q 978 2094 978 1738 
L 978 0 
L 416 0 
z
" id="ArialMT-72" transform="scale(0.015625)"/>
       <path d="M 2588 409 
Q 2275 144 1986 34 
Q 1697 -75 1366 -75 
Q 819 -75 525 192 
Q 231 459 231 875 
Q 231 1119 342 1320 
Q 453 1522 633 1644 
Q 813 1766 1038 1828 
Q 1203 1872 1538 1913 
Q 2219 1994 2541 2106 
Q 2544 2222 2544 2253 
Q 2544 2597 2384 2738 
Q 2169 2928 1744 2928 
Q 1347 2928 1158 2789 
Q 969 2650 878 2297 
L 328 2372 
Q 403 2725 575 2942 
Q 747 3159 1072 3276 
Q 1397 3394 1825 3394 
Q 2250 3394 2515 3294 
Q 2781 3194 2906 3042 
Q 3031 2891 3081 2659 
Q 3109 2516 3109 2141 
L 3109 1391 
Q 3109 606 3145 398 
Q 3181 191 3288 0 
L 2700 0 
Q 2613 175 2588 409 
z
M 2541 1666 
Q 2234 1541 1622 1453 
Q 1275 1403 1131 1340 
Q 988 1278 909 1158 
Q 831 1038 831 891 
Q 831 666 1001 516 
Q 1172 366 1500 366 
Q 1825 366 2078 508 
Q 2331 650 2450 897 
Q 2541 1088 2541 1459 
L 2541 1666 
z
" id="ArialMT-61" transform="scale(0.015625)"/>
       <path d="M 425 3934 
L 425 4581 
L 988 4581 
L 988 3934 
L 425 3934 
z
M 425 0 
L 425 3319 
L 988 3319 
L 988 0 
L 425 0 
z
" id="ArialMT-69" transform="scale(0.015625)"/>
       <path d="M 422 0 
L 422 3319 
L 928 3319 
L 928 2847 
Q 1294 3394 1984 3394 
Q 2284 3394 2536 3286 
Q 2788 3178 2913 3003 
Q 3038 2828 3088 2588 
Q 3119 2431 3119 2041 
L 3119 0 
L 2556 0 
L 2556 2019 
Q 2556 2363 2490 2533 
Q 2425 2703 2258 2804 
Q 2091 2906 1866 2906 
Q 1506 2906 1245 2678 
Q 984 2450 984 1813 
L 984 0 
L 422 0 
z
" id="ArialMT-6e" transform="scale(0.015625)"/>
       <path d="M 319 -275 
L 866 -356 
Q 900 -609 1056 -725 
Q 1266 -881 1628 -881 
Q 2019 -881 2231 -725 
Q 2444 -569 2519 -288 
Q 2563 -116 2559 434 
Q 2191 0 1641 0 
Q 956 0 581 494 
Q 206 988 206 1678 
Q 206 2153 378 2554 
Q 550 2956 876 3175 
Q 1203 3394 1644 3394 
Q 2231 3394 2613 2919 
L 2613 3319 
L 3131 3319 
L 3131 450 
Q 3131 -325 2973 -648 
Q 2816 -972 2473 -1159 
Q 2131 -1347 1631 -1347 
Q 1038 -1347 672 -1080 
Q 306 -813 319 -275 
z
M 784 1719 
Q 784 1066 1043 766 
Q 1303 466 1694 466 
Q 2081 466 2343 764 
Q 2606 1063 2606 1700 
Q 2606 2309 2336 2618 
Q 2066 2928 1684 2928 
Q 1309 2928 1046 2623 
Q 784 2319 784 1719 
z
" id="ArialMT-67" transform="scale(0.015625)"/>
       <path id="ArialMT-20" transform="scale(0.015625)"/>
       <path d="M 469 0 
L 469 4581 
L 1075 4581 
L 1075 541 
L 3331 541 
L 3331 0 
L 469 0 
z
" id="ArialMT-4c" transform="scale(0.015625)"/>
       <path d="M 213 1659 
Q 213 2581 725 3025 
Q 1153 3394 1769 3394 
Q 2453 3394 2887 2945 
Q 3322 2497 3322 1706 
Q 3322 1066 3130 698 
Q 2938 331 2570 128 
Q 2203 -75 1769 -75 
Q 1072 -75 642 372 
Q 213 819 213 1659 
z
M 791 1659 
Q 791 1022 1069 705 
Q 1347 388 1769 388 
Q 2188 388 2466 706 
Q 2744 1025 2744 1678 
Q 2744 2294 2464 2611 
Q 2184 2928 1769 2928 
Q 1347 2928 1069 2612 
Q 791 2297 791 1659 
z
" id="ArialMT-6f" transform="scale(0.015625)"/>
       <path d="M 197 991 
L 753 1078 
Q 800 744 1014 566 
Q 1228 388 1613 388 
Q 2000 388 2187 545 
Q 2375 703 2375 916 
Q 2375 1106 2209 1216 
Q 2094 1291 1634 1406 
Q 1016 1563 777 1677 
Q 538 1791 414 1992 
Q 291 2194 291 2438 
Q 291 2659 392 2848 
Q 494 3038 669 3163 
Q 800 3259 1026 3326 
Q 1253 3394 1513 3394 
Q 1903 3394 2198 3281 
Q 2494 3169 2634 2976 
Q 2775 2784 2828 2463 
L 2278 2388 
Q 2241 2644 2061 2787 
Q 1881 2931 1553 2931 
Q 1166 2931 1000 2803 
Q 834 2675 834 2503 
Q 834 2394 903 2306 
Q 972 2216 1119 2156 
Q 1203 2125 1616 2013 
Q 2213 1853 2448 1751 
Q 2684 1650 2818 1456 
Q 2953 1263 2953 975 
Q 2953 694 2789 445 
Q 2625 197 2315 61 
Q 2006 -75 1616 -75 
Q 969 -75 630 194 
Q 291 463 197 991 
z
" id="ArialMT-73" transform="scale(0.015625)"/>
      </defs>
      <use xlink:href="#ArialMT-54"/>
      <use x="57.333984" xlink:href="#ArialMT-72"/>
      <use x="90.634766" xlink:href="#ArialMT-61"/>
      <use x="146.25" xlink:href="#ArialMT-69"/>
      <use x="168.466797" xlink:href="#ArialMT-6e"/>
      <use x="224.082031" xlink:href="#ArialMT-69"/>
      <use x="246.298828" xlink:href="#ArialMT-6e"/>
      <use x="301.914062" xlink:href="#ArialMT-67"/>
      <use x="357.529297" xlink:href="#ArialMT-20"/>
      <use x="385.3125" xlink:href="#ArialMT-4c"/>
      <use x="440.927734" xlink:href="#ArialMT-6f"/>
      <use x="496.542969" xlink:href="#ArialMT-73"/>
      <use x="546.542969" xlink:href="#ArialMT-73"/>
     </g>
    </g>
   </g>
   <g id="line2d_13">
    <path clip-path="url(#p900fb22bdd)" d="M 82.029844 58.150909 
L 94.303249 103.837307 
L 106.576655 141.372913 
L 118.850061 165.548224 
L 131.123466 179.509967 
L 143.396872 205.801544 
L 155.670277 207.107061 
L 167.943683 211.81125 
L 180.217089 223.202184 
L 192.490494 237.246765 
L 204.7639 250.512086 
L 217.037305 253.585142 
L 229.310711 258.726383 
L 241.584117 259.341246 
L 253.857522 269.777372 
L 266.130928 275.999217 
L 278.404334 283.48884 
L 290.677739 294.90841 
L 302.951145 290.382829 
L 315.22455 298.518651 
L 327.497956 301.536582 
L 339.771362 302.125651 
L 352.044767 303.513815 
L 364.318173 307.201327 
L 376.591578 310.893031 
L 388.864984 312.043256 
L 401.13839 312.712849 
L 413.411795 305.263482 
L 425.685201 313.205405 
L 437.958607 315.136551 
L 450.232012 315.330282 
L 462.505418 316.265893 
L 474.778823 317.193628 
L 487.052229 318.76741 
L 499.325635 318.341608 
L 511.59904 313.439195 
L 523.872446 314.272005 
L 536.145851 318.389431 
L 548.419257 312.681542 
L 560.692663 317.988657 
L 572.966068 316.705674 
L 585.239474 317.791454 
L 597.512879 318.318339 
L 609.786285 317.207354 
L 622.059691 320.78902 
L 634.333096 319.006035 
L 646.606502 321.459631 
L 658.879908 321.795623 
L 671.153313 322.263694 
L 683.426719 322.18575 
" style="fill:none;stroke:#023eff;stroke-linecap:round;stroke-width:1.5;"/>
   </g>
   <g id="line2d_14">
    <path clip-path="url(#p900fb22bdd)" d="M 82.029844 80.349766 
L 94.303249 141.69556 
L 106.576655 161.425857 
L 118.850061 182.877216 
L 131.123466 195.517509 
L 143.396872 214.850019 
L 155.670277 214.510264 
L 167.943683 225.305941 
L 180.217089 240.106685 
L 192.490494 238.297407 
L 204.7639 257.522547 
L 217.037305 255.803088 
L 229.310711 268.553107 
L 241.584117 261.899711 
L 253.857522 274.133161 
L 266.130928 284.079836 
L 278.404334 291.55074 
L 290.677739 291.573775 
L 302.951145 297.39877 
L 315.22455 304.639269 
L 327.497956 302.541449 
L 339.771362 292.481751 
L 352.044767 306.47267 
L 364.318173 311.675558 
L 376.591578 310.253455 
L 388.864984 308.489867 
L 401.13839 313.762413 
L 413.411795 314.207052 
L 425.685201 308.014263 
L 437.958607 312.409658 
L 450.232012 313.354753 
L 462.505418 317.158203 
L 474.778823 317.998092 
L 487.052229 317.815659 
L 499.325635 319.969164 
L 511.59904 320.698431 
L 523.872446 319.138431 
L 536.145851 318.07328 
L 548.419257 320.112922 
L 560.692663 320.846638 
L 572.966068 319.844043 
L 585.239474 317.774161 
L 597.512879 321.576461 
L 609.786285 322.477872 
L 622.059691 322.769091 
L 634.333096 321.957747 
L 646.606502 322.547275 
L 658.879908 321.401442 
L 671.153313 319.721081 
L 683.426719 320.77582 
" style="fill:none;stroke:#ff7c00;stroke-linecap:round;stroke-width:1.5;"/>
   </g>
   <g id="line2d_15">
    <path clip-path="url(#p900fb22bdd)" d="M 82.029844 95.634617 
L 94.303249 163.040123 
L 106.576655 184.971559 
L 118.850061 197.016875 
L 131.123466 205.064721 
L 143.396872 223.577309 
L 155.670277 228.365948 
L 167.943683 243.534711 
L 180.217089 244.687883 
L 192.490494 252.997317 
L 204.7639 259.283554 
L 217.037305 268.669893 
L 229.310711 275.045326 
L 241.584117 277.195295 
L 253.857522 281.712946 
L 266.130928 292.443242 
L 278.404334 283.342455 
L 290.677739 290.850191 
L 302.951145 293.93825 
L 315.22455 302.4771 
L 327.497956 304.191009 
L 339.771362 307.228088 
L 352.044767 306.729654 
L 364.318173 310.926256 
L 376.591578 309.421185 
L 388.864984 313.362737 
L 401.13839 312.798794 
L 413.411795 312.082787 
L 425.685201 315.722389 
L 437.958607 317.709231 
L 450.232012 317.594194 
L 462.505418 314.429689 
L 474.778823 318.056931 
L 487.052229 317.415923 
L 499.325635 320.01155 
L 511.59904 319.710327 
L 523.872446 320.2399 
L 536.145851 319.298297 
L 548.419257 318.994079 
L 560.692663 318.574854 
L 572.966068 321.677628 
L 585.239474 321.348901 
L 597.512879 322.343596 
L 609.786285 322.458309 
L 622.059691 320.884945 
L 634.333096 322.283983 
L 646.606502 321.467796 
L 658.879908 321.790119 
L 671.153313 320.390863 
L 683.426719 320.398868 
" style="fill:none;stroke:#1ac938;stroke-linecap:round;stroke-width:1.5;"/>
   </g>
   <g id="line2d_16">
    <path clip-path="url(#p900fb22bdd)" d="M 82.029844 105.838072 
L 94.303249 164.722117 
L 106.576655 189.709429 
L 118.850061 206.008273 
L 131.123466 216.86769 
L 143.396872 221.536926 
L 155.670277 232.521677 
L 167.943683 248.147039 
L 180.217089 254.995016 
L 192.490494 258.424112 
L 204.7639 263.733685 
L 217.037305 270.387009 
L 229.310711 275.808891 
L 241.584117 280.481351 
L 253.857522 286.521339 
L 266.130928 291.542815 
L 278.404334 294.829961 
L 290.677739 299.96482 
L 302.951145 305.226208 
L 315.22455 305.175264 
L 327.497956 305.394705 
L 339.771362 307.379654 
L 352.044767 307.980481 
L 364.318173 307.490281 
L 376.591578 308.022789 
L 388.864984 309.491261 
L 401.13839 313.828378 
L 413.411795 314.198923 
L 425.685201 318.492702 
L 437.958607 316.902827 
L 450.232012 319.43762 
L 462.505418 316.233771 
L 474.778823 316.884498 
L 487.052229 319.215199 
L 499.325635 320.369562 
L 511.59904 318.849397 
L 523.872446 320.006289 
L 536.145851 320.171841 
L 548.419257 321.603656 
L 560.692663 320.948388 
L 572.966068 320.960562 
L 585.239474 320.739151 
L 597.512879 322.440941 
L 609.786285 322.538304 
L 622.059691 320.495707 
L 634.333096 322.081235 
L 646.606502 322.307378 
L 658.879908 322.5527 
L 671.153313 322.112058 
L 683.426719 321.576479 
" style="fill:none;stroke:#e8000b;stroke-linecap:round;stroke-width:1.5;"/>
   </g>
   <g id="line2d_17">
    <path clip-path="url(#p900fb22bdd)" d="M 82.029844 111.170944 
L 94.303249 175.325784 
L 106.576655 190.261485 
L 118.850061 205.970221 
L 131.123466 224.617616 
L 143.396872 227.330384 
L 155.670277 237.834146 
L 167.943683 246.076989 
L 180.217089 253.082445 
L 192.490494 261.267009 
L 204.7639 270.352862 
L 217.037305 277.425924 
L 229.310711 276.496984 
L 241.584117 283.144697 
L 253.857522 289.298741 
L 266.130928 293.874752 
L 278.404334 299.147427 
L 290.677739 301.713529 
L 302.951145 298.901933 
L 315.22455 304.826358 
L 327.497956 306.911993 
L 339.771362 309.476605 
L 352.044767 308.06639 
L 364.318173 309.425452 
L 376.591578 309.952664 
L 388.864984 313.772557 
L 401.13839 315.518748 
L 413.411795 315.863672 
L 425.685201 316.614179 
L 437.958607 317.739075 
L 450.232012 313.79445 
L 462.505418 315.028291 
L 474.778823 316.604826 
L 487.052229 316.934271 
L 499.325635 318.030073 
L 511.59904 320.214384 
L 523.872446 318.840784 
L 536.145851 319.39689 
L 548.419257 319.758192 
L 560.692663 318.264327 
L 572.966068 319.077158 
L 585.239474 322.058663 
L 597.512879 321.087362 
L 609.786285 320.419337 
L 622.059691 320.532716 
L 634.333096 320.794592 
L 646.606502 321.3944 
L 658.879908 322.511289 
L 671.153313 321.444355 
L 683.426719 322.512594 
" style="fill:none;stroke:#8b2be2;stroke-linecap:round;stroke-width:1.5;"/>
   </g>
   <g id="patch_3">
    <path d="M 51.96 336 
L 51.96 44.92 
" style="fill:none;stroke:#cccccc;stroke-linecap:square;stroke-linejoin:miter;stroke-width:1.25;"/>
   </g>
   <g id="patch_4">
    <path d="M 713.496562 336 
L 713.496562 44.92 
" style="fill:none;stroke:#cccccc;stroke-linecap:square;stroke-linejoin:miter;stroke-width:1.25;"/>
   </g>
   <g id="patch_5">
    <path d="M 51.96 336 
L 713.496562 336 
" style="fill:none;stroke:#cccccc;stroke-linecap:square;stroke-linejoin:miter;stroke-width:1.25;"/>
   </g>
   <g id="patch_6">
    <path d="M 51.96 44.92 
L 713.496562 44.92 
" style="fill:none;stroke:#cccccc;stroke-linecap:square;stroke-linejoin:miter;stroke-width:1.25;"/>
   </g>
  </g>
  <g id="axes_2">
   <g id="patch_7">
    <path d="M 765.503438 336 
L 1427.04 336 
L 1427.04 44.92 
L 765.503438 44.92 
z
" style="fill:#ffffff;"/>
   </g>
   <g id="matplotlib.axis_3">
    <g id="xtick_7">
     <g id="line2d_18">
      <path clip-path="url(#p0ed8a4c206)" d="M 795.573281 336 
L 795.573281 44.92 
" style="fill:none;stroke:#cccccc;stroke-linecap:round;"/>
     </g>
     <g id="text_14">
      <!-- 0 -->
      <g style="fill:#262626;" transform="translate(792.514766 353.373594)scale(0.11 -0.11)">
       <use xlink:href="#ArialMT-30"/>
      </g>
     </g>
    </g>
    <g id="xtick_8">
     <g id="line2d_19">
      <path clip-path="url(#p0ed8a4c206)" d="M 918.307337 336 
L 918.307337 44.92 
" style="fill:none;stroke:#cccccc;stroke-linecap:round;"/>
     </g>
     <g id="text_15">
      <!-- 10 -->
      <g style="fill:#262626;" transform="translate(912.190306 353.373594)scale(0.11 -0.11)">
       <use xlink:href="#ArialMT-31"/>
       <use x="55.615234" xlink:href="#ArialMT-30"/>
      </g>
     </g>
    </g>
    <g id="xtick_9">
     <g id="line2d_20">
      <path clip-path="url(#p0ed8a4c206)" d="M 1041.041393 336 
L 1041.041393 44.92 
" style="fill:none;stroke:#cccccc;stroke-linecap:round;"/>
     </g>
     <g id="text_16">
      <!-- 20 -->
      <g style="fill:#262626;" transform="translate(1034.924362 353.373594)scale(0.11 -0.11)">
       <use xlink:href="#ArialMT-32"/>
       <use x="55.615234" xlink:href="#ArialMT-30"/>
      </g>
     </g>
    </g>
    <g id="xtick_10">
     <g id="line2d_21">
      <path clip-path="url(#p0ed8a4c206)" d="M 1163.77545 336 
L 1163.77545 44.92 
" style="fill:none;stroke:#cccccc;stroke-linecap:round;"/>
     </g>
     <g id="text_17">
      <!-- 30 -->
      <g style="fill:#262626;" transform="translate(1157.658418 353.373594)scale(0.11 -0.11)">
       <use xlink:href="#ArialMT-33"/>
       <use x="55.615234" xlink:href="#ArialMT-30"/>
      </g>
     </g>
    </g>
    <g id="xtick_11">
     <g id="line2d_22">
      <path clip-path="url(#p0ed8a4c206)" d="M 1286.509506 336 
L 1286.509506 44.92 
" style="fill:none;stroke:#cccccc;stroke-linecap:round;"/>
     </g>
     <g id="text_18">
      <!-- 40 -->
      <g style="fill:#262626;" transform="translate(1280.392474 353.373594)scale(0.11 -0.11)">
       <use xlink:href="#ArialMT-34"/>
       <use x="55.615234" xlink:href="#ArialMT-30"/>
      </g>
     </g>
    </g>
    <g id="xtick_12">
     <g id="line2d_23">
      <path clip-path="url(#p0ed8a4c206)" d="M 1409.243562 336 
L 1409.243562 44.92 
" style="fill:none;stroke:#cccccc;stroke-linecap:round;"/>
     </g>
     <g id="text_19">
      <!-- 50 -->
      <g style="fill:#262626;" transform="translate(1403.126531 353.373594)scale(0.11 -0.11)">
       <use xlink:href="#ArialMT-35"/>
       <use x="55.615234" xlink:href="#ArialMT-30"/>
      </g>
     </g>
    </g>
    <g id="text_20">
     <!-- Epochs -->
     <g style="fill:#262626;" transform="translate(1076.259844 368.149219)scale(0.12 -0.12)">
      <defs>
       <path d="M 506 0 
L 506 4581 
L 3819 4581 
L 3819 4041 
L 1113 4041 
L 1113 2638 
L 3647 2638 
L 3647 2100 
L 1113 2100 
L 1113 541 
L 3925 541 
L 3925 0 
L 506 0 
z
" id="ArialMT-45" transform="scale(0.015625)"/>
       <path d="M 422 -1272 
L 422 3319 
L 934 3319 
L 934 2888 
Q 1116 3141 1344 3267 
Q 1572 3394 1897 3394 
Q 2322 3394 2647 3175 
Q 2972 2956 3137 2557 
Q 3303 2159 3303 1684 
Q 3303 1175 3120 767 
Q 2938 359 2589 142 
Q 2241 -75 1856 -75 
Q 1575 -75 1351 44 
Q 1128 163 984 344 
L 984 -1272 
L 422 -1272 
z
M 931 1641 
Q 931 1000 1190 694 
Q 1450 388 1819 388 
Q 2194 388 2461 705 
Q 2728 1022 2728 1688 
Q 2728 2322 2467 2637 
Q 2206 2953 1844 2953 
Q 1484 2953 1207 2617 
Q 931 2281 931 1641 
z
" id="ArialMT-70" transform="scale(0.015625)"/>
       <path d="M 2588 1216 
L 3141 1144 
Q 3050 572 2676 248 
Q 2303 -75 1759 -75 
Q 1078 -75 664 370 
Q 250 816 250 1647 
Q 250 2184 428 2587 
Q 606 2991 970 3192 
Q 1334 3394 1763 3394 
Q 2303 3394 2647 3120 
Q 2991 2847 3088 2344 
L 2541 2259 
Q 2463 2594 2264 2762 
Q 2066 2931 1784 2931 
Q 1359 2931 1093 2626 
Q 828 2322 828 1663 
Q 828 994 1084 691 
Q 1341 388 1753 388 
Q 2084 388 2306 591 
Q 2528 794 2588 1216 
z
" id="ArialMT-63" transform="scale(0.015625)"/>
       <path d="M 422 0 
L 422 4581 
L 984 4581 
L 984 2938 
Q 1378 3394 1978 3394 
Q 2347 3394 2619 3248 
Q 2891 3103 3008 2847 
Q 3125 2591 3125 2103 
L 3125 0 
L 2563 0 
L 2563 2103 
Q 2563 2525 2380 2717 
Q 2197 2909 1863 2909 
Q 1613 2909 1392 2779 
Q 1172 2650 1078 2428 
Q 984 2206 984 1816 
L 984 0 
L 422 0 
z
" id="ArialMT-68" transform="scale(0.015625)"/>
      </defs>
      <use xlink:href="#ArialMT-45"/>
      <use x="66.699219" xlink:href="#ArialMT-70"/>
      <use x="122.314453" xlink:href="#ArialMT-6f"/>
      <use x="177.929688" xlink:href="#ArialMT-63"/>
      <use x="227.929688" xlink:href="#ArialMT-68"/>
      <use x="283.544922" xlink:href="#ArialMT-73"/>
     </g>
    </g>
   </g>
   <g id="matplotlib.axis_4">
    <g id="ytick_7">
     <g id="line2d_24">
      <path clip-path="url(#p0ed8a4c206)" d="M 765.503438 300.532272 
L 1427.04 300.532272 
" style="fill:none;stroke:#cccccc;stroke-linecap:round;"/>
     </g>
     <g id="text_21">
      <!-- 0.2 -->
      <g style="fill:#262626;" transform="translate(740.713438 304.469068)scale(0.11 -0.11)">
       <use xlink:href="#ArialMT-30"/>
       <use x="55.615234" xlink:href="#ArialMT-2e"/>
       <use x="83.398438" xlink:href="#ArialMT-32"/>
      </g>
     </g>
    </g>
    <g id="ytick_8">
     <g id="line2d_25">
      <path clip-path="url(#p0ed8a4c206)" d="M 765.503438 256.058627 
L 1427.04 256.058627 
" style="fill:none;stroke:#cccccc;stroke-linecap:round;"/>
     </g>
     <g id="text_22">
      <!-- 0.3 -->
      <g style="fill:#262626;" transform="translate(740.713438 259.995424)scale(0.11 -0.11)">
       <use xlink:href="#ArialMT-30"/>
       <use x="55.615234" xlink:href="#ArialMT-2e"/>
       <use x="83.398438" xlink:href="#ArialMT-33"/>
      </g>
     </g>
    </g>
    <g id="ytick_9">
     <g id="line2d_26">
      <path clip-path="url(#p0ed8a4c206)" d="M 765.503438 211.584983 
L 1427.04 211.584983 
" style="fill:none;stroke:#cccccc;stroke-linecap:round;"/>
     </g>
     <g id="text_23">
      <!-- 0.4 -->
      <g style="fill:#262626;" transform="translate(740.713438 215.52178)scale(0.11 -0.11)">
       <use xlink:href="#ArialMT-30"/>
       <use x="55.615234" xlink:href="#ArialMT-2e"/>
       <use x="83.398438" xlink:href="#ArialMT-34"/>
      </g>
     </g>
    </g>
    <g id="ytick_10">
     <g id="line2d_27">
      <path clip-path="url(#p0ed8a4c206)" d="M 765.503438 167.111339 
L 1427.04 167.111339 
" style="fill:none;stroke:#cccccc;stroke-linecap:round;"/>
     </g>
     <g id="text_24">
      <!-- 0.5 -->
      <g style="fill:#262626;" transform="translate(740.713438 171.048136)scale(0.11 -0.11)">
       <use xlink:href="#ArialMT-30"/>
       <use x="55.615234" xlink:href="#ArialMT-2e"/>
       <use x="83.398438" xlink:href="#ArialMT-35"/>
      </g>
     </g>
    </g>
    <g id="ytick_11">
     <g id="line2d_28">
      <path clip-path="url(#p0ed8a4c206)" d="M 765.503438 122.637695 
L 1427.04 122.637695 
" style="fill:none;stroke:#cccccc;stroke-linecap:round;"/>
     </g>
     <g id="text_25">
      <!-- 0.6 -->
      <g style="fill:#262626;" transform="translate(740.713438 126.574492)scale(0.11 -0.11)">
       <defs>
        <path d="M 3184 3459 
L 2625 3416 
Q 2550 3747 2413 3897 
Q 2184 4138 1850 4138 
Q 1581 4138 1378 3988 
Q 1113 3794 959 3422 
Q 806 3050 800 2363 
Q 1003 2672 1297 2822 
Q 1591 2972 1913 2972 
Q 2475 2972 2870 2558 
Q 3266 2144 3266 1488 
Q 3266 1056 3080 686 
Q 2894 316 2569 119 
Q 2244 -78 1831 -78 
Q 1128 -78 684 439 
Q 241 956 241 2144 
Q 241 3472 731 4075 
Q 1159 4600 1884 4600 
Q 2425 4600 2770 4297 
Q 3116 3994 3184 3459 
z
M 888 1484 
Q 888 1194 1011 928 
Q 1134 663 1356 523 
Q 1578 384 1822 384 
Q 2178 384 2434 671 
Q 2691 959 2691 1453 
Q 2691 1928 2437 2201 
Q 2184 2475 1800 2475 
Q 1419 2475 1153 2201 
Q 888 1928 888 1484 
z
" id="ArialMT-36" transform="scale(0.015625)"/>
       </defs>
       <use xlink:href="#ArialMT-30"/>
       <use x="55.615234" xlink:href="#ArialMT-2e"/>
       <use x="83.398438" xlink:href="#ArialMT-36"/>
      </g>
     </g>
    </g>
    <g id="ytick_12">
     <g id="line2d_29">
      <path clip-path="url(#p0ed8a4c206)" d="M 765.503438 78.164051 
L 1427.04 78.164051 
" style="fill:none;stroke:#cccccc;stroke-linecap:round;"/>
     </g>
     <g id="text_26">
      <!-- 0.7 -->
      <g style="fill:#262626;" transform="translate(740.713438 82.100848)scale(0.11 -0.11)">
       <defs>
        <path d="M 303 3981 
L 303 4522 
L 3269 4522 
L 3269 4084 
Q 2831 3619 2401 2847 
Q 1972 2075 1738 1259 
Q 1569 684 1522 0 
L 944 0 
Q 953 541 1156 1306 
Q 1359 2072 1739 2783 
Q 2119 3494 2547 3981 
L 303 3981 
z
" id="ArialMT-37" transform="scale(0.015625)"/>
       </defs>
       <use xlink:href="#ArialMT-30"/>
       <use x="55.615234" xlink:href="#ArialMT-2e"/>
       <use x="83.398438" xlink:href="#ArialMT-37"/>
      </g>
     </g>
    </g>
    <g id="text_27">
     <!-- Validation Accuracy -->
     <g style="fill:#262626;" transform="translate(734.187813 242.37875)rotate(-90)scale(0.12 -0.12)">
      <defs>
       <path d="M 1803 0 
L 28 4581 
L 684 4581 
L 1875 1253 
Q 2019 853 2116 503 
Q 2222 878 2363 1253 
L 3600 4581 
L 4219 4581 
L 2425 0 
L 1803 0 
z
" id="ArialMT-56" transform="scale(0.015625)"/>
       <path d="M 409 0 
L 409 4581 
L 972 4581 
L 972 0 
L 409 0 
z
" id="ArialMT-6c" transform="scale(0.015625)"/>
       <path d="M 2575 0 
L 2575 419 
Q 2259 -75 1647 -75 
Q 1250 -75 917 144 
Q 584 363 401 755 
Q 219 1147 219 1656 
Q 219 2153 384 2558 
Q 550 2963 881 3178 
Q 1213 3394 1622 3394 
Q 1922 3394 2156 3267 
Q 2391 3141 2538 2938 
L 2538 4581 
L 3097 4581 
L 3097 0 
L 2575 0 
z
M 797 1656 
Q 797 1019 1065 703 
Q 1334 388 1700 388 
Q 2069 388 2326 689 
Q 2584 991 2584 1609 
Q 2584 2291 2321 2609 
Q 2059 2928 1675 2928 
Q 1300 2928 1048 2622 
Q 797 2316 797 1656 
z
" id="ArialMT-64" transform="scale(0.015625)"/>
       <path d="M 1650 503 
L 1731 6 
Q 1494 -44 1306 -44 
Q 1000 -44 831 53 
Q 663 150 594 308 
Q 525 466 525 972 
L 525 2881 
L 113 2881 
L 113 3319 
L 525 3319 
L 525 4141 
L 1084 4478 
L 1084 3319 
L 1650 3319 
L 1650 2881 
L 1084 2881 
L 1084 941 
Q 1084 700 1114 631 
Q 1144 563 1211 522 
Q 1278 481 1403 481 
Q 1497 481 1650 503 
z
" id="ArialMT-74" transform="scale(0.015625)"/>
       <path d="M -9 0 
L 1750 4581 
L 2403 4581 
L 4278 0 
L 3588 0 
L 3053 1388 
L 1138 1388 
L 634 0 
L -9 0 
z
M 1313 1881 
L 2866 1881 
L 2388 3150 
Q 2169 3728 2063 4100 
Q 1975 3659 1816 3225 
L 1313 1881 
z
" id="ArialMT-41" transform="scale(0.015625)"/>
       <path d="M 2597 0 
L 2597 488 
Q 2209 -75 1544 -75 
Q 1250 -75 995 37 
Q 741 150 617 320 
Q 494 491 444 738 
Q 409 903 409 1263 
L 409 3319 
L 972 3319 
L 972 1478 
Q 972 1038 1006 884 
Q 1059 663 1231 536 
Q 1403 409 1656 409 
Q 1909 409 2131 539 
Q 2353 669 2445 892 
Q 2538 1116 2538 1541 
L 2538 3319 
L 3100 3319 
L 3100 0 
L 2597 0 
z
" id="ArialMT-75" transform="scale(0.015625)"/>
       <path d="M 397 -1278 
L 334 -750 
Q 519 -800 656 -800 
Q 844 -800 956 -737 
Q 1069 -675 1141 -563 
Q 1194 -478 1313 -144 
Q 1328 -97 1363 -6 
L 103 3319 
L 709 3319 
L 1400 1397 
Q 1534 1031 1641 628 
Q 1738 1016 1872 1384 
L 2581 3319 
L 3144 3319 
L 1881 -56 
Q 1678 -603 1566 -809 
Q 1416 -1088 1222 -1217 
Q 1028 -1347 759 -1347 
Q 597 -1347 397 -1278 
z
" id="ArialMT-79" transform="scale(0.015625)"/>
      </defs>
      <use xlink:href="#ArialMT-56"/>
      <use x="59.324219" xlink:href="#ArialMT-61"/>
      <use x="114.939453" xlink:href="#ArialMT-6c"/>
      <use x="137.15625" xlink:href="#ArialMT-69"/>
      <use x="159.373047" xlink:href="#ArialMT-64"/>
      <use x="214.988281" xlink:href="#ArialMT-61"/>
      <use x="270.603516" xlink:href="#ArialMT-74"/>
      <use x="298.386719" xlink:href="#ArialMT-69"/>
      <use x="320.603516" xlink:href="#ArialMT-6f"/>
      <use x="376.21875" xlink:href="#ArialMT-6e"/>
      <use x="431.833984" xlink:href="#ArialMT-20"/>
      <use x="454.117188" xlink:href="#ArialMT-41"/>
      <use x="520.816406" xlink:href="#ArialMT-63"/>
      <use x="570.816406" xlink:href="#ArialMT-63"/>
      <use x="620.816406" xlink:href="#ArialMT-75"/>
      <use x="676.431641" xlink:href="#ArialMT-72"/>
      <use x="709.732422" xlink:href="#ArialMT-61"/>
      <use x="765.347656" xlink:href="#ArialMT-63"/>
      <use x="815.347656" xlink:href="#ArialMT-79"/>
     </g>
    </g>
   </g>
   <g id="line2d_30">
    <path clip-path="url(#p0ed8a4c206)" d="M 795.573281 278.295449 
L 795.573281 289.413857 
L 807.846687 233.821795 
L 820.120092 167.111339 
L 832.393498 167.111339 
L 844.666904 178.22974 
L 856.940309 133.756085 
L 869.213715 155.992939 
L 881.487121 155.992912 
L 893.760526 122.637685 
L 906.033932 133.756085 
L 918.307337 133.756111 
L 930.580743 133.756111 
L 942.854149 167.111339 
L 955.127554 155.992912 
L 967.40096 122.637685 
L 979.674365 133.756085 
L 991.947771 122.637685 
L 1004.221177 133.756085 
L 1016.494582 144.874512 
L 1028.767988 122.637685 
L 1041.041393 144.874512 
L 1053.314799 133.756085 
L 1065.588205 144.874512 
L 1077.86161 133.756085 
L 1090.135016 133.756085 
L 1102.408422 133.756085 
L 1114.681827 167.111339 
L 1126.955233 144.874512 
L 1139.228638 167.111339 
L 1151.502044 122.637685 
L 1163.77545 133.756111 
L 1176.048855 155.992939 
L 1188.322261 133.756111 
L 1200.595666 167.111339 
L 1212.869072 144.874512 
L 1225.142478 155.992939 
L 1237.415883 155.992939 
L 1249.689289 133.756111 
L 1261.962695 167.111339 
L 1274.2361 144.874512 
L 1286.509506 144.874512 
L 1298.782911 133.756085 
L 1311.056317 133.756085 
L 1323.329723 133.756085 
L 1335.603128 122.637685 
L 1347.876534 122.637685 
L 1360.149939 122.637685 
L 1372.423345 122.637685 
L 1384.696751 122.637685 
L 1396.970156 133.756085 
" style="fill:none;stroke:#023eff;stroke-linecap:round;stroke-width:1.5;"/>
   </g>
   <g id="line2d_31">
    <path clip-path="url(#p0ed8a4c206)" d="M 795.573281 322.769091 
L 795.573281 244.940222 
L 807.846687 206.025767 
L 820.120092 172.670539 
L 832.393498 150.433712 
L 844.666904 122.637711 
L 856.940309 167.111339 
L 869.213715 139.315312 
L 881.487121 117.078484 
L 893.760526 122.637711 
L 906.033932 117.078484 
L 918.307337 117.078511 
L 930.580743 100.400857 
L 942.854149 100.400884 
L 955.127554 139.315312 
L 967.40096 89.282457 
L 979.674365 78.164056 
L 991.947771 122.637685 
L 1004.221177 105.960084 
L 1016.494582 105.960057 
L 1028.767988 72.60483 
L 1041.041393 94.841657 
L 1053.314799 105.960084 
L 1065.588205 100.400884 
L 1077.86161 111.519284 
L 1090.135016 100.400884 
L 1102.408422 128.196911 
L 1114.681827 122.637685 
L 1126.955233 100.400884 
L 1139.228638 89.282457 
L 1151.502044 105.960057 
L 1163.77545 78.16403 
L 1176.048855 89.282457 
L 1188.322261 89.282457 
L 1200.595666 111.519284 
L 1212.869072 100.400884 
L 1225.142478 78.164056 
L 1237.415883 111.519284 
L 1249.689289 83.723257 
L 1261.962695 139.315312 
L 1274.2361 83.723257 
L 1286.509506 117.078484 
L 1298.782911 72.604856 
L 1311.056317 111.519284 
L 1323.329723 83.723257 
L 1335.603128 78.16403 
L 1347.876534 105.960084 
L 1360.149939 78.164056 
L 1372.423345 117.078484 
L 1384.696751 72.604856 
L 1396.970156 89.282483 
" style="fill:none;stroke:#ff7c00;stroke-linecap:round;stroke-width:1.5;"/>
   </g>
   <g id="line2d_32">
    <path clip-path="url(#p0ed8a4c206)" d="M 795.573281 322.769091 
L 795.573281 181.935873 
L 807.846687 167.111352 
L 820.120092 133.756111 
L 832.393498 141.168378 
L 844.666904 152.286779 
L 856.940309 122.637685 
L 869.213715 107.813151 
L 881.487121 118.931551 
L 893.760526 111.519284 
L 906.033932 107.813151 
L 918.307337 111.519284 
L 930.580743 115.225418 
L 942.854149 104.107017 
L 955.127554 104.106991 
L 967.40096 104.107017 
L 979.674365 115.225418 
L 991.947771 126.343818 
L 1004.221177 100.400857 
L 1016.494582 107.813151 
L 1028.767988 89.28243 
L 1041.041393 100.400857 
L 1053.314799 92.98859 
L 1065.588205 96.694724 
L 1077.86161 115.225418 
L 1090.135016 115.225418 
L 1102.408422 115.225418 
L 1114.681827 92.98859 
L 1126.955233 92.98859 
L 1139.228638 96.69475 
L 1151.502044 89.28243 
L 1163.77545 104.107017 
L 1176.048855 89.28243 
L 1188.322261 96.694697 
L 1200.595666 92.98859 
L 1212.869072 96.694697 
L 1225.142478 111.519284 
L 1237.415883 96.69475 
L 1249.689289 96.69475 
L 1261.962695 100.400884 
L 1274.2361 107.813124 
L 1286.509506 92.98859 
L 1298.782911 89.28243 
L 1311.056317 85.576297 
L 1323.329723 85.576297 
L 1335.603128 100.400884 
L 1347.876534 111.519284 
L 1360.149939 107.813151 
L 1372.423345 104.107017 
L 1384.696751 115.225418 
L 1396.970156 92.98859 
" style="fill:none;stroke:#1ac938;stroke-linecap:round;stroke-width:1.5;"/>
   </g>
   <g id="line2d_33">
    <path clip-path="url(#p0ed8a4c206)" d="M 795.573281 300.53227 
L 795.573281 186.568553 
L 807.846687 147.654125 
L 820.120092 136.535698 
L 832.393498 125.417298 
L 844.666904 125.417298 
L 856.940309 108.739671 
L 869.213715 103.180497 
L 881.487121 97.62127 
L 893.760526 130.976498 
L 906.033932 100.400884 
L 918.307337 111.519284 
L 930.580743 108.739671 
L 942.854149 103.180471 
L 955.127554 89.282483 
L 967.40096 94.841683 
L 979.674365 97.62127 
L 991.947771 83.723257 
L 1004.221177 89.282457 
L 1016.494582 75.384443 
L 1028.767988 64.266016 
L 1041.041393 86.50287 
L 1053.314799 86.50287 
L 1065.588205 86.502843 
L 1077.86161 83.723257 
L 1090.135016 89.282483 
L 1102.408422 108.739671 
L 1114.681827 75.38447 
L 1126.955233 78.164056 
L 1139.228638 80.943643 
L 1151.502044 83.723257 
L 1163.77545 78.164056 
L 1176.048855 78.164056 
L 1188.322261 83.723257 
L 1200.595666 75.384443 
L 1212.869072 80.943643 
L 1225.142478 72.604856 
L 1237.415883 75.38447 
L 1249.689289 75.384443 
L 1261.962695 97.62127 
L 1274.2361 83.723257 
L 1286.509506 69.825243 
L 1298.782911 86.50287 
L 1311.056317 78.164056 
L 1323.329723 75.38447 
L 1335.603128 75.384443 
L 1347.876534 75.38447 
L 1360.149939 86.50287 
L 1372.423345 69.825243 
L 1384.696751 83.723257 
L 1396.970156 86.50287 
" style="fill:none;stroke:#e8000b;stroke-linecap:round;stroke-width:1.5;"/>
   </g>
   <g id="line2d_34">
    <path clip-path="url(#p0ed8a4c206)" d="M 795.573281 322.769091 
L 795.573281 142.650832 
L 807.846687 122.637685 
L 820.120092 138.203472 
L 832.393498 107.071897 
L 844.666904 98.177204 
L 856.940309 98.177177 
L 869.213715 98.177177 
L 881.487121 82.611417 
L 893.760526 80.38771 
L 906.033932 82.611417 
L 918.307337 89.28243 
L 930.580743 91.506137 
L 942.854149 89.282457 
L 955.127554 75.94035 
L 967.40096 73.716696 
L 979.674365 82.611417 
L 991.947771 91.506137 
L 1004.221177 82.611417 
L 1016.494582 71.492963 
L 1028.767988 58.150909 
L 1041.041393 82.611417 
L 1053.314799 80.387736 
L 1065.588205 73.716696 
L 1077.86161 64.821949 
L 1090.135016 80.387736 
L 1102.408422 64.821949 
L 1114.681827 73.71667 
L 1126.955233 78.164056 
L 1139.228638 75.94035 
L 1151.502044 67.045629 
L 1163.77545 75.94035 
L 1176.048855 82.611417 
L 1188.322261 71.49299 
L 1200.595666 80.387736 
L 1212.869072 93.729817 
L 1225.142478 75.94035 
L 1237.415883 69.26931 
L 1249.689289 84.83507 
L 1261.962695 64.821949 
L 1274.2361 69.26931 
L 1286.509506 67.045629 
L 1298.782911 69.269336 
L 1311.056317 69.26931 
L 1323.329723 67.045629 
L 1335.603128 80.387736 
L 1347.876534 64.821976 
L 1360.149939 69.269336 
L 1372.423345 71.49299 
L 1384.696751 71.492963 
L 1396.970156 67.045629 
" style="fill:none;stroke:#8b2be2;stroke-linecap:round;stroke-width:1.5;"/>
   </g>
   <g id="patch_8">
    <path d="M 765.503438 336 
L 765.503438 44.92 
" style="fill:none;stroke:#cccccc;stroke-linecap:square;stroke-linejoin:miter;stroke-width:1.25;"/>
   </g>
   <g id="patch_9">
    <path d="M 1427.04 336 
L 1427.04 44.92 
" style="fill:none;stroke:#cccccc;stroke-linecap:square;stroke-linejoin:miter;stroke-width:1.25;"/>
   </g>
   <g id="patch_10">
    <path d="M 765.503438 336 
L 1427.04 336 
" style="fill:none;stroke:#cccccc;stroke-linecap:square;stroke-linejoin:miter;stroke-width:1.25;"/>
   </g>
   <g id="patch_11">
    <path d="M 765.503438 44.92 
L 1427.04 44.92 
" style="fill:none;stroke:#cccccc;stroke-linecap:square;stroke-linejoin:miter;stroke-width:1.25;"/>
   </g>
  </g>
  <g id="axes_3">
   <g id="patch_12">
    <path d="M 51.96 673.54 
L 713.496562 673.54 
L 713.496562 382.46 
L 51.96 382.46 
z
" style="fill:#ffffff;"/>
   </g>
   <g id="matplotlib.axis_5">
    <g id="xtick_13">
     <g id="line2d_35">
      <path clip-path="url(#p7dfb40833e)" d="M 82.029844 673.54 
L 82.029844 382.46 
" style="fill:none;stroke:#cccccc;stroke-linecap:round;"/>
     </g>
     <g id="text_28">
      <!-- 0 -->
      <g style="fill:#262626;" transform="translate(78.971328 690.913594)scale(0.11 -0.11)">
       <use xlink:href="#ArialMT-30"/>
      </g>
     </g>
    </g>
    <g id="xtick_14">
     <g id="line2d_36">
      <path clip-path="url(#p7dfb40833e)" d="M 204.7639 673.54 
L 204.7639 382.46 
" style="fill:none;stroke:#cccccc;stroke-linecap:round;"/>
     </g>
     <g id="text_29">
      <!-- 10 -->
      <g style="fill:#262626;" transform="translate(198.646869 690.913594)scale(0.11 -0.11)">
       <use xlink:href="#ArialMT-31"/>
       <use x="55.615234" xlink:href="#ArialMT-30"/>
      </g>
     </g>
    </g>
    <g id="xtick_15">
     <g id="line2d_37">
      <path clip-path="url(#p7dfb40833e)" d="M 327.497956 673.54 
L 327.497956 382.46 
" style="fill:none;stroke:#cccccc;stroke-linecap:round;"/>
     </g>
     <g id="text_30">
      <!-- 20 -->
      <g style="fill:#262626;" transform="translate(321.380925 690.913594)scale(0.11 -0.11)">
       <use xlink:href="#ArialMT-32"/>
       <use x="55.615234" xlink:href="#ArialMT-30"/>
      </g>
     </g>
    </g>
    <g id="xtick_16">
     <g id="line2d_38">
      <path clip-path="url(#p7dfb40833e)" d="M 450.232012 673.54 
L 450.232012 382.46 
" style="fill:none;stroke:#cccccc;stroke-linecap:round;"/>
     </g>
     <g id="text_31">
      <!-- 30 -->
      <g style="fill:#262626;" transform="translate(444.114981 690.913594)scale(0.11 -0.11)">
       <use xlink:href="#ArialMT-33"/>
       <use x="55.615234" xlink:href="#ArialMT-30"/>
      </g>
     </g>
    </g>
    <g id="xtick_17">
     <g id="line2d_39">
      <path clip-path="url(#p7dfb40833e)" d="M 572.966068 673.54 
L 572.966068 382.46 
" style="fill:none;stroke:#cccccc;stroke-linecap:round;"/>
     </g>
     <g id="text_32">
      <!-- 40 -->
      <g style="fill:#262626;" transform="translate(566.849037 690.913594)scale(0.11 -0.11)">
       <use xlink:href="#ArialMT-34"/>
       <use x="55.615234" xlink:href="#ArialMT-30"/>
      </g>
     </g>
    </g>
    <g id="xtick_18">
     <g id="line2d_40">
      <path clip-path="url(#p7dfb40833e)" d="M 695.700124 673.54 
L 695.700124 382.46 
" style="fill:none;stroke:#cccccc;stroke-linecap:round;"/>
     </g>
     <g id="text_33">
      <!-- 50 -->
      <g style="fill:#262626;" transform="translate(689.583093 690.913594)scale(0.11 -0.11)">
       <use xlink:href="#ArialMT-35"/>
       <use x="55.615234" xlink:href="#ArialMT-30"/>
      </g>
     </g>
    </g>
    <g id="text_34">
     <!-- Epochs -->
     <g style="fill:#262626;" transform="translate(362.716406 705.689219)scale(0.12 -0.12)">
      <use xlink:href="#ArialMT-45"/>
      <use x="66.699219" xlink:href="#ArialMT-70"/>
      <use x="122.314453" xlink:href="#ArialMT-6f"/>
      <use x="177.929688" xlink:href="#ArialMT-63"/>
      <use x="227.929688" xlink:href="#ArialMT-68"/>
      <use x="283.544922" xlink:href="#ArialMT-73"/>
     </g>
    </g>
   </g>
   <g id="matplotlib.axis_6">
    <g id="ytick_13">
     <g id="line2d_41">
      <path clip-path="url(#p7dfb40833e)" d="M 51.96 644.743317 
L 713.496562 644.743317 
" style="fill:none;stroke:#cccccc;stroke-linecap:round;"/>
     </g>
     <g id="text_35">
      <!-- 0.2 -->
      <g style="fill:#262626;" transform="translate(27.17 648.680114)scale(0.11 -0.11)">
       <use xlink:href="#ArialMT-30"/>
       <use x="55.615234" xlink:href="#ArialMT-2e"/>
       <use x="83.398438" xlink:href="#ArialMT-32"/>
      </g>
     </g>
    </g>
    <g id="ytick_14">
     <g id="line2d_42">
      <path clip-path="url(#p7dfb40833e)" d="M 51.96 582.480215 
L 713.496562 582.480215 
" style="fill:none;stroke:#cccccc;stroke-linecap:round;"/>
     </g>
     <g id="text_36">
      <!-- 0.4 -->
      <g style="fill:#262626;" transform="translate(27.17 586.417012)scale(0.11 -0.11)">
       <use xlink:href="#ArialMT-30"/>
       <use x="55.615234" xlink:href="#ArialMT-2e"/>
       <use x="83.398438" xlink:href="#ArialMT-34"/>
      </g>
     </g>
    </g>
    <g id="ytick_15">
     <g id="line2d_43">
      <path clip-path="url(#p7dfb40833e)" d="M 51.96 520.217113 
L 713.496562 520.217113 
" style="fill:none;stroke:#cccccc;stroke-linecap:round;"/>
     </g>
     <g id="text_37">
      <!-- 0.6 -->
      <g style="fill:#262626;" transform="translate(27.17 524.15391)scale(0.11 -0.11)">
       <use xlink:href="#ArialMT-30"/>
       <use x="55.615234" xlink:href="#ArialMT-2e"/>
       <use x="83.398438" xlink:href="#ArialMT-36"/>
      </g>
     </g>
    </g>
    <g id="ytick_16">
     <g id="line2d_44">
      <path clip-path="url(#p7dfb40833e)" d="M 51.96 457.954011 
L 713.496562 457.954011 
" style="fill:none;stroke:#cccccc;stroke-linecap:round;"/>
     </g>
     <g id="text_38">
      <!-- 0.8 -->
      <g style="fill:#262626;" transform="translate(27.17 461.890808)scale(0.11 -0.11)">
       <defs>
        <path d="M 1131 2484 
Q 781 2613 612 2850 
Q 444 3088 444 3419 
Q 444 3919 803 4259 
Q 1163 4600 1759 4600 
Q 2359 4600 2725 4251 
Q 3091 3903 3091 3403 
Q 3091 3084 2923 2848 
Q 2756 2613 2416 2484 
Q 2838 2347 3058 2040 
Q 3278 1734 3278 1309 
Q 3278 722 2862 322 
Q 2447 -78 1769 -78 
Q 1091 -78 675 323 
Q 259 725 259 1325 
Q 259 1772 486 2073 
Q 713 2375 1131 2484 
z
M 1019 3438 
Q 1019 3113 1228 2906 
Q 1438 2700 1772 2700 
Q 2097 2700 2305 2904 
Q 2513 3109 2513 3406 
Q 2513 3716 2298 3927 
Q 2084 4138 1766 4138 
Q 1444 4138 1231 3931 
Q 1019 3725 1019 3438 
z
M 838 1322 
Q 838 1081 952 856 
Q 1066 631 1291 507 
Q 1516 384 1775 384 
Q 2178 384 2440 643 
Q 2703 903 2703 1303 
Q 2703 1709 2433 1975 
Q 2163 2241 1756 2241 
Q 1359 2241 1098 1978 
Q 838 1716 838 1322 
z
" id="ArialMT-38" transform="scale(0.015625)"/>
       </defs>
       <use xlink:href="#ArialMT-30"/>
       <use x="55.615234" xlink:href="#ArialMT-2e"/>
       <use x="83.398438" xlink:href="#ArialMT-38"/>
      </g>
     </g>
    </g>
    <g id="ytick_17">
     <g id="line2d_45">
      <path clip-path="url(#p7dfb40833e)" d="M 51.96 395.690909 
L 713.496562 395.690909 
" style="fill:none;stroke:#cccccc;stroke-linecap:round;"/>
     </g>
     <g id="text_39">
      <!-- 1.0 -->
      <g style="fill:#262626;" transform="translate(27.17 399.627706)scale(0.11 -0.11)">
       <use xlink:href="#ArialMT-31"/>
       <use x="55.615234" xlink:href="#ArialMT-2e"/>
       <use x="83.398438" xlink:href="#ArialMT-30"/>
      </g>
     </g>
    </g>
    <g id="text_40">
     <!-- Training Accuracy -->
     <g style="fill:#262626;" transform="translate(20.644375 575.46)rotate(-90)scale(0.12 -0.12)">
      <use xlink:href="#ArialMT-54"/>
      <use x="57.333984" xlink:href="#ArialMT-72"/>
      <use x="90.634766" xlink:href="#ArialMT-61"/>
      <use x="146.25" xlink:href="#ArialMT-69"/>
      <use x="168.466797" xlink:href="#ArialMT-6e"/>
      <use x="224.082031" xlink:href="#ArialMT-69"/>
      <use x="246.298828" xlink:href="#ArialMT-6e"/>
      <use x="301.914062" xlink:href="#ArialMT-67"/>
      <use x="357.529297" xlink:href="#ArialMT-20"/>
      <use x="379.8125" xlink:href="#ArialMT-41"/>
      <use x="446.511719" xlink:href="#ArialMT-63"/>
      <use x="496.511719" xlink:href="#ArialMT-63"/>
      <use x="546.511719" xlink:href="#ArialMT-75"/>
      <use x="602.126953" xlink:href="#ArialMT-72"/>
      <use x="635.427734" xlink:href="#ArialMT-61"/>
      <use x="691.042969" xlink:href="#ArialMT-63"/>
      <use x="741.042969" xlink:href="#ArialMT-79"/>
     </g>
    </g>
   </g>
   <g id="line2d_46">
    <path clip-path="url(#p7dfb40833e)" d="M 82.029844 660.309091 
L 94.303249 609.720322 
L 106.576655 563.023003 
L 118.850061 555.240104 
L 131.123466 533.837156 
L 143.396872 512.434225 
L 155.670277 516.325666 
L 167.943683 520.217106 
L 180.217089 512.434225 
L 192.490494 481.302667 
L 204.7639 479.356938 
L 217.037305 477.411227 
L 229.310711 467.682617 
L 241.584117 463.791177 
L 253.857522 438.496807 
L 266.130928 450.171127 
L 278.404334 430.713908 
L 290.677739 415.148128 
L 302.951145 430.713908 
L 315.22455 422.931009 
L 327.497956 413.202418 
L 339.771362 405.419519 
L 352.044767 407.365248 
L 364.318173 407.365248 
L 376.591578 405.419519 
L 388.864984 403.473789 
L 401.13839 403.473789 
L 413.411795 413.202399 
L 425.685201 399.582349 
L 437.958607 403.473789 
L 450.232012 401.528079 
L 462.505418 401.52806 
L 474.778823 395.690909 
L 487.052229 397.636638 
L 499.325635 397.636638 
L 511.59904 407.365248 
L 523.872446 403.473789 
L 536.145851 397.636638 
L 548.419257 403.473789 
L 560.692663 403.473789 
L 572.966068 403.473789 
L 585.239474 403.473789 
L 597.512879 401.528079 
L 609.786285 401.52806 
L 622.059691 395.690909 
L 634.333096 399.582349 
L 646.606502 397.636638 
L 658.879908 397.636638 
L 671.153313 395.690909 
L 683.426719 395.690909 
" style="fill:none;stroke:#023eff;stroke-linecap:round;stroke-width:1.5;"/>
   </g>
   <g id="line2d_47">
    <path clip-path="url(#p7dfb40833e)" d="M 82.029844 642.797592 
L 94.303249 575.670188 
L 106.576655 563.995859 
L 118.850061 538.701479 
L 131.123466 530.91858 
L 143.396872 500.759886 
L 155.670277 512.434225 
L 167.943683 495.895582 
L 180.217089 480.329821 
L 192.490494 479.356956 
L 204.7639 456.981143 
L 217.037305 468.655482 
L 229.310711 446.279687 
L 241.584117 453.089703 
L 253.857522 447.252533 
L 266.130928 433.632502 
L 278.404334 428.768197 
L 290.677739 433.632502 
L 302.951145 420.985298 
L 315.22455 412.229553 
L 327.497956 412.229553 
L 339.771362 427.795314 
L 352.044767 409.310978 
L 364.318173 404.446654 
L 376.591578 408.338094 
L 388.864984 408.338113 
L 401.13839 402.500925 
L 413.411795 404.446654 
L 425.685201 413.202399 
L 437.958607 406.392365 
L 450.232012 404.446654 
L 462.505418 401.528079 
L 474.778823 400.555214 
L 487.052229 400.555214 
L 499.325635 398.609485 
L 511.59904 397.636638 
L 523.872446 399.582349 
L 536.145851 400.555214 
L 548.419257 397.636638 
L 560.692663 398.609485 
L 572.966068 399.582368 
L 585.239474 402.500925 
L 597.512879 396.663774 
L 609.786285 396.663774 
L 622.059691 396.663774 
L 634.333096 397.636638 
L 646.606502 397.636638 
L 658.879908 397.636638 
L 671.153313 399.582349 
L 683.426719 398.609485 
" style="fill:none;stroke:#ff7c00;stroke-linecap:round;stroke-width:1.5;"/>
   </g>
   <g id="line2d_48">
    <path clip-path="url(#p7dfb40833e)" d="M 82.029844 627.880386 
L 94.303249 557.834398 
L 106.576655 529.945715 
L 118.850061 516.325647 
L 131.123466 518.919959 
L 143.396872 492.328442 
L 155.670277 489.73413 
L 167.943683 474.168351 
L 180.217089 469.628328 
L 192.490494 459.899737 
L 204.7639 456.008297 
L 217.037305 450.171127 
L 229.310711 440.442517 
L 241.584117 438.496769 
L 253.857522 436.551059 
L 266.130928 420.985298 
L 278.404334 435.902476 
L 290.677739 429.416761 
L 302.951145 426.173885 
L 315.22455 413.202399 
L 327.497956 411.905252 
L 339.771362 412.553816 
L 352.044767 411.905252 
L 364.318173 404.770955 
L 376.591578 408.013812 
L 388.864984 404.770955 
L 401.13839 404.770955 
L 413.411795 406.716666 
L 425.685201 402.176643 
L 437.958607 402.176643 
L 450.232012 401.528079 
L 462.505418 404.122391 
L 474.778823 400.230932 
L 487.052229 399.582331 
L 499.325635 398.285203 
L 511.59904 398.285203 
L 523.872446 397.636638 
L 536.145851 398.285203 
L 548.419257 400.230932 
L 560.692663 401.528079 
L 572.966068 396.339473 
L 585.239474 398.285203 
L 597.512879 396.339473 
L 609.786285 396.988056 
L 622.059691 398.933767 
L 634.333096 396.988056 
L 646.606502 396.988056 
L 658.879908 397.63662 
L 671.153313 398.933767 
L 683.426719 400.230895 
" style="fill:none;stroke:#1ac938;stroke-linecap:round;stroke-width:1.5;"/>
   </g>
   <g id="line2d_49">
    <path clip-path="url(#p7dfb40833e)" d="M 82.029844 617.503203 
L 94.303249 558.645112 
L 106.576655 526.540717 
L 118.850061 504.651345 
L 131.123466 506.597056 
L 143.396872 498.814157 
L 155.670277 491.517718 
L 167.943683 471.087634 
L 180.217089 464.2776 
L 192.490494 462.331889 
L 204.7639 450.65755 
L 217.037305 447.738975 
L 229.310711 445.793264 
L 241.584117 439.469653 
L 253.857522 432.659619 
L 266.130928 425.363161 
L 278.404334 422.444586 
L 290.677739 416.607435 
L 302.951145 413.202418 
L 315.22455 413.202399 
L 327.497956 412.229553 
L 339.771362 407.851671 
L 352.044767 410.770247 
L 364.318173 409.310959 
L 376.591578 409.797401 
L 388.864984 409.310978 
L 401.13839 402.987366 
L 413.411795 402.987366 
L 425.685201 398.609485 
L 437.958607 401.528079 
L 450.232012 397.636638 
L 462.505418 402.987366 
L 474.778823 403.960212 
L 487.052229 402.014502 
L 499.325635 398.123062 
L 511.59904 401.041637 
L 523.872446 399.095926 
L 536.145851 399.582349 
L 548.419257 398.123062 
L 560.692663 397.636638 
L 572.966068 398.123062 
L 585.239474 399.095908 
L 597.512879 396.663774 
L 609.786285 397.150197 
L 622.059691 399.095908 
L 634.333096 396.177332 
L 646.606502 396.663774 
L 658.879908 396.663774 
L 671.153313 397.150197 
L 683.426719 398.609485 
" style="fill:none;stroke:#e8000b;stroke-linecap:round;stroke-width:1.5;"/>
   </g>
   <g id="line2d_50">
    <path clip-path="url(#p7dfb40833e)" d="M 82.029844 608.163737 
L 94.303249 542.787477 
L 106.576655 524.108546 
L 118.850061 511.655937 
L 131.123466 498.035888 
L 143.396872 490.642142 
L 155.670277 481.302667 
L 167.943683 476.632957 
L 180.217089 465.736888 
L 192.490494 460.288872 
L 204.7639 449.003667 
L 217.037305 443.55567 
L 229.310711 441.609959 
L 241.584117 435.772752 
L 253.857522 430.324754 
L 266.130928 425.655008 
L 278.404334 420.20701 
L 290.677739 414.758994 
L 302.951145 421.374451 
L 315.22455 412.424093 
L 327.497956 411.645823 
L 339.771362 410.089266 
L 352.044767 410.089228 
L 364.318173 410.089228 
L 376.591578 412.42413 
L 388.864984 404.252077 
L 401.13839 401.917213 
L 413.411795 401.917213 
L 425.685201 401.917213 
L 437.958607 399.971521 
L 450.232012 404.641231 
L 462.505418 404.641212 
L 474.778823 402.306348 
L 487.052229 401.138925 
L 499.325635 400.749772 
L 511.59904 398.025773 
L 523.872446 401.528079 
L 536.145851 400.749791 
L 548.419257 400.360619 
L 560.692663 401.138925 
L 572.966068 400.749791 
L 585.239474 397.247485 
L 597.512879 398.414908 
L 609.786285 399.971484 
L 622.059691 399.582349 
L 634.333096 398.414908 
L 646.606502 398.025773 
L 658.879908 397.247485 
L 671.153313 399.193215 
L 683.426719 397.63662 
" style="fill:none;stroke:#8b2be2;stroke-linecap:round;stroke-width:1.5;"/>
   </g>
   <g id="patch_13">
    <path d="M 51.96 673.54 
L 51.96 382.46 
" style="fill:none;stroke:#cccccc;stroke-linecap:square;stroke-linejoin:miter;stroke-width:1.25;"/>
   </g>
   <g id="patch_14">
    <path d="M 713.496562 673.54 
L 713.496562 382.46 
" style="fill:none;stroke:#cccccc;stroke-linecap:square;stroke-linejoin:miter;stroke-width:1.25;"/>
   </g>
   <g id="patch_15">
    <path d="M 51.96 673.54 
L 713.496562 673.54 
" style="fill:none;stroke:#cccccc;stroke-linecap:square;stroke-linejoin:miter;stroke-width:1.25;"/>
   </g>
   <g id="patch_16">
    <path d="M 51.96 382.46 
L 713.496562 382.46 
" style="fill:none;stroke:#cccccc;stroke-linecap:square;stroke-linejoin:miter;stroke-width:1.25;"/>
   </g>
  </g>
  <g id="axes_4">
   <g id="patch_17">
    <path d="M 765.503438 673.54 
L 1427.04 673.54 
L 1427.04 382.46 
L 765.503438 382.46 
z
" style="fill:#ffffff;"/>
   </g>
   <g id="matplotlib.axis_7">
    <g id="xtick_19">
     <g id="line2d_51">
      <path clip-path="url(#pe7c37b9ff0)" d="M 795.573281 673.54 
L 795.573281 382.46 
" style="fill:none;stroke:#cccccc;stroke-linecap:round;"/>
     </g>
     <g id="text_41">
      <!-- 0 -->
      <g style="fill:#262626;" transform="translate(792.514766 690.913594)scale(0.11 -0.11)">
       <use xlink:href="#ArialMT-30"/>
      </g>
     </g>
    </g>
    <g id="xtick_20">
     <g id="line2d_52">
      <path clip-path="url(#pe7c37b9ff0)" d="M 918.307337 673.54 
L 918.307337 382.46 
" style="fill:none;stroke:#cccccc;stroke-linecap:round;"/>
     </g>
     <g id="text_42">
      <!-- 10 -->
      <g style="fill:#262626;" transform="translate(912.190306 690.913594)scale(0.11 -0.11)">
       <use xlink:href="#ArialMT-31"/>
       <use x="55.615234" xlink:href="#ArialMT-30"/>
      </g>
     </g>
    </g>
    <g id="xtick_21">
     <g id="line2d_53">
      <path clip-path="url(#pe7c37b9ff0)" d="M 1041.041393 673.54 
L 1041.041393 382.46 
" style="fill:none;stroke:#cccccc;stroke-linecap:round;"/>
     </g>
     <g id="text_43">
      <!-- 20 -->
      <g style="fill:#262626;" transform="translate(1034.924362 690.913594)scale(0.11 -0.11)">
       <use xlink:href="#ArialMT-32"/>
       <use x="55.615234" xlink:href="#ArialMT-30"/>
      </g>
     </g>
    </g>
    <g id="xtick_22">
     <g id="line2d_54">
      <path clip-path="url(#pe7c37b9ff0)" d="M 1163.77545 673.54 
L 1163.77545 382.46 
" style="fill:none;stroke:#cccccc;stroke-linecap:round;"/>
     </g>
     <g id="text_44">
      <!-- 30 -->
      <g style="fill:#262626;" transform="translate(1157.658418 690.913594)scale(0.11 -0.11)">
       <use xlink:href="#ArialMT-33"/>
       <use x="55.615234" xlink:href="#ArialMT-30"/>
      </g>
     </g>
    </g>
    <g id="xtick_23">
     <g id="line2d_55">
      <path clip-path="url(#pe7c37b9ff0)" d="M 1286.509506 673.54 
L 1286.509506 382.46 
" style="fill:none;stroke:#cccccc;stroke-linecap:round;"/>
     </g>
     <g id="text_45">
      <!-- 40 -->
      <g style="fill:#262626;" transform="translate(1280.392474 690.913594)scale(0.11 -0.11)">
       <use xlink:href="#ArialMT-34"/>
       <use x="55.615234" xlink:href="#ArialMT-30"/>
      </g>
     </g>
    </g>
    <g id="xtick_24">
     <g id="line2d_56">
      <path clip-path="url(#pe7c37b9ff0)" d="M 1409.243562 673.54 
L 1409.243562 382.46 
" style="fill:none;stroke:#cccccc;stroke-linecap:round;"/>
     </g>
     <g id="text_46">
      <!-- 50 -->
      <g style="fill:#262626;" transform="translate(1403.126531 690.913594)scale(0.11 -0.11)">
       <use xlink:href="#ArialMT-35"/>
       <use x="55.615234" xlink:href="#ArialMT-30"/>
      </g>
     </g>
    </g>
    <g id="text_47">
     <!-- Epochs -->
     <g style="fill:#262626;" transform="translate(1076.259844 705.689219)scale(0.12 -0.12)">
      <use xlink:href="#ArialMT-45"/>
      <use x="66.699219" xlink:href="#ArialMT-70"/>
      <use x="122.314453" xlink:href="#ArialMT-6f"/>
      <use x="177.929688" xlink:href="#ArialMT-63"/>
      <use x="227.929688" xlink:href="#ArialMT-68"/>
      <use x="283.544922" xlink:href="#ArialMT-73"/>
     </g>
    </g>
   </g>
   <g id="matplotlib.axis_8">
    <g id="ytick_18">
     <g id="line2d_57">
      <path clip-path="url(#pe7c37b9ff0)" d="M 765.503438 638.072272 
L 1427.04 638.072272 
" style="fill:none;stroke:#cccccc;stroke-linecap:round;"/>
     </g>
     <g id="text_48">
      <!-- 0.2 -->
      <g style="fill:#262626;" transform="translate(740.713438 642.009068)scale(0.11 -0.11)">
       <use xlink:href="#ArialMT-30"/>
       <use x="55.615234" xlink:href="#ArialMT-2e"/>
       <use x="83.398438" xlink:href="#ArialMT-32"/>
      </g>
     </g>
    </g>
    <g id="ytick_19">
     <g id="line2d_58">
      <path clip-path="url(#pe7c37b9ff0)" d="M 765.503438 593.598627 
L 1427.04 593.598627 
" style="fill:none;stroke:#cccccc;stroke-linecap:round;"/>
     </g>
     <g id="text_49">
      <!-- 0.3 -->
      <g style="fill:#262626;" transform="translate(740.713438 597.535424)scale(0.11 -0.11)">
       <use xlink:href="#ArialMT-30"/>
       <use x="55.615234" xlink:href="#ArialMT-2e"/>
       <use x="83.398438" xlink:href="#ArialMT-33"/>
      </g>
     </g>
    </g>
    <g id="ytick_20">
     <g id="line2d_59">
      <path clip-path="url(#pe7c37b9ff0)" d="M 765.503438 549.124983 
L 1427.04 549.124983 
" style="fill:none;stroke:#cccccc;stroke-linecap:round;"/>
     </g>
     <g id="text_50">
      <!-- 0.4 -->
      <g style="fill:#262626;" transform="translate(740.713438 553.06178)scale(0.11 -0.11)">
       <use xlink:href="#ArialMT-30"/>
       <use x="55.615234" xlink:href="#ArialMT-2e"/>
       <use x="83.398438" xlink:href="#ArialMT-34"/>
      </g>
     </g>
    </g>
    <g id="ytick_21">
     <g id="line2d_60">
      <path clip-path="url(#pe7c37b9ff0)" d="M 765.503438 504.651339 
L 1427.04 504.651339 
" style="fill:none;stroke:#cccccc;stroke-linecap:round;"/>
     </g>
     <g id="text_51">
      <!-- 0.5 -->
      <g style="fill:#262626;" transform="translate(740.713438 508.588136)scale(0.11 -0.11)">
       <use xlink:href="#ArialMT-30"/>
       <use x="55.615234" xlink:href="#ArialMT-2e"/>
       <use x="83.398438" xlink:href="#ArialMT-35"/>
      </g>
     </g>
    </g>
    <g id="ytick_22">
     <g id="line2d_61">
      <path clip-path="url(#pe7c37b9ff0)" d="M 765.503438 460.177695 
L 1427.04 460.177695 
" style="fill:none;stroke:#cccccc;stroke-linecap:round;"/>
     </g>
     <g id="text_52">
      <!-- 0.6 -->
      <g style="fill:#262626;" transform="translate(740.713438 464.114492)scale(0.11 -0.11)">
       <use xlink:href="#ArialMT-30"/>
       <use x="55.615234" xlink:href="#ArialMT-2e"/>
       <use x="83.398438" xlink:href="#ArialMT-36"/>
      </g>
     </g>
    </g>
    <g id="ytick_23">
     <g id="line2d_62">
      <path clip-path="url(#pe7c37b9ff0)" d="M 765.503438 415.704051 
L 1427.04 415.704051 
" style="fill:none;stroke:#cccccc;stroke-linecap:round;"/>
     </g>
     <g id="text_53">
      <!-- 0.7 -->
      <g style="fill:#262626;" transform="translate(740.713438 419.640848)scale(0.11 -0.11)">
       <use xlink:href="#ArialMT-30"/>
       <use x="55.615234" xlink:href="#ArialMT-2e"/>
       <use x="83.398438" xlink:href="#ArialMT-37"/>
      </g>
     </g>
    </g>
    <g id="text_54">
     <!-- Validation Accuracy -->
     <g style="fill:#262626;" transform="translate(734.187813 579.91875)rotate(-90)scale(0.12 -0.12)">
      <use xlink:href="#ArialMT-56"/>
      <use x="59.324219" xlink:href="#ArialMT-61"/>
      <use x="114.939453" xlink:href="#ArialMT-6c"/>
      <use x="137.15625" xlink:href="#ArialMT-69"/>
      <use x="159.373047" xlink:href="#ArialMT-64"/>
      <use x="214.988281" xlink:href="#ArialMT-61"/>
      <use x="270.603516" xlink:href="#ArialMT-74"/>
      <use x="298.386719" xlink:href="#ArialMT-69"/>
      <use x="320.603516" xlink:href="#ArialMT-6f"/>
      <use x="376.21875" xlink:href="#ArialMT-6e"/>
      <use x="431.833984" xlink:href="#ArialMT-20"/>
      <use x="454.117188" xlink:href="#ArialMT-41"/>
      <use x="520.816406" xlink:href="#ArialMT-63"/>
      <use x="570.816406" xlink:href="#ArialMT-63"/>
      <use x="620.816406" xlink:href="#ArialMT-75"/>
      <use x="676.431641" xlink:href="#ArialMT-72"/>
      <use x="709.732422" xlink:href="#ArialMT-61"/>
      <use x="765.347656" xlink:href="#ArialMT-63"/>
      <use x="815.347656" xlink:href="#ArialMT-79"/>
     </g>
    </g>
   </g>
   <g id="line2d_63">
    <path clip-path="url(#pe7c37b9ff0)" d="M 795.573281 615.835449 
L 795.573281 626.953857 
L 807.846687 571.361795 
L 820.120092 504.651339 
L 832.393498 504.651339 
L 844.666904 515.76974 
L 856.940309 471.296085 
L 869.213715 493.532939 
L 881.487121 493.532912 
L 893.760526 460.177685 
L 906.033932 471.296085 
L 918.307337 471.296111 
L 930.580743 471.296111 
L 942.854149 504.651339 
L 955.127554 493.532912 
L 967.40096 460.177685 
L 979.674365 471.296085 
L 991.947771 460.177685 
L 1004.221177 471.296085 
L 1016.494582 482.414512 
L 1028.767988 460.177685 
L 1041.041393 482.414512 
L 1053.314799 471.296085 
L 1065.588205 482.414512 
L 1077.86161 471.296085 
L 1090.135016 471.296085 
L 1102.408422 471.296085 
L 1114.681827 504.651339 
L 1126.955233 482.414512 
L 1139.228638 504.651339 
L 1151.502044 460.177685 
L 1163.77545 471.296111 
L 1176.048855 493.532939 
L 1188.322261 471.296111 
L 1200.595666 504.651339 
L 1212.869072 482.414512 
L 1225.142478 493.532939 
L 1237.415883 493.532939 
L 1249.689289 471.296111 
L 1261.962695 504.651339 
L 1274.2361 482.414512 
L 1286.509506 482.414512 
L 1298.782911 471.296085 
L 1311.056317 471.296085 
L 1323.329723 471.296085 
L 1335.603128 460.177685 
L 1347.876534 460.177685 
L 1360.149939 460.177685 
L 1372.423345 460.177685 
L 1384.696751 460.177685 
L 1396.970156 471.296085 
" style="fill:none;stroke:#023eff;stroke-linecap:round;stroke-width:1.5;"/>
   </g>
   <g id="line2d_64">
    <path clip-path="url(#pe7c37b9ff0)" d="M 795.573281 660.309091 
L 795.573281 582.480222 
L 807.846687 543.565767 
L 820.120092 510.210539 
L 832.393498 487.973712 
L 844.666904 460.177711 
L 856.940309 504.651339 
L 869.213715 476.855312 
L 881.487121 454.618484 
L 893.760526 460.177711 
L 906.033932 454.618484 
L 918.307337 454.618511 
L 930.580743 437.940857 
L 942.854149 437.940884 
L 955.127554 476.855312 
L 967.40096 426.822457 
L 979.674365 415.704056 
L 991.947771 460.177685 
L 1004.221177 443.500084 
L 1016.494582 443.500057 
L 1028.767988 410.14483 
L 1041.041393 432.381657 
L 1053.314799 443.500084 
L 1065.588205 437.940884 
L 1077.86161 449.059284 
L 1090.135016 437.940884 
L 1102.408422 465.736911 
L 1114.681827 460.177685 
L 1126.955233 437.940884 
L 1139.228638 426.822457 
L 1151.502044 443.500057 
L 1163.77545 415.70403 
L 1176.048855 426.822457 
L 1188.322261 426.822457 
L 1200.595666 449.059284 
L 1212.869072 437.940884 
L 1225.142478 415.704056 
L 1237.415883 449.059284 
L 1249.689289 421.263257 
L 1261.962695 476.855312 
L 1274.2361 421.263257 
L 1286.509506 454.618484 
L 1298.782911 410.144856 
L 1311.056317 449.059284 
L 1323.329723 421.263257 
L 1335.603128 415.70403 
L 1347.876534 443.500084 
L 1360.149939 415.704056 
L 1372.423345 454.618484 
L 1384.696751 410.144856 
L 1396.970156 426.822483 
" style="fill:none;stroke:#ff7c00;stroke-linecap:round;stroke-width:1.5;"/>
   </g>
   <g id="line2d_65">
    <path clip-path="url(#pe7c37b9ff0)" d="M 795.573281 660.309091 
L 795.573281 519.475873 
L 807.846687 504.651352 
L 820.120092 471.296111 
L 832.393498 478.708378 
L 844.666904 489.826779 
L 856.940309 460.177685 
L 869.213715 445.353151 
L 881.487121 456.471551 
L 893.760526 449.059284 
L 906.033932 445.353151 
L 918.307337 449.059284 
L 930.580743 452.765418 
L 942.854149 441.647017 
L 955.127554 441.646991 
L 967.40096 441.647017 
L 979.674365 452.765418 
L 991.947771 463.883818 
L 1004.221177 437.940857 
L 1016.494582 445.353151 
L 1028.767988 426.82243 
L 1041.041393 437.940857 
L 1053.314799 430.52859 
L 1065.588205 434.234724 
L 1077.86161 452.765418 
L 1090.135016 452.765418 
L 1102.408422 452.765418 
L 1114.681827 430.52859 
L 1126.955233 430.52859 
L 1139.228638 434.23475 
L 1151.502044 426.82243 
L 1163.77545 441.647017 
L 1176.048855 426.82243 
L 1188.322261 434.234697 
L 1200.595666 430.52859 
L 1212.869072 434.234697 
L 1225.142478 449.059284 
L 1237.415883 434.23475 
L 1249.689289 434.23475 
L 1261.962695 437.940884 
L 1274.2361 445.353124 
L 1286.509506 430.52859 
L 1298.782911 426.82243 
L 1311.056317 423.116297 
L 1323.329723 423.116297 
L 1335.603128 437.940884 
L 1347.876534 449.059284 
L 1360.149939 445.353151 
L 1372.423345 441.647017 
L 1384.696751 452.765418 
L 1396.970156 430.52859 
" style="fill:none;stroke:#1ac938;stroke-linecap:round;stroke-width:1.5;"/>
   </g>
   <g id="line2d_66">
    <path clip-path="url(#pe7c37b9ff0)" d="M 795.573281 638.07227 
L 795.573281 524.108553 
L 807.846687 485.194125 
L 820.120092 474.075698 
L 832.393498 462.957298 
L 844.666904 462.957298 
L 856.940309 446.279671 
L 869.213715 440.720497 
L 881.487121 435.16127 
L 893.760526 468.516498 
L 906.033932 437.940884 
L 918.307337 449.059284 
L 930.580743 446.279671 
L 942.854149 440.720471 
L 955.127554 426.822483 
L 967.40096 432.381683 
L 979.674365 435.16127 
L 991.947771 421.263257 
L 1004.221177 426.822457 
L 1016.494582 412.924443 
L 1028.767988 401.806016 
L 1041.041393 424.04287 
L 1053.314799 424.04287 
L 1065.588205 424.042843 
L 1077.86161 421.263257 
L 1090.135016 426.822483 
L 1102.408422 446.279671 
L 1114.681827 412.92447 
L 1126.955233 415.704056 
L 1139.228638 418.483643 
L 1151.502044 421.263257 
L 1163.77545 415.704056 
L 1176.048855 415.704056 
L 1188.322261 421.263257 
L 1200.595666 412.924443 
L 1212.869072 418.483643 
L 1225.142478 410.144856 
L 1237.415883 412.92447 
L 1249.689289 412.924443 
L 1261.962695 435.16127 
L 1274.2361 421.263257 
L 1286.509506 407.365243 
L 1298.782911 424.04287 
L 1311.056317 415.704056 
L 1323.329723 412.92447 
L 1335.603128 412.924443 
L 1347.876534 412.92447 
L 1360.149939 424.04287 
L 1372.423345 407.365243 
L 1384.696751 421.263257 
L 1396.970156 424.04287 
" style="fill:none;stroke:#e8000b;stroke-linecap:round;stroke-width:1.5;"/>
   </g>
   <g id="line2d_67">
    <path clip-path="url(#pe7c37b9ff0)" d="M 795.573281 660.309091 
L 795.573281 480.190832 
L 807.846687 460.177685 
L 820.120092 475.743472 
L 832.393498 444.611897 
L 844.666904 435.717204 
L 856.940309 435.717177 
L 869.213715 435.717177 
L 881.487121 420.151417 
L 893.760526 417.92771 
L 906.033932 420.151417 
L 918.307337 426.82243 
L 930.580743 429.046137 
L 942.854149 426.822457 
L 955.127554 413.48035 
L 967.40096 411.256696 
L 979.674365 420.151417 
L 991.947771 429.046137 
L 1004.221177 420.151417 
L 1016.494582 409.032963 
L 1028.767988 395.690909 
L 1041.041393 420.151417 
L 1053.314799 417.927736 
L 1065.588205 411.256696 
L 1077.86161 402.361949 
L 1090.135016 417.927736 
L 1102.408422 402.361949 
L 1114.681827 411.25667 
L 1126.955233 415.704056 
L 1139.228638 413.48035 
L 1151.502044 404.585629 
L 1163.77545 413.48035 
L 1176.048855 420.151417 
L 1188.322261 409.03299 
L 1200.595666 417.927736 
L 1212.869072 431.269817 
L 1225.142478 413.48035 
L 1237.415883 406.80931 
L 1249.689289 422.37507 
L 1261.962695 402.361949 
L 1274.2361 406.80931 
L 1286.509506 404.585629 
L 1298.782911 406.809336 
L 1311.056317 406.80931 
L 1323.329723 404.585629 
L 1335.603128 417.927736 
L 1347.876534 402.361976 
L 1360.149939 406.809336 
L 1372.423345 409.03299 
L 1384.696751 409.032963 
L 1396.970156 404.585629 
" style="fill:none;stroke:#8b2be2;stroke-linecap:round;stroke-width:1.5;"/>
   </g>
   <g id="patch_18">
    <path d="M 765.503438 673.54 
L 765.503438 382.46 
" style="fill:none;stroke:#cccccc;stroke-linecap:square;stroke-linejoin:miter;stroke-width:1.25;"/>
   </g>
   <g id="patch_19">
    <path d="M 1427.04 673.54 
L 1427.04 382.46 
" style="fill:none;stroke:#cccccc;stroke-linecap:square;stroke-linejoin:miter;stroke-width:1.25;"/>
   </g>
   <g id="patch_20">
    <path d="M 765.503438 673.54 
L 1427.04 673.54 
" style="fill:none;stroke:#cccccc;stroke-linecap:square;stroke-linejoin:miter;stroke-width:1.25;"/>
   </g>
   <g id="patch_21">
    <path d="M 765.503438 382.46 
L 1427.04 382.46 
" style="fill:none;stroke:#cccccc;stroke-linecap:square;stroke-linejoin:miter;stroke-width:1.25;"/>
   </g>
   <g id="legend_1">
    <g id="patch_22">
     <path d="M 1365.788906 668.04 
L 1419.34 668.04 
Q 1421.54 668.04 1421.54 665.84 
L 1421.54 589.140781 
Q 1421.54 586.940781 1419.34 586.940781 
L 1365.788906 586.940781 
Q 1363.588906 586.940781 1363.588906 589.140781 
L 1363.588906 665.84 
Q 1363.588906 668.04 1365.788906 668.04 
z
" style="fill:#ffffff;opacity:0.8;stroke:#cccccc;stroke-linejoin:miter;"/>
    </g>
    <g id="line2d_68">
     <path d="M 1367.988906 595.364375 
L 1389.988906 595.364375 
" style="fill:none;stroke:#023eff;stroke-linecap:round;stroke-width:1.5;"/>
    </g>
    <g id="line2d_69"/>
    <g id="text_55">
     <!-- 20 -->
     <g style="fill:#262626;" transform="translate(1398.788906 599.214375)scale(0.11 -0.11)">
      <use xlink:href="#ArialMT-32"/>
      <use x="55.615234" xlink:href="#ArialMT-30"/>
     </g>
    </g>
    <g id="line2d_70">
     <path d="M 1367.988906 610.924219 
L 1389.988906 610.924219 
" style="fill:none;stroke:#ff7c00;stroke-linecap:round;stroke-width:1.5;"/>
    </g>
    <g id="line2d_71"/>
    <g id="text_56">
     <!-- 40 -->
     <g style="fill:#262626;" transform="translate(1398.788906 614.774219)scale(0.11 -0.11)">
      <use xlink:href="#ArialMT-34"/>
      <use x="55.615234" xlink:href="#ArialMT-30"/>
     </g>
    </g>
    <g id="line2d_72">
     <path d="M 1367.988906 626.484063 
L 1389.988906 626.484063 
" style="fill:none;stroke:#1ac938;stroke-linecap:round;stroke-width:1.5;"/>
    </g>
    <g id="line2d_73"/>
    <g id="text_57">
     <!-- 60 -->
     <g style="fill:#262626;" transform="translate(1398.788906 630.334063)scale(0.11 -0.11)">
      <use xlink:href="#ArialMT-36"/>
      <use x="55.615234" xlink:href="#ArialMT-30"/>
     </g>
    </g>
    <g id="line2d_74">
     <path d="M 1367.988906 642.043906 
L 1389.988906 642.043906 
" style="fill:none;stroke:#e8000b;stroke-linecap:round;stroke-width:1.5;"/>
    </g>
    <g id="line2d_75"/>
    <g id="text_58">
     <!-- 80 -->
     <g style="fill:#262626;" transform="translate(1398.788906 645.893906)scale(0.11 -0.11)">
      <use xlink:href="#ArialMT-38"/>
      <use x="55.615234" xlink:href="#ArialMT-30"/>
     </g>
    </g>
    <g id="line2d_76">
     <path d="M 1367.988906 657.60375 
L 1389.988906 657.60375 
" style="fill:none;stroke:#8b2be2;stroke-linecap:round;stroke-width:1.5;"/>
    </g>
    <g id="line2d_77"/>
    <g id="text_59">
     <!-- 100 -->
     <g style="fill:#262626;" transform="translate(1398.788906 661.45375)scale(0.11 -0.11)">
      <use xlink:href="#ArialMT-31"/>
      <use x="55.615234" xlink:href="#ArialMT-30"/>
      <use x="111.230469" xlink:href="#ArialMT-30"/>
     </g>
    </g>
   </g>
  </g>
  <g id="text_60">
   <!-- DCNN -->
   <g style="fill:#262626;" transform="translate(691.1125 28.715625)scale(0.2 -0.2)">
    <defs>
     <path d="M 494 0 
L 494 4581 
L 2072 4581 
Q 2606 4581 2888 4516 
Q 3281 4425 3559 4188 
Q 3922 3881 4101 3404 
Q 4281 2928 4281 2316 
Q 4281 1794 4159 1391 
Q 4038 988 3847 723 
Q 3656 459 3429 307 
Q 3203 156 2883 78 
Q 2563 0 2147 0 
L 494 0 
z
M 1100 541 
L 2078 541 
Q 2531 541 2789 625 
Q 3047 709 3200 863 
Q 3416 1078 3536 1442 
Q 3656 1806 3656 2325 
Q 3656 3044 3420 3430 
Q 3184 3816 2847 3947 
Q 2603 4041 2063 4041 
L 1100 4041 
L 1100 541 
z
" id="ArialMT-44" transform="scale(0.015625)"/>
     <path d="M 3763 1606 
L 4369 1453 
Q 4178 706 3683 314 
Q 3188 -78 2472 -78 
Q 1731 -78 1267 223 
Q 803 525 561 1097 
Q 319 1669 319 2325 
Q 319 3041 592 3573 
Q 866 4106 1370 4382 
Q 1875 4659 2481 4659 
Q 3169 4659 3637 4309 
Q 4106 3959 4291 3325 
L 3694 3184 
Q 3534 3684 3231 3912 
Q 2928 4141 2469 4141 
Q 1941 4141 1586 3887 
Q 1231 3634 1087 3207 
Q 944 2781 944 2328 
Q 944 1744 1114 1308 
Q 1284 872 1643 656 
Q 2003 441 2422 441 
Q 2931 441 3284 734 
Q 3638 1028 3763 1606 
z
" id="ArialMT-43" transform="scale(0.015625)"/>
     <path d="M 488 0 
L 488 4581 
L 1109 4581 
L 3516 984 
L 3516 4581 
L 4097 4581 
L 4097 0 
L 3475 0 
L 1069 3600 
L 1069 0 
L 488 0 
z
" id="ArialMT-4e" transform="scale(0.015625)"/>
    </defs>
    <use xlink:href="#ArialMT-44"/>
    <use x="72.216797" xlink:href="#ArialMT-43"/>
    <use x="144.433594" xlink:href="#ArialMT-4e"/>
    <use x="216.650391" xlink:href="#ArialMT-4e"/>
   </g>
  </g>
 </g>
 <defs>
  <clipPath id="p900fb22bdd">
   <rect height="291.08" width="661.536562" x="51.96" y="44.92"/>
  </clipPath>
  <clipPath id="p0ed8a4c206">
   <rect height="291.08" width="661.536562" x="765.503438" y="44.92"/>
  </clipPath>
  <clipPath id="p7dfb40833e">
   <rect height="291.08" width="661.536562" x="51.96" y="382.46"/>
  </clipPath>
  <clipPath id="pe7c37b9ff0">
   <rect height="291.08" width="661.536562" x="765.503438" y="382.46"/>
  </clipPath>
 </defs>
</svg>
