<?xml version="1.0" encoding="utf-8" standalone="no"?>
<!DOCTYPE svg PUBLIC "-//W3C//DTD SVG 1.1//EN"
  "http://www.w3.org/Graphics/SVG/1.1/DTD/svg11.dtd">
<svg height="720pt" version="1.1" viewBox="0 0 1440 720" width="1440pt" xmlns="http://www.w3.org/2000/svg" xmlns:xlink="http://www.w3.org/1999/xlink">
 <metadata>
  <rdf:RDF xmlns:cc="http://creativecommons.org/ns#" xmlns:dc="http://purl.org/dc/elements/1.1/" xmlns:rdf="http://www.w3.org/1999/02/22-rdf-syntax-ns#">
   <cc:Work>
    <dc:type rdf:resource="http://purl.org/dc/dcmitype/StillImage"/>
    <dc:date>2021-09-02T22:37:32.040211</dc:date>
    <dc:format>image/svg+xml</dc:format>
    <dc:creator>
     <cc:Agent>
      <dc:title>Matplotlib v3.4.3, https://matplotlib.org/</dc:title>
     </cc:Agent>
    </dc:creator>
   </cc:Work>
  </rdf:RDF>
 </metadata>
 <defs>
  <style type="text/css">*{stroke-linecap:butt;stroke-linejoin:round;}</style>
 </defs>
 <g id="figure_1">
  <g id="patch_1">
   <path d="M 0 720 
L 1440 720 
L 1440 0 
L 0 0 
z
" style="fill:#ffffff;"/>
  </g>
  <g id="axes_1">
   <g id="patch_2">
    <path d="M 51.96 336 
L 713.496562 336 
L 713.496562 44.92 
L 51.96 44.92 
z
" style="fill:#ffffff;"/>
   </g>
   <g id="matplotlib.axis_1">
    <g id="xtick_1">
     <g id="line2d_1">
      <path clip-path="url(#pa9ee45d018)" d="M 82.029844 336 
L 82.029844 44.92 
" style="fill:none;stroke:#cccccc;stroke-linecap:round;"/>
     </g>
     <g id="text_1">
      <!-- 0 -->
      <g style="fill:#262626;" transform="translate(78.971328 353.373594)scale(0.11 -0.11)">
       <defs>
        <path d="M 266 2259 
Q 266 3072 433 3567 
Q 600 4063 929 4331 
Q 1259 4600 1759 4600 
Q 2128 4600 2406 4451 
Q 2684 4303 2865 4023 
Q 3047 3744 3150 3342 
Q 3253 2941 3253 2259 
Q 3253 1453 3087 958 
Q 2922 463 2592 192 
Q 2263 -78 1759 -78 
Q 1097 -78 719 397 
Q 266 969 266 2259 
z
M 844 2259 
Q 844 1131 1108 757 
Q 1372 384 1759 384 
Q 2147 384 2411 759 
Q 2675 1134 2675 2259 
Q 2675 3391 2411 3762 
Q 2147 4134 1753 4134 
Q 1366 4134 1134 3806 
Q 844 3388 844 2259 
z
" id="ArialMT-30" transform="scale(0.015625)"/>
       </defs>
       <use xlink:href="#ArialMT-30"/>
      </g>
     </g>
    </g>
    <g id="xtick_2">
     <g id="line2d_2">
      <path clip-path="url(#pa9ee45d018)" d="M 204.7639 336 
L 204.7639 44.92 
" style="fill:none;stroke:#cccccc;stroke-linecap:round;"/>
     </g>
     <g id="text_2">
      <!-- 10 -->
      <g style="fill:#262626;" transform="translate(198.646869 353.373594)scale(0.11 -0.11)">
       <defs>
        <path d="M 2384 0 
L 1822 0 
L 1822 3584 
Q 1619 3391 1289 3197 
Q 959 3003 697 2906 
L 697 3450 
Q 1169 3672 1522 3987 
Q 1875 4303 2022 4600 
L 2384 4600 
L 2384 0 
z
" id="ArialMT-31" transform="scale(0.015625)"/>
       </defs>
       <use xlink:href="#ArialMT-31"/>
       <use x="55.615234" xlink:href="#ArialMT-30"/>
      </g>
     </g>
    </g>
    <g id="xtick_3">
     <g id="line2d_3">
      <path clip-path="url(#pa9ee45d018)" d="M 327.497956 336 
L 327.497956 44.92 
" style="fill:none;stroke:#cccccc;stroke-linecap:round;"/>
     </g>
     <g id="text_3">
      <!-- 20 -->
      <g style="fill:#262626;" transform="translate(321.380925 353.373594)scale(0.11 -0.11)">
       <defs>
        <path d="M 3222 541 
L 3222 0 
L 194 0 
Q 188 203 259 391 
Q 375 700 629 1000 
Q 884 1300 1366 1694 
Q 2113 2306 2375 2664 
Q 2638 3022 2638 3341 
Q 2638 3675 2398 3904 
Q 2159 4134 1775 4134 
Q 1369 4134 1125 3890 
Q 881 3647 878 3216 
L 300 3275 
Q 359 3922 746 4261 
Q 1134 4600 1788 4600 
Q 2447 4600 2831 4234 
Q 3216 3869 3216 3328 
Q 3216 3053 3103 2787 
Q 2991 2522 2730 2228 
Q 2469 1934 1863 1422 
Q 1356 997 1212 845 
Q 1069 694 975 541 
L 3222 541 
z
" id="ArialMT-32" transform="scale(0.015625)"/>
       </defs>
       <use xlink:href="#ArialMT-32"/>
       <use x="55.615234" xlink:href="#ArialMT-30"/>
      </g>
     </g>
    </g>
    <g id="xtick_4">
     <g id="line2d_4">
      <path clip-path="url(#pa9ee45d018)" d="M 450.232012 336 
L 450.232012 44.92 
" style="fill:none;stroke:#cccccc;stroke-linecap:round;"/>
     </g>
     <g id="text_4">
      <!-- 30 -->
      <g style="fill:#262626;" transform="translate(444.114981 353.373594)scale(0.11 -0.11)">
       <defs>
        <path d="M 269 1209 
L 831 1284 
Q 928 806 1161 595 
Q 1394 384 1728 384 
Q 2125 384 2398 659 
Q 2672 934 2672 1341 
Q 2672 1728 2419 1979 
Q 2166 2231 1775 2231 
Q 1616 2231 1378 2169 
L 1441 2663 
Q 1497 2656 1531 2656 
Q 1891 2656 2178 2843 
Q 2466 3031 2466 3422 
Q 2466 3731 2256 3934 
Q 2047 4138 1716 4138 
Q 1388 4138 1169 3931 
Q 950 3725 888 3313 
L 325 3413 
Q 428 3978 793 4289 
Q 1159 4600 1703 4600 
Q 2078 4600 2393 4439 
Q 2709 4278 2876 4000 
Q 3044 3722 3044 3409 
Q 3044 3113 2884 2869 
Q 2725 2625 2413 2481 
Q 2819 2388 3044 2092 
Q 3269 1797 3269 1353 
Q 3269 753 2831 336 
Q 2394 -81 1725 -81 
Q 1122 -81 723 278 
Q 325 638 269 1209 
z
" id="ArialMT-33" transform="scale(0.015625)"/>
       </defs>
       <use xlink:href="#ArialMT-33"/>
       <use x="55.615234" xlink:href="#ArialMT-30"/>
      </g>
     </g>
    </g>
    <g id="xtick_5">
     <g id="line2d_5">
      <path clip-path="url(#pa9ee45d018)" d="M 572.966068 336 
L 572.966068 44.92 
" style="fill:none;stroke:#cccccc;stroke-linecap:round;"/>
     </g>
     <g id="text_5">
      <!-- 40 -->
      <g style="fill:#262626;" transform="translate(566.849037 353.373594)scale(0.11 -0.11)">
       <defs>
        <path d="M 2069 0 
L 2069 1097 
L 81 1097 
L 81 1613 
L 2172 4581 
L 2631 4581 
L 2631 1613 
L 3250 1613 
L 3250 1097 
L 2631 1097 
L 2631 0 
L 2069 0 
z
M 2069 1613 
L 2069 3678 
L 634 1613 
L 2069 1613 
z
" id="ArialMT-34" transform="scale(0.015625)"/>
       </defs>
       <use xlink:href="#ArialMT-34"/>
       <use x="55.615234" xlink:href="#ArialMT-30"/>
      </g>
     </g>
    </g>
    <g id="xtick_6">
     <g id="line2d_6">
      <path clip-path="url(#pa9ee45d018)" d="M 695.700124 336 
L 695.700124 44.92 
" style="fill:none;stroke:#cccccc;stroke-linecap:round;"/>
     </g>
     <g id="text_6">
      <!-- 50 -->
      <g style="fill:#262626;" transform="translate(689.583093 353.373594)scale(0.11 -0.11)">
       <defs>
        <path d="M 266 1200 
L 856 1250 
Q 922 819 1161 601 
Q 1400 384 1738 384 
Q 2144 384 2425 690 
Q 2706 997 2706 1503 
Q 2706 1984 2436 2262 
Q 2166 2541 1728 2541 
Q 1456 2541 1237 2417 
Q 1019 2294 894 2097 
L 366 2166 
L 809 4519 
L 3088 4519 
L 3088 3981 
L 1259 3981 
L 1013 2750 
Q 1425 3038 1878 3038 
Q 2478 3038 2890 2622 
Q 3303 2206 3303 1553 
Q 3303 931 2941 478 
Q 2500 -78 1738 -78 
Q 1113 -78 717 272 
Q 322 622 266 1200 
z
" id="ArialMT-35" transform="scale(0.015625)"/>
       </defs>
       <use xlink:href="#ArialMT-35"/>
       <use x="55.615234" xlink:href="#ArialMT-30"/>
      </g>
     </g>
    </g>
   </g>
   <g id="matplotlib.axis_2">
    <g id="ytick_1">
     <g id="line2d_7">
      <path clip-path="url(#pa9ee45d018)" d="M 51.96 279.383739 
L 713.496562 279.383739 
" style="fill:none;stroke:#cccccc;stroke-linecap:round;"/>
     </g>
     <g id="text_7">
      <!-- 0.5 -->
      <g style="fill:#262626;" transform="translate(27.17 283.320536)scale(0.11 -0.11)">
       <defs>
        <path d="M 581 0 
L 581 641 
L 1222 641 
L 1222 0 
L 581 0 
z
" id="ArialMT-2e" transform="scale(0.015625)"/>
       </defs>
       <use xlink:href="#ArialMT-30"/>
       <use x="55.615234" xlink:href="#ArialMT-2e"/>
       <use x="83.398438" xlink:href="#ArialMT-35"/>
      </g>
     </g>
    </g>
    <g id="ytick_2">
     <g id="line2d_8">
      <path clip-path="url(#pa9ee45d018)" d="M 51.96 219.347009 
L 713.496562 219.347009 
" style="fill:none;stroke:#cccccc;stroke-linecap:round;"/>
     </g>
     <g id="text_8">
      <!-- 1.0 -->
      <g style="fill:#262626;" transform="translate(27.17 223.283805)scale(0.11 -0.11)">
       <use xlink:href="#ArialMT-31"/>
       <use x="55.615234" xlink:href="#ArialMT-2e"/>
       <use x="83.398438" xlink:href="#ArialMT-30"/>
      </g>
     </g>
    </g>
    <g id="ytick_3">
     <g id="line2d_9">
      <path clip-path="url(#pa9ee45d018)" d="M 51.96 159.310278 
L 713.496562 159.310278 
" style="fill:none;stroke:#cccccc;stroke-linecap:round;"/>
     </g>
     <g id="text_9">
      <!-- 1.5 -->
      <g style="fill:#262626;" transform="translate(27.17 163.247075)scale(0.11 -0.11)">
       <use xlink:href="#ArialMT-31"/>
       <use x="55.615234" xlink:href="#ArialMT-2e"/>
       <use x="83.398438" xlink:href="#ArialMT-35"/>
      </g>
     </g>
    </g>
    <g id="ytick_4">
     <g id="line2d_10">
      <path clip-path="url(#pa9ee45d018)" d="M 51.96 99.273547 
L 713.496562 99.273547 
" style="fill:none;stroke:#cccccc;stroke-linecap:round;"/>
     </g>
     <g id="text_10">
      <!-- 2.0 -->
      <g style="fill:#262626;" transform="translate(27.17 103.210344)scale(0.11 -0.11)">
       <use xlink:href="#ArialMT-32"/>
       <use x="55.615234" xlink:href="#ArialMT-2e"/>
       <use x="83.398438" xlink:href="#ArialMT-30"/>
      </g>
     </g>
    </g>
    <g id="text_11">
     <!-- Training Loss -->
     <g style="fill:#262626;" transform="translate(20.644375 226.25)rotate(-90)scale(0.12 -0.12)">
      <defs>
       <path d="M 1659 0 
L 1659 4041 
L 150 4041 
L 150 4581 
L 3781 4581 
L 3781 4041 
L 2266 4041 
L 2266 0 
L 1659 0 
z
" id="ArialMT-54" transform="scale(0.015625)"/>
       <path d="M 416 0 
L 416 3319 
L 922 3319 
L 922 2816 
Q 1116 3169 1280 3281 
Q 1444 3394 1641 3394 
Q 1925 3394 2219 3213 
L 2025 2691 
Q 1819 2813 1613 2813 
Q 1428 2813 1281 2702 
Q 1134 2591 1072 2394 
Q 978 2094 978 1738 
L 978 0 
L 416 0 
z
" id="ArialMT-72" transform="scale(0.015625)"/>
       <path d="M 2588 409 
Q 2275 144 1986 34 
Q 1697 -75 1366 -75 
Q 819 -75 525 192 
Q 231 459 231 875 
Q 231 1119 342 1320 
Q 453 1522 633 1644 
Q 813 1766 1038 1828 
Q 1203 1872 1538 1913 
Q 2219 1994 2541 2106 
Q 2544 2222 2544 2253 
Q 2544 2597 2384 2738 
Q 2169 2928 1744 2928 
Q 1347 2928 1158 2789 
Q 969 2650 878 2297 
L 328 2372 
Q 403 2725 575 2942 
Q 747 3159 1072 3276 
Q 1397 3394 1825 3394 
Q 2250 3394 2515 3294 
Q 2781 3194 2906 3042 
Q 3031 2891 3081 2659 
Q 3109 2516 3109 2141 
L 3109 1391 
Q 3109 606 3145 398 
Q 3181 191 3288 0 
L 2700 0 
Q 2613 175 2588 409 
z
M 2541 1666 
Q 2234 1541 1622 1453 
Q 1275 1403 1131 1340 
Q 988 1278 909 1158 
Q 831 1038 831 891 
Q 831 666 1001 516 
Q 1172 366 1500 366 
Q 1825 366 2078 508 
Q 2331 650 2450 897 
Q 2541 1088 2541 1459 
L 2541 1666 
z
" id="ArialMT-61" transform="scale(0.015625)"/>
       <path d="M 425 3934 
L 425 4581 
L 988 4581 
L 988 3934 
L 425 3934 
z
M 425 0 
L 425 3319 
L 988 3319 
L 988 0 
L 425 0 
z
" id="ArialMT-69" transform="scale(0.015625)"/>
       <path d="M 422 0 
L 422 3319 
L 928 3319 
L 928 2847 
Q 1294 3394 1984 3394 
Q 2284 3394 2536 3286 
Q 2788 3178 2913 3003 
Q 3038 2828 3088 2588 
Q 3119 2431 3119 2041 
L 3119 0 
L 2556 0 
L 2556 2019 
Q 2556 2363 2490 2533 
Q 2425 2703 2258 2804 
Q 2091 2906 1866 2906 
Q 1506 2906 1245 2678 
Q 984 2450 984 1813 
L 984 0 
L 422 0 
z
" id="ArialMT-6e" transform="scale(0.015625)"/>
       <path d="M 319 -275 
L 866 -356 
Q 900 -609 1056 -725 
Q 1266 -881 1628 -881 
Q 2019 -881 2231 -725 
Q 2444 -569 2519 -288 
Q 2563 -116 2559 434 
Q 2191 0 1641 0 
Q 956 0 581 494 
Q 206 988 206 1678 
Q 206 2153 378 2554 
Q 550 2956 876 3175 
Q 1203 3394 1644 3394 
Q 2231 3394 2613 2919 
L 2613 3319 
L 3131 3319 
L 3131 450 
Q 3131 -325 2973 -648 
Q 2816 -972 2473 -1159 
Q 2131 -1347 1631 -1347 
Q 1038 -1347 672 -1080 
Q 306 -813 319 -275 
z
M 784 1719 
Q 784 1066 1043 766 
Q 1303 466 1694 466 
Q 2081 466 2343 764 
Q 2606 1063 2606 1700 
Q 2606 2309 2336 2618 
Q 2066 2928 1684 2928 
Q 1309 2928 1046 2623 
Q 784 2319 784 1719 
z
" id="ArialMT-67" transform="scale(0.015625)"/>
       <path id="ArialMT-20" transform="scale(0.015625)"/>
       <path d="M 469 0 
L 469 4581 
L 1075 4581 
L 1075 541 
L 3331 541 
L 3331 0 
L 469 0 
z
" id="ArialMT-4c" transform="scale(0.015625)"/>
       <path d="M 213 1659 
Q 213 2581 725 3025 
Q 1153 3394 1769 3394 
Q 2453 3394 2887 2945 
Q 3322 2497 3322 1706 
Q 3322 1066 3130 698 
Q 2938 331 2570 128 
Q 2203 -75 1769 -75 
Q 1072 -75 642 372 
Q 213 819 213 1659 
z
M 791 1659 
Q 791 1022 1069 705 
Q 1347 388 1769 388 
Q 2188 388 2466 706 
Q 2744 1025 2744 1678 
Q 2744 2294 2464 2611 
Q 2184 2928 1769 2928 
Q 1347 2928 1069 2612 
Q 791 2297 791 1659 
z
" id="ArialMT-6f" transform="scale(0.015625)"/>
       <path d="M 197 991 
L 753 1078 
Q 800 744 1014 566 
Q 1228 388 1613 388 
Q 2000 388 2187 545 
Q 2375 703 2375 916 
Q 2375 1106 2209 1216 
Q 2094 1291 1634 1406 
Q 1016 1563 777 1677 
Q 538 1791 414 1992 
Q 291 2194 291 2438 
Q 291 2659 392 2848 
Q 494 3038 669 3163 
Q 800 3259 1026 3326 
Q 1253 3394 1513 3394 
Q 1903 3394 2198 3281 
Q 2494 3169 2634 2976 
Q 2775 2784 2828 2463 
L 2278 2388 
Q 2241 2644 2061 2787 
Q 1881 2931 1553 2931 
Q 1166 2931 1000 2803 
Q 834 2675 834 2503 
Q 834 2394 903 2306 
Q 972 2216 1119 2156 
Q 1203 2125 1616 2013 
Q 2213 1853 2448 1751 
Q 2684 1650 2818 1456 
Q 2953 1263 2953 975 
Q 2953 694 2789 445 
Q 2625 197 2315 61 
Q 2006 -75 1616 -75 
Q 969 -75 630 194 
Q 291 463 197 991 
z
" id="ArialMT-73" transform="scale(0.015625)"/>
      </defs>
      <use xlink:href="#ArialMT-54"/>
      <use x="57.333984" xlink:href="#ArialMT-72"/>
      <use x="90.634766" xlink:href="#ArialMT-61"/>
      <use x="146.25" xlink:href="#ArialMT-69"/>
      <use x="168.466797" xlink:href="#ArialMT-6e"/>
      <use x="224.082031" xlink:href="#ArialMT-69"/>
      <use x="246.298828" xlink:href="#ArialMT-6e"/>
      <use x="301.914062" xlink:href="#ArialMT-67"/>
      <use x="357.529297" xlink:href="#ArialMT-20"/>
      <use x="385.3125" xlink:href="#ArialMT-4c"/>
      <use x="440.927734" xlink:href="#ArialMT-6f"/>
      <use x="496.542969" xlink:href="#ArialMT-73"/>
      <use x="546.542969" xlink:href="#ArialMT-73"/>
     </g>
    </g>
   </g>
   <g id="line2d_11">
    <path clip-path="url(#pa9ee45d018)" d="M 82.029844 58.150909 
L 94.303249 63.551275 
L 106.576655 71.88172 
L 118.850061 85.474917 
L 131.123466 96.720811 
L 143.396872 100.840343 
L 155.670277 111.516603 
L 167.943683 117.152418 
L 180.217089 118.682528 
L 192.490494 126.407982 
L 204.7639 131.175761 
L 217.037305 134.128026 
L 229.310711 141.464458 
L 241.584117 146.53237 
L 253.857522 137.180073 
L 266.130928 149.82728 
L 278.404334 156.993893 
L 290.677739 160.663554 
L 302.951145 175.959301 
L 315.22455 170.78422 
L 327.497956 179.155545 
L 339.771362 171.037605 
L 352.044767 180.064677 
L 364.318173 170.426574 
L 376.591578 188.41705 
L 388.864984 195.153759 
L 401.13839 192.171049 
L 413.411795 214.366211 
L 425.685201 206.070463 
L 437.958607 227.264505 
L 450.232012 220.576642 
L 462.505418 227.493591 
L 474.778823 231.279253 
L 487.052229 232.84524 
L 499.325635 229.892868 
L 511.59904 234.894779 
L 523.872446 243.480755 
L 536.145851 243.336164 
L 548.419257 255.327445 
L 560.692663 261.687342 
L 572.966068 264.461785 
L 585.239474 257.68567 
L 597.512879 264.661192 
L 609.786285 264.628971 
L 622.059691 282.258588 
L 634.333096 271.88078 
L 646.606502 273.516111 
L 658.879908 273.384624 
L 671.153313 273.502635 
L 683.426719 274.776261 
" style="fill:none;stroke:#023eff;stroke-linecap:round;stroke-width:1.5;"/>
   </g>
   <g id="line2d_12">
    <path clip-path="url(#pa9ee45d018)" d="M 82.029844 63.926013 
L 94.303249 73.10985 
L 106.576655 86.356251 
L 118.850061 100.597709 
L 131.123466 114.566202 
L 143.396872 119.020421 
L 155.670277 125.137254 
L 167.943683 130.646148 
L 180.217089 131.411997 
L 192.490494 139.623408 
L 204.7639 148.024219 
L 217.037305 157.097067 
L 229.310711 158.49861 
L 241.584117 163.471063 
L 253.857522 168.828172 
L 266.130928 173.029179 
L 278.404334 178.819885 
L 290.677739 178.07459 
L 302.951145 184.955841 
L 315.22455 195.723709 
L 327.497956 201.536043 
L 339.771362 208.590649 
L 352.044767 211.116332 
L 364.318173 209.112476 
L 376.591578 221.515582 
L 388.864984 214.497741 
L 401.13839 226.818234 
L 413.411795 225.074089 
L 425.685201 237.41153 
L 437.958607 248.419685 
L 450.232012 240.567453 
L 462.505418 258.924443 
L 474.778823 258.527304 
L 487.052229 270.794657 
L 499.325635 266.270658 
L 511.59904 273.700152 
L 523.872446 269.5706 
L 536.145851 278.994975 
L 548.419257 283.707592 
L 560.692663 282.868094 
L 572.966068 294.424935 
L 585.239474 294.863448 
L 597.512879 292.771948 
L 609.786285 296.378872 
L 622.059691 286.629582 
L 634.333096 298.714924 
L 646.606502 302.463852 
L 658.879908 310.209436 
L 671.153313 313.681206 
L 683.426719 303.32442 
" style="fill:none;stroke:#ff7c00;stroke-linecap:round;stroke-width:1.5;"/>
   </g>
   <g id="line2d_13">
    <path clip-path="url(#pa9ee45d018)" d="M 82.029844 59.20879 
L 94.303249 73.477087 
L 106.576655 94.398958 
L 118.850061 113.671957 
L 131.123466 119.759976 
L 143.396872 125.71907 
L 155.670277 134.336822 
L 167.943683 136.399265 
L 180.217089 145.034137 
L 192.490494 150.526084 
L 204.7639 157.055471 
L 217.037305 158.219675 
L 229.310711 167.506029 
L 241.584117 170.872365 
L 253.857522 170.824385 
L 266.130928 182.177962 
L 278.404334 179.560055 
L 290.677739 193.459541 
L 302.951145 195.117817 
L 315.22455 199.001557 
L 327.497956 209.23818 
L 339.771362 208.889222 
L 352.044767 218.633419 
L 364.318173 220.490522 
L 376.591578 220.977588 
L 388.864984 226.490461 
L 401.13839 237.946833 
L 413.411795 238.620809 
L 425.685201 248.326566 
L 437.958607 248.156718 
L 450.232012 255.486057 
L 462.505418 263.188738 
L 474.778823 256.099464 
L 487.052229 270.580765 
L 499.325635 273.906415 
L 511.59904 282.263655 
L 523.872446 280.537713 
L 536.145851 288.84649 
L 548.419257 287.335224 
L 560.692663 292.325892 
L 572.966068 304.02701 
L 585.239474 302.74585 
L 597.512879 306.623797 
L 609.786285 307.395085 
L 622.059691 307.583101 
L 634.333096 304.141807 
L 646.606502 308.562199 
L 658.879908 313.579424 
L 671.153313 313.02046 
L 683.426719 319.91396 
" style="fill:none;stroke:#1ac938;stroke-linecap:round;stroke-width:1.5;"/>
   </g>
   <g id="line2d_14">
    <path clip-path="url(#pa9ee45d018)" d="M 82.029844 64.043272 
L 94.303249 88.525833 
L 106.576655 111.922129 
L 118.850061 118.332196 
L 131.123466 126.319923 
L 143.396872 137.764422 
L 155.670277 144.347887 
L 167.943683 145.358117 
L 180.217089 154.957773 
L 192.490494 164.168721 
L 204.7639 172.140417 
L 217.037305 170.386409 
L 229.310711 179.903059 
L 241.584117 183.239322 
L 253.857522 186.556948 
L 266.130928 196.854033 
L 278.404334 201.291648 
L 290.677739 199.717981 
L 302.951145 207.654779 
L 315.22455 211.368786 
L 327.497956 218.088161 
L 339.771362 222.068018 
L 352.044767 216.484692 
L 364.318173 227.286198 
L 376.591578 237.000593 
L 388.864984 246.034965 
L 401.13839 247.26341 
L 413.411795 251.921395 
L 425.685201 253.855292 
L 437.958607 258.801164 
L 450.232012 259.13238 
L 462.505418 264.578687 
L 474.778823 275.566709 
L 487.052229 280.405027 
L 499.325635 280.088748 
L 511.59904 282.892885 
L 523.872446 283.959154 
L 536.145851 294.368825 
L 548.419257 292.83451 
L 560.692663 290.326165 
L 572.966068 304.489945 
L 585.239474 302.717727 
L 597.512879 309.80649 
L 609.786285 313.189555 
L 622.059691 317.875565 
L 634.333096 311.328924 
L 646.606502 314.997097 
L 658.879908 318.863785 
L 671.153313 313.215106 
L 683.426719 319.437285 
" style="fill:none;stroke:#e8000b;stroke-linecap:round;stroke-width:1.5;"/>
   </g>
   <g id="line2d_15">
    <path clip-path="url(#pa9ee45d018)" d="M 82.029844 66.866626 
L 94.303249 98.573226 
L 106.576655 122.224295 
L 118.850061 130.154023 
L 131.123466 139.864983 
L 143.396872 151.006285 
L 155.670277 150.381785 
L 167.943683 161.134695 
L 180.217089 168.092697 
L 192.490494 171.870285 
L 204.7639 177.506544 
L 217.037305 187.750925 
L 229.310711 188.952918 
L 241.584117 195.10097 
L 253.857522 201.331383 
L 266.130928 210.736241 
L 278.404334 212.674568 
L 290.677739 217.580977 
L 302.951145 219.123913 
L 315.22455 227.25203 
L 327.497956 232.287443 
L 339.771362 228.752582 
L 352.044767 241.523075 
L 364.318173 242.918241 
L 376.591578 253.520619 
L 388.864984 256.386192 
L 401.13839 259.93936 
L 413.411795 262.558763 
L 425.685201 269.289096 
L 437.958607 273.841508 
L 450.232012 282.112096 
L 462.505418 280.642805 
L 474.778823 291.354928 
L 487.052229 288.463909 
L 499.325635 289.563357 
L 511.59904 297.193628 
L 523.872446 302.426228 
L 536.145851 307.945844 
L 548.419257 306.587897 
L 560.692663 307.77378 
L 572.966068 313.648401 
L 585.239474 318.63343 
L 597.512879 314.819979 
L 609.786285 320.469979 
L 622.059691 315.761112 
L 634.333096 319.982706 
L 646.606502 317.674442 
L 658.879908 320.35684 
L 671.153313 322.769091 
L 683.426719 319.528522 
" style="fill:none;stroke:#8b2be2;stroke-linecap:round;stroke-width:1.5;"/>
   </g>
   <g id="patch_3">
    <path d="M 51.96 336 
L 51.96 44.92 
" style="fill:none;stroke:#cccccc;stroke-linecap:square;stroke-linejoin:miter;stroke-width:1.25;"/>
   </g>
   <g id="patch_4">
    <path d="M 713.496562 336 
L 713.496562 44.92 
" style="fill:none;stroke:#cccccc;stroke-linecap:square;stroke-linejoin:miter;stroke-width:1.25;"/>
   </g>
   <g id="patch_5">
    <path d="M 51.96 336 
L 713.496562 336 
" style="fill:none;stroke:#cccccc;stroke-linecap:square;stroke-linejoin:miter;stroke-width:1.25;"/>
   </g>
   <g id="patch_6">
    <path d="M 51.96 44.92 
L 713.496562 44.92 
" style="fill:none;stroke:#cccccc;stroke-linecap:square;stroke-linejoin:miter;stroke-width:1.25;"/>
   </g>
  </g>
  <g id="axes_2">
   <g id="patch_7">
    <path d="M 765.503438 336 
L 1427.04 336 
L 1427.04 44.92 
L 765.503438 44.92 
z
" style="fill:#ffffff;"/>
   </g>
   <g id="matplotlib.axis_3">
    <g id="xtick_7">
     <g id="line2d_16">
      <path clip-path="url(#p08dbcf467c)" d="M 795.573281 336 
L 795.573281 44.92 
" style="fill:none;stroke:#cccccc;stroke-linecap:round;"/>
     </g>
     <g id="text_12">
      <!-- 0 -->
      <g style="fill:#262626;" transform="translate(792.514766 353.373594)scale(0.11 -0.11)">
       <use xlink:href="#ArialMT-30"/>
      </g>
     </g>
    </g>
    <g id="xtick_8">
     <g id="line2d_17">
      <path clip-path="url(#p08dbcf467c)" d="M 918.307337 336 
L 918.307337 44.92 
" style="fill:none;stroke:#cccccc;stroke-linecap:round;"/>
     </g>
     <g id="text_13">
      <!-- 10 -->
      <g style="fill:#262626;" transform="translate(912.190306 353.373594)scale(0.11 -0.11)">
       <use xlink:href="#ArialMT-31"/>
       <use x="55.615234" xlink:href="#ArialMT-30"/>
      </g>
     </g>
    </g>
    <g id="xtick_9">
     <g id="line2d_18">
      <path clip-path="url(#p08dbcf467c)" d="M 1041.041393 336 
L 1041.041393 44.92 
" style="fill:none;stroke:#cccccc;stroke-linecap:round;"/>
     </g>
     <g id="text_14">
      <!-- 20 -->
      <g style="fill:#262626;" transform="translate(1034.924362 353.373594)scale(0.11 -0.11)">
       <use xlink:href="#ArialMT-32"/>
       <use x="55.615234" xlink:href="#ArialMT-30"/>
      </g>
     </g>
    </g>
    <g id="xtick_10">
     <g id="line2d_19">
      <path clip-path="url(#p08dbcf467c)" d="M 1163.77545 336 
L 1163.77545 44.92 
" style="fill:none;stroke:#cccccc;stroke-linecap:round;"/>
     </g>
     <g id="text_15">
      <!-- 30 -->
      <g style="fill:#262626;" transform="translate(1157.658418 353.373594)scale(0.11 -0.11)">
       <use xlink:href="#ArialMT-33"/>
       <use x="55.615234" xlink:href="#ArialMT-30"/>
      </g>
     </g>
    </g>
    <g id="xtick_11">
     <g id="line2d_20">
      <path clip-path="url(#p08dbcf467c)" d="M 1286.509506 336 
L 1286.509506 44.92 
" style="fill:none;stroke:#cccccc;stroke-linecap:round;"/>
     </g>
     <g id="text_16">
      <!-- 40 -->
      <g style="fill:#262626;" transform="translate(1280.392474 353.373594)scale(0.11 -0.11)">
       <use xlink:href="#ArialMT-34"/>
       <use x="55.615234" xlink:href="#ArialMT-30"/>
      </g>
     </g>
    </g>
    <g id="xtick_12">
     <g id="line2d_21">
      <path clip-path="url(#p08dbcf467c)" d="M 1409.243562 336 
L 1409.243562 44.92 
" style="fill:none;stroke:#cccccc;stroke-linecap:round;"/>
     </g>
     <g id="text_17">
      <!-- 50 -->
      <g style="fill:#262626;" transform="translate(1403.126531 353.373594)scale(0.11 -0.11)">
       <use xlink:href="#ArialMT-35"/>
       <use x="55.615234" xlink:href="#ArialMT-30"/>
      </g>
     </g>
    </g>
    <g id="text_18">
     <!-- Epochs -->
     <g style="fill:#262626;" transform="translate(1076.259844 368.149219)scale(0.12 -0.12)">
      <defs>
       <path d="M 506 0 
L 506 4581 
L 3819 4581 
L 3819 4041 
L 1113 4041 
L 1113 2638 
L 3647 2638 
L 3647 2100 
L 1113 2100 
L 1113 541 
L 3925 541 
L 3925 0 
L 506 0 
z
" id="ArialMT-45" transform="scale(0.015625)"/>
       <path d="M 422 -1272 
L 422 3319 
L 934 3319 
L 934 2888 
Q 1116 3141 1344 3267 
Q 1572 3394 1897 3394 
Q 2322 3394 2647 3175 
Q 2972 2956 3137 2557 
Q 3303 2159 3303 1684 
Q 3303 1175 3120 767 
Q 2938 359 2589 142 
Q 2241 -75 1856 -75 
Q 1575 -75 1351 44 
Q 1128 163 984 344 
L 984 -1272 
L 422 -1272 
z
M 931 1641 
Q 931 1000 1190 694 
Q 1450 388 1819 388 
Q 2194 388 2461 705 
Q 2728 1022 2728 1688 
Q 2728 2322 2467 2637 
Q 2206 2953 1844 2953 
Q 1484 2953 1207 2617 
Q 931 2281 931 1641 
z
" id="ArialMT-70" transform="scale(0.015625)"/>
       <path d="M 2588 1216 
L 3141 1144 
Q 3050 572 2676 248 
Q 2303 -75 1759 -75 
Q 1078 -75 664 370 
Q 250 816 250 1647 
Q 250 2184 428 2587 
Q 606 2991 970 3192 
Q 1334 3394 1763 3394 
Q 2303 3394 2647 3120 
Q 2991 2847 3088 2344 
L 2541 2259 
Q 2463 2594 2264 2762 
Q 2066 2931 1784 2931 
Q 1359 2931 1093 2626 
Q 828 2322 828 1663 
Q 828 994 1084 691 
Q 1341 388 1753 388 
Q 2084 388 2306 591 
Q 2528 794 2588 1216 
z
" id="ArialMT-63" transform="scale(0.015625)"/>
       <path d="M 422 0 
L 422 4581 
L 984 4581 
L 984 2938 
Q 1378 3394 1978 3394 
Q 2347 3394 2619 3248 
Q 2891 3103 3008 2847 
Q 3125 2591 3125 2103 
L 3125 0 
L 2563 0 
L 2563 2103 
Q 2563 2525 2380 2717 
Q 2197 2909 1863 2909 
Q 1613 2909 1392 2779 
Q 1172 2650 1078 2428 
Q 984 2206 984 1816 
L 984 0 
L 422 0 
z
" id="ArialMT-68" transform="scale(0.015625)"/>
      </defs>
      <use xlink:href="#ArialMT-45"/>
      <use x="66.699219" xlink:href="#ArialMT-70"/>
      <use x="122.314453" xlink:href="#ArialMT-6f"/>
      <use x="177.929688" xlink:href="#ArialMT-63"/>
      <use x="227.929688" xlink:href="#ArialMT-68"/>
      <use x="283.544922" xlink:href="#ArialMT-73"/>
     </g>
    </g>
   </g>
   <g id="matplotlib.axis_4">
    <g id="ytick_5">
     <g id="line2d_22">
      <path clip-path="url(#p08dbcf467c)" d="M 765.503438 322.769091 
L 1427.04 322.769091 
" style="fill:none;stroke:#cccccc;stroke-linecap:round;"/>
     </g>
     <g id="text_19">
      <!-- 0.0 -->
      <g style="fill:#262626;" transform="translate(740.713438 326.705888)scale(0.11 -0.11)">
       <use xlink:href="#ArialMT-30"/>
       <use x="55.615234" xlink:href="#ArialMT-2e"/>
       <use x="83.398438" xlink:href="#ArialMT-30"/>
      </g>
     </g>
    </g>
    <g id="ytick_6">
     <g id="line2d_23">
      <path clip-path="url(#p08dbcf467c)" d="M 765.503438 282.058604 
L 1427.04 282.058604 
" style="fill:none;stroke:#cccccc;stroke-linecap:round;"/>
     </g>
     <g id="text_20">
      <!-- 0.1 -->
      <g style="fill:#262626;" transform="translate(740.713438 285.995401)scale(0.11 -0.11)">
       <use xlink:href="#ArialMT-30"/>
       <use x="55.615234" xlink:href="#ArialMT-2e"/>
       <use x="83.398438" xlink:href="#ArialMT-31"/>
      </g>
     </g>
    </g>
    <g id="ytick_7">
     <g id="line2d_24">
      <path clip-path="url(#p08dbcf467c)" d="M 765.503438 241.348116 
L 1427.04 241.348116 
" style="fill:none;stroke:#cccccc;stroke-linecap:round;"/>
     </g>
     <g id="text_21">
      <!-- 0.2 -->
      <g style="fill:#262626;" transform="translate(740.713438 245.284913)scale(0.11 -0.11)">
       <use xlink:href="#ArialMT-30"/>
       <use x="55.615234" xlink:href="#ArialMT-2e"/>
       <use x="83.398438" xlink:href="#ArialMT-32"/>
      </g>
     </g>
    </g>
    <g id="ytick_8">
     <g id="line2d_25">
      <path clip-path="url(#p08dbcf467c)" d="M 765.503438 200.637629 
L 1427.04 200.637629 
" style="fill:none;stroke:#cccccc;stroke-linecap:round;"/>
     </g>
     <g id="text_22">
      <!-- 0.3 -->
      <g style="fill:#262626;" transform="translate(740.713438 204.574426)scale(0.11 -0.11)">
       <use xlink:href="#ArialMT-30"/>
       <use x="55.615234" xlink:href="#ArialMT-2e"/>
       <use x="83.398438" xlink:href="#ArialMT-33"/>
      </g>
     </g>
    </g>
    <g id="ytick_9">
     <g id="line2d_26">
      <path clip-path="url(#p08dbcf467c)" d="M 765.503438 159.927142 
L 1427.04 159.927142 
" style="fill:none;stroke:#cccccc;stroke-linecap:round;"/>
     </g>
     <g id="text_23">
      <!-- 0.4 -->
      <g style="fill:#262626;" transform="translate(740.713438 163.863939)scale(0.11 -0.11)">
       <use xlink:href="#ArialMT-30"/>
       <use x="55.615234" xlink:href="#ArialMT-2e"/>
       <use x="83.398438" xlink:href="#ArialMT-34"/>
      </g>
     </g>
    </g>
    <g id="ytick_10">
     <g id="line2d_27">
      <path clip-path="url(#p08dbcf467c)" d="M 765.503438 119.216655 
L 1427.04 119.216655 
" style="fill:none;stroke:#cccccc;stroke-linecap:round;"/>
     </g>
     <g id="text_24">
      <!-- 0.5 -->
      <g style="fill:#262626;" transform="translate(740.713438 123.153451)scale(0.11 -0.11)">
       <use xlink:href="#ArialMT-30"/>
       <use x="55.615234" xlink:href="#ArialMT-2e"/>
       <use x="83.398438" xlink:href="#ArialMT-35"/>
      </g>
     </g>
    </g>
    <g id="ytick_11">
     <g id="line2d_28">
      <path clip-path="url(#p08dbcf467c)" d="M 765.503438 78.506167 
L 1427.04 78.506167 
" style="fill:none;stroke:#cccccc;stroke-linecap:round;"/>
     </g>
     <g id="text_25">
      <!-- 0.6 -->
      <g style="fill:#262626;" transform="translate(740.713438 82.442964)scale(0.11 -0.11)">
       <defs>
        <path d="M 3184 3459 
L 2625 3416 
Q 2550 3747 2413 3897 
Q 2184 4138 1850 4138 
Q 1581 4138 1378 3988 
Q 1113 3794 959 3422 
Q 806 3050 800 2363 
Q 1003 2672 1297 2822 
Q 1591 2972 1913 2972 
Q 2475 2972 2870 2558 
Q 3266 2144 3266 1488 
Q 3266 1056 3080 686 
Q 2894 316 2569 119 
Q 2244 -78 1831 -78 
Q 1128 -78 684 439 
Q 241 956 241 2144 
Q 241 3472 731 4075 
Q 1159 4600 1884 4600 
Q 2425 4600 2770 4297 
Q 3116 3994 3184 3459 
z
M 888 1484 
Q 888 1194 1011 928 
Q 1134 663 1356 523 
Q 1578 384 1822 384 
Q 2178 384 2434 671 
Q 2691 959 2691 1453 
Q 2691 1928 2437 2201 
Q 2184 2475 1800 2475 
Q 1419 2475 1153 2201 
Q 888 1928 888 1484 
z
" id="ArialMT-36" transform="scale(0.015625)"/>
       </defs>
       <use xlink:href="#ArialMT-30"/>
       <use x="55.615234" xlink:href="#ArialMT-2e"/>
       <use x="83.398438" xlink:href="#ArialMT-36"/>
      </g>
     </g>
    </g>
    <g id="text_26">
     <!-- Validation Accuracy -->
     <g style="fill:#262626;" transform="translate(734.187813 242.37875)rotate(-90)scale(0.12 -0.12)">
      <defs>
       <path d="M 1803 0 
L 28 4581 
L 684 4581 
L 1875 1253 
Q 2019 853 2116 503 
Q 2222 878 2363 1253 
L 3600 4581 
L 4219 4581 
L 2425 0 
L 1803 0 
z
" id="ArialMT-56" transform="scale(0.015625)"/>
       <path d="M 409 0 
L 409 4581 
L 972 4581 
L 972 0 
L 409 0 
z
" id="ArialMT-6c" transform="scale(0.015625)"/>
       <path d="M 2575 0 
L 2575 419 
Q 2259 -75 1647 -75 
Q 1250 -75 917 144 
Q 584 363 401 755 
Q 219 1147 219 1656 
Q 219 2153 384 2558 
Q 550 2963 881 3178 
Q 1213 3394 1622 3394 
Q 1922 3394 2156 3267 
Q 2391 3141 2538 2938 
L 2538 4581 
L 3097 4581 
L 3097 0 
L 2575 0 
z
M 797 1656 
Q 797 1019 1065 703 
Q 1334 388 1700 388 
Q 2069 388 2326 689 
Q 2584 991 2584 1609 
Q 2584 2291 2321 2609 
Q 2059 2928 1675 2928 
Q 1300 2928 1048 2622 
Q 797 2316 797 1656 
z
" id="ArialMT-64" transform="scale(0.015625)"/>
       <path d="M 1650 503 
L 1731 6 
Q 1494 -44 1306 -44 
Q 1000 -44 831 53 
Q 663 150 594 308 
Q 525 466 525 972 
L 525 2881 
L 113 2881 
L 113 3319 
L 525 3319 
L 525 4141 
L 1084 4478 
L 1084 3319 
L 1650 3319 
L 1650 2881 
L 1084 2881 
L 1084 941 
Q 1084 700 1114 631 
Q 1144 563 1211 522 
Q 1278 481 1403 481 
Q 1497 481 1650 503 
z
" id="ArialMT-74" transform="scale(0.015625)"/>
       <path d="M -9 0 
L 1750 4581 
L 2403 4581 
L 4278 0 
L 3588 0 
L 3053 1388 
L 1138 1388 
L 634 0 
L -9 0 
z
M 1313 1881 
L 2866 1881 
L 2388 3150 
Q 2169 3728 2063 4100 
Q 1975 3659 1816 3225 
L 1313 1881 
z
" id="ArialMT-41" transform="scale(0.015625)"/>
       <path d="M 2597 0 
L 2597 488 
Q 2209 -75 1544 -75 
Q 1250 -75 995 37 
Q 741 150 617 320 
Q 494 491 444 738 
Q 409 903 409 1263 
L 409 3319 
L 972 3319 
L 972 1478 
Q 972 1038 1006 884 
Q 1059 663 1231 536 
Q 1403 409 1656 409 
Q 1909 409 2131 539 
Q 2353 669 2445 892 
Q 2538 1116 2538 1541 
L 2538 3319 
L 3100 3319 
L 3100 0 
L 2597 0 
z
" id="ArialMT-75" transform="scale(0.015625)"/>
       <path d="M 397 -1278 
L 334 -750 
Q 519 -800 656 -800 
Q 844 -800 956 -737 
Q 1069 -675 1141 -563 
Q 1194 -478 1313 -144 
Q 1328 -97 1363 -6 
L 103 3319 
L 709 3319 
L 1400 1397 
Q 1534 1031 1641 628 
Q 1738 1016 1872 1384 
L 2581 3319 
L 3144 3319 
L 1881 -56 
Q 1678 -603 1566 -809 
Q 1416 -1088 1222 -1217 
Q 1028 -1347 759 -1347 
Q 597 -1347 397 -1278 
z
" id="ArialMT-79" transform="scale(0.015625)"/>
      </defs>
      <use xlink:href="#ArialMT-56"/>
      <use x="59.324219" xlink:href="#ArialMT-61"/>
      <use x="114.939453" xlink:href="#ArialMT-6c"/>
      <use x="137.15625" xlink:href="#ArialMT-69"/>
      <use x="159.373047" xlink:href="#ArialMT-64"/>
      <use x="214.988281" xlink:href="#ArialMT-61"/>
      <use x="270.603516" xlink:href="#ArialMT-74"/>
      <use x="298.386719" xlink:href="#ArialMT-69"/>
      <use x="320.603516" xlink:href="#ArialMT-6f"/>
      <use x="376.21875" xlink:href="#ArialMT-6e"/>
      <use x="431.833984" xlink:href="#ArialMT-20"/>
      <use x="454.117188" xlink:href="#ArialMT-41"/>
      <use x="520.816406" xlink:href="#ArialMT-63"/>
      <use x="570.816406" xlink:href="#ArialMT-63"/>
      <use x="620.816406" xlink:href="#ArialMT-75"/>
      <use x="676.431641" xlink:href="#ArialMT-72"/>
      <use x="709.732422" xlink:href="#ArialMT-61"/>
      <use x="765.347656" xlink:href="#ArialMT-63"/>
      <use x="815.347656" xlink:href="#ArialMT-79"/>
     </g>
    </g>
   </g>
   <g id="line2d_29">
    <path clip-path="url(#p08dbcf467c)" d="M 795.573281 302.413847 
L 795.573281 292.236224 
L 807.846687 210.815248 
L 820.120092 200.637624 
L 832.393498 190.46 
L 844.666904 210.815248 
L 856.940309 210.815248 
L 869.213715 200.637624 
L 881.487121 200.637624 
L 893.760526 180.282388 
L 906.033932 180.282388 
L 918.307337 159.927139 
L 930.580743 180.282376 
L 942.854149 159.927139 
L 955.127554 149.749515 
L 967.40096 129.394267 
L 979.674365 170.104764 
L 991.947771 159.927139 
L 1004.221177 129.394267 
L 1016.494582 170.104764 
L 1028.767988 149.749515 
L 1041.041393 139.571903 
L 1053.314799 139.571903 
L 1065.588205 129.394267 
L 1077.86161 159.927139 
L 1090.135016 119.216655 
L 1102.408422 149.749515 
L 1114.681827 139.571903 
L 1126.955233 119.216655 
L 1139.228638 139.571903 
L 1151.502044 139.571891 
L 1163.77545 129.394267 
L 1176.048855 139.571891 
L 1188.322261 159.927139 
L 1200.595666 139.571903 
L 1212.869072 129.394267 
L 1225.142478 139.571903 
L 1237.415883 149.749515 
L 1249.689289 149.749515 
L 1261.962695 119.216655 
L 1274.2361 149.749515 
L 1286.509506 139.571891 
L 1298.782911 119.216655 
L 1311.056317 159.927127 
L 1323.329723 129.394267 
L 1335.603128 119.216655 
L 1347.876534 139.571891 
L 1360.149939 119.216655 
L 1372.423345 129.394267 
L 1384.696751 170.104764 
L 1396.970156 119.216655 
" style="fill:none;stroke:#023eff;stroke-linecap:round;stroke-width:1.5;"/>
   </g>
   <g id="line2d_30">
    <path clip-path="url(#p08dbcf467c)" d="M 795.573281 322.769091 
L 795.573281 210.815248 
L 807.846687 190.460012 
L 820.120092 185.371194 
L 832.393498 195.548818 
L 844.666904 124.305461 
L 856.940309 149.749527 
L 869.213715 159.927139 
L 881.487121 165.015958 
L 893.760526 144.660709 
L 906.033932 144.660709 
L 918.307337 159.927139 
L 930.580743 124.305461 
L 942.854149 109.039018 
L 955.127554 144.660709 
L 967.40096 129.394267 
L 979.674365 119.216655 
L 991.947771 139.571903 
L 1004.221177 109.039042 
L 1016.494582 103.950212 
L 1028.767988 103.950212 
L 1041.041393 114.127824 
L 1053.314799 114.127824 
L 1065.588205 124.305461 
L 1077.86161 114.127824 
L 1090.135016 114.127824 
L 1102.408422 109.039042 
L 1114.681827 124.305461 
L 1126.955233 103.950212 
L 1139.228638 93.7726 
L 1151.502044 103.950212 
L 1163.77545 98.86143 
L 1176.048855 119.216655 
L 1188.322261 83.594988 
L 1200.595666 98.861406 
L 1212.869072 98.861406 
L 1225.142478 103.950212 
L 1237.415883 88.68377 
L 1249.689289 98.861406 
L 1261.962695 109.039042 
L 1274.2361 83.594988 
L 1286.509506 88.68377 
L 1298.782911 88.683794 
L 1311.056317 88.683794 
L 1323.329723 103.950212 
L 1335.603128 93.7726 
L 1347.876534 103.950212 
L 1360.149939 98.861406 
L 1372.423345 73.417352 
L 1384.696751 109.039042 
L 1396.970156 103.950212 
" style="fill:none;stroke:#ff7c00;stroke-linecap:round;stroke-width:1.5;"/>
   </g>
   <g id="line2d_31">
    <path clip-path="url(#p08dbcf467c)" d="M 795.573281 220.992873 
L 795.573281 210.815236 
L 807.846687 197.245087 
L 820.120092 190.46 
L 832.393498 187.067463 
L 844.666904 146.356978 
L 856.940309 153.142053 
L 869.213715 156.53459 
L 881.487121 129.394267 
L 893.760526 132.786816 
L 906.033932 122.609192 
L 918.307337 139.571891 
L 930.580743 132.786804 
L 942.854149 129.394279 
L 955.127554 139.571891 
L 967.40096 122.609204 
L 979.674365 126.001729 
L 991.947771 115.824117 
L 1004.221177 109.039018 
L 1016.494582 115.824117 
L 1028.767988 122.609204 
L 1041.041393 105.646481 
L 1053.314799 112.43158 
L 1065.588205 102.253943 
L 1077.86161 115.824093 
L 1090.135016 115.824093 
L 1102.408422 98.861406 
L 1114.681827 92.076307 
L 1126.955233 92.076307 
L 1139.228638 102.253919 
L 1151.502044 112.43158 
L 1163.77545 95.468869 
L 1176.048855 102.253943 
L 1188.322261 92.076331 
L 1200.595666 95.468844 
L 1212.869072 109.039018 
L 1225.142478 95.468869 
L 1237.415883 105.646481 
L 1249.689289 92.076331 
L 1261.962695 85.291232 
L 1274.2361 95.468869 
L 1286.509506 95.468869 
L 1298.782911 85.291232 
L 1311.056317 95.468869 
L 1323.329723 95.468869 
L 1335.603128 95.468869 
L 1347.876534 95.468869 
L 1360.149939 88.68377 
L 1372.423345 102.253943 
L 1384.696751 81.898695 
L 1396.970156 102.253943 
" style="fill:none;stroke:#1ac938;stroke-linecap:round;stroke-width:1.5;"/>
   </g>
   <g id="line2d_32">
    <path clip-path="url(#p08dbcf467c)" d="M 795.573281 322.769091 
L 795.573281 200.637624 
L 807.846687 185.371194 
L 820.120092 175.19357 
L 832.393498 170.104764 
L 844.666904 165.015945 
L 856.940309 144.660709 
L 869.213715 162.471542 
L 881.487121 149.749515 
L 893.760526 137.027488 
L 906.033932 137.027488 
L 918.307337 131.938682 
L 930.580743 129.394279 
L 942.854149 129.394267 
L 955.127554 114.127824 
L 967.40096 124.305461 
L 979.674365 103.950236 
L 991.947771 119.216655 
L 1004.221177 91.228185 
L 1016.494582 109.039042 
L 1028.767988 126.849876 
L 1041.041393 81.050573 
L 1053.314799 106.494627 
L 1065.588205 93.7726 
L 1077.86161 98.861406 
L 1090.135016 98.861406 
L 1102.408422 96.317015 
L 1114.681827 109.039018 
L 1126.955233 98.861406 
L 1139.228638 91.228185 
L 1151.502044 86.139379 
L 1163.77545 81.050573 
L 1176.048855 83.594988 
L 1188.322261 96.317015 
L 1200.595666 111.583433 
L 1212.869072 98.861406 
L 1225.142478 91.228185 
L 1237.415883 83.594988 
L 1249.689289 78.506158 
L 1261.962695 96.316991 
L 1274.2361 83.594988 
L 1286.509506 88.68377 
L 1298.782911 91.228185 
L 1311.056317 75.961742 
L 1323.329723 88.68377 
L 1335.603128 73.417352 
L 1347.876534 83.594988 
L 1360.149939 88.68377 
L 1372.423345 88.68377 
L 1384.696751 70.872961 
L 1396.970156 83.594988 
" style="fill:none;stroke:#e8000b;stroke-linecap:round;stroke-width:1.5;"/>
   </g>
   <g id="line2d_33">
    <path clip-path="url(#p08dbcf467c)" d="M 795.573281 322.769091 
L 795.573281 196.566579 
L 807.846687 180.282388 
L 820.120092 170.104752 
L 832.393498 135.500834 
L 844.666904 137.536368 
L 856.940309 135.500846 
L 869.213715 129.394279 
L 881.487121 119.216655 
L 893.760526 117.181108 
L 906.033932 107.003496 
L 918.307337 104.967973 
L 930.580743 100.896928 
L 942.854149 102.932451 
L 955.127554 113.110087 
L 967.40096 94.790337 
L 979.674365 94.790361 
L 991.947771 88.683794 
L 1004.221177 100.896928 
L 1016.494582 86.648247 
L 1028.767988 100.896928 
L 1041.041393 92.754839 
L 1053.314799 84.612749 
L 1065.588205 86.648247 
L 1077.86161 78.506158 
L 1090.135016 94.790337 
L 1102.408422 82.577202 
L 1114.681827 74.435088 
L 1126.955233 78.506133 
L 1139.228638 86.648247 
L 1151.502044 64.257476 
L 1163.77545 74.435088 
L 1176.048855 80.54168 
L 1188.322261 64.257476 
L 1200.595666 62.221954 
L 1212.869072 82.577202 
L 1225.142478 74.435113 
L 1237.415883 58.150909 
L 1249.689289 58.150909 
L 1261.962695 74.435113 
L 1274.2361 78.506158 
L 1286.509506 62.221954 
L 1298.782911 84.612749 
L 1311.056317 64.257476 
L 1323.329723 66.292999 
L 1335.603128 64.257501 
L 1347.876534 70.364068 
L 1360.149939 70.364068 
L 1372.423345 68.328545 
L 1384.696751 62.221978 
L 1396.970156 66.292999 
" style="fill:none;stroke:#8b2be2;stroke-linecap:round;stroke-width:1.5;"/>
   </g>
   <g id="patch_8">
    <path d="M 765.503438 336 
L 765.503438 44.92 
" style="fill:none;stroke:#cccccc;stroke-linecap:square;stroke-linejoin:miter;stroke-width:1.25;"/>
   </g>
   <g id="patch_9">
    <path d="M 1427.04 336 
L 1427.04 44.92 
" style="fill:none;stroke:#cccccc;stroke-linecap:square;stroke-linejoin:miter;stroke-width:1.25;"/>
   </g>
   <g id="patch_10">
    <path d="M 765.503438 336 
L 1427.04 336 
" style="fill:none;stroke:#cccccc;stroke-linecap:square;stroke-linejoin:miter;stroke-width:1.25;"/>
   </g>
   <g id="patch_11">
    <path d="M 765.503438 44.92 
L 1427.04 44.92 
" style="fill:none;stroke:#cccccc;stroke-linecap:square;stroke-linejoin:miter;stroke-width:1.25;"/>
   </g>
  </g>
  <g id="axes_3">
   <g id="patch_12">
    <path d="M 51.96 673.54 
L 713.496562 673.54 
L 713.496562 382.46 
L 51.96 382.46 
z
" style="fill:#ffffff;"/>
   </g>
   <g id="matplotlib.axis_5">
    <g id="xtick_13">
     <g id="line2d_34">
      <path clip-path="url(#p8a42577a0c)" d="M 82.029844 673.54 
L 82.029844 382.46 
" style="fill:none;stroke:#cccccc;stroke-linecap:round;"/>
     </g>
     <g id="text_27">
      <!-- 0 -->
      <g style="fill:#262626;" transform="translate(78.971328 690.913594)scale(0.11 -0.11)">
       <use xlink:href="#ArialMT-30"/>
      </g>
     </g>
    </g>
    <g id="xtick_14">
     <g id="line2d_35">
      <path clip-path="url(#p8a42577a0c)" d="M 204.7639 673.54 
L 204.7639 382.46 
" style="fill:none;stroke:#cccccc;stroke-linecap:round;"/>
     </g>
     <g id="text_28">
      <!-- 10 -->
      <g style="fill:#262626;" transform="translate(198.646869 690.913594)scale(0.11 -0.11)">
       <use xlink:href="#ArialMT-31"/>
       <use x="55.615234" xlink:href="#ArialMT-30"/>
      </g>
     </g>
    </g>
    <g id="xtick_15">
     <g id="line2d_36">
      <path clip-path="url(#p8a42577a0c)" d="M 327.497956 673.54 
L 327.497956 382.46 
" style="fill:none;stroke:#cccccc;stroke-linecap:round;"/>
     </g>
     <g id="text_29">
      <!-- 20 -->
      <g style="fill:#262626;" transform="translate(321.380925 690.913594)scale(0.11 -0.11)">
       <use xlink:href="#ArialMT-32"/>
       <use x="55.615234" xlink:href="#ArialMT-30"/>
      </g>
     </g>
    </g>
    <g id="xtick_16">
     <g id="line2d_37">
      <path clip-path="url(#p8a42577a0c)" d="M 450.232012 673.54 
L 450.232012 382.46 
" style="fill:none;stroke:#cccccc;stroke-linecap:round;"/>
     </g>
     <g id="text_30">
      <!-- 30 -->
      <g style="fill:#262626;" transform="translate(444.114981 690.913594)scale(0.11 -0.11)">
       <use xlink:href="#ArialMT-33"/>
       <use x="55.615234" xlink:href="#ArialMT-30"/>
      </g>
     </g>
    </g>
    <g id="xtick_17">
     <g id="line2d_38">
      <path clip-path="url(#p8a42577a0c)" d="M 572.966068 673.54 
L 572.966068 382.46 
" style="fill:none;stroke:#cccccc;stroke-linecap:round;"/>
     </g>
     <g id="text_31">
      <!-- 40 -->
      <g style="fill:#262626;" transform="translate(566.849037 690.913594)scale(0.11 -0.11)">
       <use xlink:href="#ArialMT-34"/>
       <use x="55.615234" xlink:href="#ArialMT-30"/>
      </g>
     </g>
    </g>
    <g id="xtick_18">
     <g id="line2d_39">
      <path clip-path="url(#p8a42577a0c)" d="M 695.700124 673.54 
L 695.700124 382.46 
" style="fill:none;stroke:#cccccc;stroke-linecap:round;"/>
     </g>
     <g id="text_32">
      <!-- 50 -->
      <g style="fill:#262626;" transform="translate(689.583093 690.913594)scale(0.11 -0.11)">
       <use xlink:href="#ArialMT-35"/>
       <use x="55.615234" xlink:href="#ArialMT-30"/>
      </g>
     </g>
    </g>
    <g id="text_33">
     <!-- Epochs -->
     <g style="fill:#262626;" transform="translate(362.716406 705.689219)scale(0.12 -0.12)">
      <use xlink:href="#ArialMT-45"/>
      <use x="66.699219" xlink:href="#ArialMT-70"/>
      <use x="122.314453" xlink:href="#ArialMT-6f"/>
      <use x="177.929688" xlink:href="#ArialMT-63"/>
      <use x="227.929688" xlink:href="#ArialMT-68"/>
      <use x="283.544922" xlink:href="#ArialMT-73"/>
     </g>
    </g>
   </g>
   <g id="matplotlib.axis_6">
    <g id="ytick_12">
     <g id="line2d_40">
      <path clip-path="url(#p8a42577a0c)" d="M 51.96 623.091347 
L 713.496562 623.091347 
" style="fill:none;stroke:#cccccc;stroke-linecap:round;"/>
     </g>
     <g id="text_34">
      <!-- 0.2 -->
      <g style="fill:#262626;" transform="translate(27.17 627.028144)scale(0.11 -0.11)">
       <use xlink:href="#ArialMT-30"/>
       <use x="55.615234" xlink:href="#ArialMT-2e"/>
       <use x="83.398438" xlink:href="#ArialMT-32"/>
      </g>
     </g>
    </g>
    <g id="ytick_13">
     <g id="line2d_41">
      <path clip-path="url(#p8a42577a0c)" d="M 51.96 563.542956 
L 713.496562 563.542956 
" style="fill:none;stroke:#cccccc;stroke-linecap:round;"/>
     </g>
     <g id="text_35">
      <!-- 0.4 -->
      <g style="fill:#262626;" transform="translate(27.17 567.479753)scale(0.11 -0.11)">
       <use xlink:href="#ArialMT-30"/>
       <use x="55.615234" xlink:href="#ArialMT-2e"/>
       <use x="83.398438" xlink:href="#ArialMT-34"/>
      </g>
     </g>
    </g>
    <g id="ytick_14">
     <g id="line2d_42">
      <path clip-path="url(#p8a42577a0c)" d="M 51.96 503.994565 
L 713.496562 503.994565 
" style="fill:none;stroke:#cccccc;stroke-linecap:round;"/>
     </g>
     <g id="text_36">
      <!-- 0.6 -->
      <g style="fill:#262626;" transform="translate(27.17 507.931362)scale(0.11 -0.11)">
       <use xlink:href="#ArialMT-30"/>
       <use x="55.615234" xlink:href="#ArialMT-2e"/>
       <use x="83.398438" xlink:href="#ArialMT-36"/>
      </g>
     </g>
    </g>
    <g id="ytick_15">
     <g id="line2d_43">
      <path clip-path="url(#p8a42577a0c)" d="M 51.96 444.446174 
L 713.496562 444.446174 
" style="fill:none;stroke:#cccccc;stroke-linecap:round;"/>
     </g>
     <g id="text_37">
      <!-- 0.8 -->
      <g style="fill:#262626;" transform="translate(27.17 448.38297)scale(0.11 -0.11)">
       <defs>
        <path d="M 1131 2484 
Q 781 2613 612 2850 
Q 444 3088 444 3419 
Q 444 3919 803 4259 
Q 1163 4600 1759 4600 
Q 2359 4600 2725 4251 
Q 3091 3903 3091 3403 
Q 3091 3084 2923 2848 
Q 2756 2613 2416 2484 
Q 2838 2347 3058 2040 
Q 3278 1734 3278 1309 
Q 3278 722 2862 322 
Q 2447 -78 1769 -78 
Q 1091 -78 675 323 
Q 259 725 259 1325 
Q 259 1772 486 2073 
Q 713 2375 1131 2484 
z
M 1019 3438 
Q 1019 3113 1228 2906 
Q 1438 2700 1772 2700 
Q 2097 2700 2305 2904 
Q 2513 3109 2513 3406 
Q 2513 3716 2298 3927 
Q 2084 4138 1766 4138 
Q 1444 4138 1231 3931 
Q 1019 3725 1019 3438 
z
M 838 1322 
Q 838 1081 952 856 
Q 1066 631 1291 507 
Q 1516 384 1775 384 
Q 2178 384 2440 643 
Q 2703 903 2703 1303 
Q 2703 1709 2433 1975 
Q 2163 2241 1756 2241 
Q 1359 2241 1098 1978 
Q 838 1716 838 1322 
z
" id="ArialMT-38" transform="scale(0.015625)"/>
       </defs>
       <use xlink:href="#ArialMT-30"/>
       <use x="55.615234" xlink:href="#ArialMT-2e"/>
       <use x="83.398438" xlink:href="#ArialMT-38"/>
      </g>
     </g>
    </g>
    <g id="ytick_16">
     <g id="line2d_44">
      <path clip-path="url(#p8a42577a0c)" d="M 51.96 384.897782 
L 713.496562 384.897782 
" style="fill:none;stroke:#cccccc;stroke-linecap:round;"/>
     </g>
     <g id="text_38">
      <!-- 1.0 -->
      <g style="fill:#262626;" transform="translate(27.17 388.834579)scale(0.11 -0.11)">
       <use xlink:href="#ArialMT-31"/>
       <use x="55.615234" xlink:href="#ArialMT-2e"/>
       <use x="83.398438" xlink:href="#ArialMT-30"/>
      </g>
     </g>
    </g>
    <g id="text_39">
     <!-- Training Accuracy -->
     <g style="fill:#262626;" transform="translate(20.644375 575.46)rotate(-90)scale(0.12 -0.12)">
      <use xlink:href="#ArialMT-54"/>
      <use x="57.333984" xlink:href="#ArialMT-72"/>
      <use x="90.634766" xlink:href="#ArialMT-61"/>
      <use x="146.25" xlink:href="#ArialMT-69"/>
      <use x="168.466797" xlink:href="#ArialMT-6e"/>
      <use x="224.082031" xlink:href="#ArialMT-69"/>
      <use x="246.298828" xlink:href="#ArialMT-6e"/>
      <use x="301.914062" xlink:href="#ArialMT-67"/>
      <use x="357.529297" xlink:href="#ArialMT-20"/>
      <use x="379.8125" xlink:href="#ArialMT-41"/>
      <use x="446.511719" xlink:href="#ArialMT-63"/>
      <use x="496.511719" xlink:href="#ArialMT-63"/>
      <use x="546.511719" xlink:href="#ArialMT-75"/>
      <use x="602.126953" xlink:href="#ArialMT-72"/>
      <use x="635.427734" xlink:href="#ArialMT-61"/>
      <use x="691.042969" xlink:href="#ArialMT-63"/>
      <use x="741.042969" xlink:href="#ArialMT-79"/>
     </g>
    </g>
   </g>
   <g id="line2d_45">
    <path clip-path="url(#p8a42577a0c)" d="M 82.029844 660.309091 
L 94.303249 647.282882 
L 106.576655 636.117558 
L 118.850061 584.012712 
L 131.123466 593.317148 
L 143.396872 589.595377 
L 155.670277 591.456263 
L 167.943683 574.708276 
L 180.217089 604.482479 
L 192.490494 589.595377 
L 204.7639 576.569161 
L 217.037305 576.569161 
L 229.310711 561.682069 
L 241.584117 565.40384 
L 253.857522 589.595377 
L 266.130928 550.516738 
L 278.404334 554.238509 
L 290.677739 543.073197 
L 302.951145 503.994558 
L 315.22455 522.603448 
L 327.497956 511.4381 
L 339.771362 520.742536 
L 352.044767 531.907866 
L 364.318173 539.351426 
L 376.591578 517.020782 
L 388.864984 502.133681 
L 401.13839 520.742536 
L 413.411795 487.24658 
L 425.685201 518.881659 
L 437.958607 483.524827 
L 450.232012 494.690122 
L 462.505418 479.803038 
L 474.778823 481.663915 
L 487.052229 476.081249 
L 499.325635 474.220355 
L 511.59904 476.081267 
L 523.872446 461.194166 
L 536.145851 470.498602 
L 548.419257 451.88973 
L 560.692663 438.863523 
L 572.966068 438.863523 
L 585.239474 451.88973 
L 597.512879 440.724399 
L 609.786285 450.028835 
L 622.059691 429.559069 
L 634.333096 442.585276 
L 646.606502 442.585293 
L 658.879908 435.141752 
L 671.153313 431.419963 
L 683.426719 438.863505 
" style="fill:none;stroke:#023eff;stroke-linecap:round;stroke-width:1.5;"/>
   </g>
   <g id="line2d_46">
    <path clip-path="url(#p8a42577a0c)" d="M 82.029844 645.421994 
L 94.303249 627.743564 
L 106.576655 610.995582 
L 118.850061 598.899813 
L 131.123466 594.247595 
L 143.396872 589.595377 
L 155.670277 581.221388 
L 167.943683 572.84739 
L 180.217089 579.360494 
L 192.490494 567.264734 
L 204.7639 554.238527 
L 217.037305 551.447186 
L 229.310711 548.655862 
L 241.584117 542.142749 
L 253.857522 533.768769 
L 266.130928 531.907866 
L 278.404334 529.116542 
L 290.677739 528.186113 
L 302.951145 517.020782 
L 315.22455 510.50767 
L 327.497956 504.925023 
L 339.771362 500.272787 
L 352.044767 507.716329 
L 364.318173 502.133681 
L 376.591578 493.759692 
L 388.864984 497.481445 
L 401.13839 477.942144 
L 413.411795 489.107474 
L 425.685201 464.915937 
L 437.958607 457.472377 
L 450.232012 468.637708 
L 462.505418 449.098406 
L 474.778823 458.402842 
L 487.052229 437.933075 
L 499.325635 447.237494 
L 511.59904 436.072181 
L 523.872446 446.307047 
L 536.145851 438.863505 
L 548.419257 438.863505 
L 560.692663 427.698174 
L 572.966068 421.18508 
L 585.239474 420.254633 
L 597.512879 423.976421 
L 609.786285 417.463309 
L 622.059691 429.559069 
L 634.333096 420.25465 
L 646.606502 412.811091 
L 658.879908 405.367549 
L 671.153313 406.297978 
L 683.426719 412.811091 
" style="fill:none;stroke:#ff7c00;stroke-linecap:round;stroke-width:1.5;"/>
   </g>
   <g id="line2d_47">
    <path clip-path="url(#p8a42577a0c)" d="M 82.029844 646.662584 
L 94.303249 623.711642 
L 106.576655 607.583945 
L 118.850061 601.380994 
L 131.123466 591.456254 
L 143.396872 570.366192 
L 155.670277 561.682069 
L 167.943683 567.88502 
L 180.217089 552.377633 
L 192.490494 552.997919 
L 204.7639 541.212302 
L 217.037305 541.212302 
L 229.310711 529.426686 
L 241.584117 527.565791 
L 253.857522 529.426686 
L 266.130928 520.742536 
L 278.404334 526.945505 
L 290.677739 509.577205 
L 302.951145 504.614844 
L 315.22455 496.551016 
L 327.497956 491.588637 
L 339.771362 503.994558 
L 352.044767 484.765399 
L 364.318173 492.829227 
L 376.591578 477.942144 
L 388.864984 479.80302 
L 401.13839 471.118888 
L 413.411795 468.017421 
L 425.685201 459.953558 
L 437.958607 460.573862 
L 450.232012 448.167923 
L 462.505418 446.927351 
L 474.778823 454.991196 
L 487.052229 438.863505 
L 499.325635 440.104113 
L 511.59904 434.52143 
L 523.872446 425.216994 
L 536.145851 423.356117 
L 548.419257 431.419963 
L 560.692663 418.393756 
L 572.966068 412.190804 
L 585.239474 410.950179 
L 597.512879 414.051681 
L 609.786285 405.367531 
L 622.059691 416.532844 
L 634.333096 415.292271 
L 646.606502 405.987835 
L 658.879908 404.126941 
L 671.153313 401.64576 
L 683.426719 397.303685 
" style="fill:none;stroke:#1ac938;stroke-linecap:round;stroke-width:1.5;"/>
   </g>
   <g id="line2d_48">
    <path clip-path="url(#p8a42577a0c)" d="M 82.029844 644.026332 
L 94.303249 617.508686 
L 106.576655 591.921486 
L 118.850061 586.804045 
L 131.123466 576.56917 
L 143.396872 561.682069 
L 155.670277 559.821183 
L 167.943683 555.168956 
L 180.217089 541.21232 
L 192.490494 531.907866 
L 204.7639 530.512204 
L 217.037305 532.373081 
L 229.310711 522.60343 
L 241.584117 524.464324 
L 253.857522 517.951212 
L 266.130928 504.925023 
L 278.404334 503.529343 
L 290.677739 504.459772 
L 302.951145 496.551016 
L 315.22455 500.272805 
L 327.497956 490.037904 
L 339.771362 481.663915 
L 352.044767 494.690122 
L 364.318173 479.803038 
L 376.591578 470.498602 
L 388.864984 458.402824 
L 401.13839 457.007162 
L 413.411795 459.333271 
L 425.685201 453.750606 
L 437.958607 452.820177 
L 450.232012 451.889712 
L 462.505418 450.028835 
L 474.778823 434.676501 
L 487.052229 430.024301 
L 499.325635 432.815625 
L 511.59904 426.767745 
L 523.872446 435.141734 
L 536.145851 422.115527 
L 548.419257 426.30253 
L 560.692663 428.163425 
L 572.966068 413.741538 
L 585.239474 416.067647 
L 597.512879 410.484982 
L 609.786285 405.367549 
L 622.059691 398.854437 
L 634.333096 405.832764 
L 646.606502 402.576225 
L 658.879908 399.319651 
L 671.153313 403.506655 
L 683.426719 400.715331 
" style="fill:none;stroke:#e8000b;stroke-linecap:round;stroke-width:1.5;"/>
   </g>
   <g id="line2d_49">
    <path clip-path="url(#p8a42577a0c)" d="M 82.029844 635.745376 
L 94.303249 608.204249 
L 106.576655 579.17441 
L 118.850061 575.824807 
L 131.123466 556.843767 
L 143.396872 553.494164 
L 155.670277 553.866332 
L 167.943683 540.467948 
L 180.217089 537.118363 
L 192.490494 527.813927 
L 204.7639 531.163512 
L 217.037305 514.043348 
L 229.310711 517.020765 
L 241.584117 509.949391 
L 253.857522 508.832869 
L 266.130928 499.900619 
L 278.404334 492.829245 
L 290.677739 496.923184 
L 302.951145 489.851828 
L 315.22455 483.152623 
L 327.497956 476.081249 
L 339.771362 475.709081 
L 352.044767 470.87077 
L 364.318173 470.498602 
L 376.591578 457.472377 
L 388.864984 454.122774 
L 401.13839 456.355855 
L 413.411795 451.145375 
L 425.685201 443.32963 
L 437.958607 441.840939 
L 450.232012 431.419963 
L 462.505418 437.374796 
L 474.778823 427.698192 
L 487.052229 431.792131 
L 499.325635 428.814732 
L 511.59904 419.882464 
L 523.872446 415.044153 
L 536.145851 404.995363 
L 548.419257 410.577993 
L 560.692663 409.461488 
L 572.966068 401.64576 
L 585.239474 401.273592 
L 597.512879 404.995363 
L 609.786285 399.784884 
L 622.059691 404.995363 
L 634.333096 397.551821 
L 646.606502 401.64576 
L 658.879908 396.807449 
L 671.153313 395.690909 
L 683.426719 398.296158 
" style="fill:none;stroke:#8b2be2;stroke-linecap:round;stroke-width:1.5;"/>
   </g>
   <g id="patch_13">
    <path d="M 51.96 673.54 
L 51.96 382.46 
" style="fill:none;stroke:#cccccc;stroke-linecap:square;stroke-linejoin:miter;stroke-width:1.25;"/>
   </g>
   <g id="patch_14">
    <path d="M 713.496562 673.54 
L 713.496562 382.46 
" style="fill:none;stroke:#cccccc;stroke-linecap:square;stroke-linejoin:miter;stroke-width:1.25;"/>
   </g>
   <g id="patch_15">
    <path d="M 51.96 673.54 
L 713.496562 673.54 
" style="fill:none;stroke:#cccccc;stroke-linecap:square;stroke-linejoin:miter;stroke-width:1.25;"/>
   </g>
   <g id="patch_16">
    <path d="M 51.96 382.46 
L 713.496562 382.46 
" style="fill:none;stroke:#cccccc;stroke-linecap:square;stroke-linejoin:miter;stroke-width:1.25;"/>
   </g>
  </g>
  <g id="axes_4">
   <g id="patch_17">
    <path d="M 765.503438 673.54 
L 1427.04 673.54 
L 1427.04 382.46 
L 765.503438 382.46 
z
" style="fill:#ffffff;"/>
   </g>
   <g id="matplotlib.axis_7">
    <g id="xtick_19">
     <g id="line2d_50">
      <path clip-path="url(#p16a7284bc2)" d="M 795.573281 673.54 
L 795.573281 382.46 
" style="fill:none;stroke:#cccccc;stroke-linecap:round;"/>
     </g>
     <g id="text_40">
      <!-- 0 -->
      <g style="fill:#262626;" transform="translate(792.514766 690.913594)scale(0.11 -0.11)">
       <use xlink:href="#ArialMT-30"/>
      </g>
     </g>
    </g>
    <g id="xtick_20">
     <g id="line2d_51">
      <path clip-path="url(#p16a7284bc2)" d="M 918.307337 673.54 
L 918.307337 382.46 
" style="fill:none;stroke:#cccccc;stroke-linecap:round;"/>
     </g>
     <g id="text_41">
      <!-- 10 -->
      <g style="fill:#262626;" transform="translate(912.190306 690.913594)scale(0.11 -0.11)">
       <use xlink:href="#ArialMT-31"/>
       <use x="55.615234" xlink:href="#ArialMT-30"/>
      </g>
     </g>
    </g>
    <g id="xtick_21">
     <g id="line2d_52">
      <path clip-path="url(#p16a7284bc2)" d="M 1041.041393 673.54 
L 1041.041393 382.46 
" style="fill:none;stroke:#cccccc;stroke-linecap:round;"/>
     </g>
     <g id="text_42">
      <!-- 20 -->
      <g style="fill:#262626;" transform="translate(1034.924362 690.913594)scale(0.11 -0.11)">
       <use xlink:href="#ArialMT-32"/>
       <use x="55.615234" xlink:href="#ArialMT-30"/>
      </g>
     </g>
    </g>
    <g id="xtick_22">
     <g id="line2d_53">
      <path clip-path="url(#p16a7284bc2)" d="M 1163.77545 673.54 
L 1163.77545 382.46 
" style="fill:none;stroke:#cccccc;stroke-linecap:round;"/>
     </g>
     <g id="text_43">
      <!-- 30 -->
      <g style="fill:#262626;" transform="translate(1157.658418 690.913594)scale(0.11 -0.11)">
       <use xlink:href="#ArialMT-33"/>
       <use x="55.615234" xlink:href="#ArialMT-30"/>
      </g>
     </g>
    </g>
    <g id="xtick_23">
     <g id="line2d_54">
      <path clip-path="url(#p16a7284bc2)" d="M 1286.509506 673.54 
L 1286.509506 382.46 
" style="fill:none;stroke:#cccccc;stroke-linecap:round;"/>
     </g>
     <g id="text_44">
      <!-- 40 -->
      <g style="fill:#262626;" transform="translate(1280.392474 690.913594)scale(0.11 -0.11)">
       <use xlink:href="#ArialMT-34"/>
       <use x="55.615234" xlink:href="#ArialMT-30"/>
      </g>
     </g>
    </g>
    <g id="xtick_24">
     <g id="line2d_55">
      <path clip-path="url(#p16a7284bc2)" d="M 1409.243562 673.54 
L 1409.243562 382.46 
" style="fill:none;stroke:#cccccc;stroke-linecap:round;"/>
     </g>
     <g id="text_45">
      <!-- 50 -->
      <g style="fill:#262626;" transform="translate(1403.126531 690.913594)scale(0.11 -0.11)">
       <use xlink:href="#ArialMT-35"/>
       <use x="55.615234" xlink:href="#ArialMT-30"/>
      </g>
     </g>
    </g>
    <g id="text_46">
     <!-- Epochs -->
     <g style="fill:#262626;" transform="translate(1076.259844 705.689219)scale(0.12 -0.12)">
      <use xlink:href="#ArialMT-45"/>
      <use x="66.699219" xlink:href="#ArialMT-70"/>
      <use x="122.314453" xlink:href="#ArialMT-6f"/>
      <use x="177.929688" xlink:href="#ArialMT-63"/>
      <use x="227.929688" xlink:href="#ArialMT-68"/>
      <use x="283.544922" xlink:href="#ArialMT-73"/>
     </g>
    </g>
   </g>
   <g id="matplotlib.axis_8">
    <g id="ytick_17">
     <g id="line2d_56">
      <path clip-path="url(#p16a7284bc2)" d="M 765.503438 660.309091 
L 1427.04 660.309091 
" style="fill:none;stroke:#cccccc;stroke-linecap:round;"/>
     </g>
     <g id="text_47">
      <!-- 0.0 -->
      <g style="fill:#262626;" transform="translate(740.713438 664.245888)scale(0.11 -0.11)">
       <use xlink:href="#ArialMT-30"/>
       <use x="55.615234" xlink:href="#ArialMT-2e"/>
       <use x="83.398438" xlink:href="#ArialMT-30"/>
      </g>
     </g>
    </g>
    <g id="ytick_18">
     <g id="line2d_57">
      <path clip-path="url(#p16a7284bc2)" d="M 765.503438 619.598604 
L 1427.04 619.598604 
" style="fill:none;stroke:#cccccc;stroke-linecap:round;"/>
     </g>
     <g id="text_48">
      <!-- 0.1 -->
      <g style="fill:#262626;" transform="translate(740.713438 623.535401)scale(0.11 -0.11)">
       <use xlink:href="#ArialMT-30"/>
       <use x="55.615234" xlink:href="#ArialMT-2e"/>
       <use x="83.398438" xlink:href="#ArialMT-31"/>
      </g>
     </g>
    </g>
    <g id="ytick_19">
     <g id="line2d_58">
      <path clip-path="url(#p16a7284bc2)" d="M 765.503438 578.888116 
L 1427.04 578.888116 
" style="fill:none;stroke:#cccccc;stroke-linecap:round;"/>
     </g>
     <g id="text_49">
      <!-- 0.2 -->
      <g style="fill:#262626;" transform="translate(740.713438 582.824913)scale(0.11 -0.11)">
       <use xlink:href="#ArialMT-30"/>
       <use x="55.615234" xlink:href="#ArialMT-2e"/>
       <use x="83.398438" xlink:href="#ArialMT-32"/>
      </g>
     </g>
    </g>
    <g id="ytick_20">
     <g id="line2d_59">
      <path clip-path="url(#p16a7284bc2)" d="M 765.503438 538.177629 
L 1427.04 538.177629 
" style="fill:none;stroke:#cccccc;stroke-linecap:round;"/>
     </g>
     <g id="text_50">
      <!-- 0.3 -->
      <g style="fill:#262626;" transform="translate(740.713438 542.114426)scale(0.11 -0.11)">
       <use xlink:href="#ArialMT-30"/>
       <use x="55.615234" xlink:href="#ArialMT-2e"/>
       <use x="83.398438" xlink:href="#ArialMT-33"/>
      </g>
     </g>
    </g>
    <g id="ytick_21">
     <g id="line2d_60">
      <path clip-path="url(#p16a7284bc2)" d="M 765.503438 497.467142 
L 1427.04 497.467142 
" style="fill:none;stroke:#cccccc;stroke-linecap:round;"/>
     </g>
     <g id="text_51">
      <!-- 0.4 -->
      <g style="fill:#262626;" transform="translate(740.713438 501.403939)scale(0.11 -0.11)">
       <use xlink:href="#ArialMT-30"/>
       <use x="55.615234" xlink:href="#ArialMT-2e"/>
       <use x="83.398438" xlink:href="#ArialMT-34"/>
      </g>
     </g>
    </g>
    <g id="ytick_22">
     <g id="line2d_61">
      <path clip-path="url(#p16a7284bc2)" d="M 765.503438 456.756655 
L 1427.04 456.756655 
" style="fill:none;stroke:#cccccc;stroke-linecap:round;"/>
     </g>
     <g id="text_52">
      <!-- 0.5 -->
      <g style="fill:#262626;" transform="translate(740.713438 460.693451)scale(0.11 -0.11)">
       <use xlink:href="#ArialMT-30"/>
       <use x="55.615234" xlink:href="#ArialMT-2e"/>
       <use x="83.398438" xlink:href="#ArialMT-35"/>
      </g>
     </g>
    </g>
    <g id="ytick_23">
     <g id="line2d_62">
      <path clip-path="url(#p16a7284bc2)" d="M 765.503438 416.046167 
L 1427.04 416.046167 
" style="fill:none;stroke:#cccccc;stroke-linecap:round;"/>
     </g>
     <g id="text_53">
      <!-- 0.6 -->
      <g style="fill:#262626;" transform="translate(740.713438 419.982964)scale(0.11 -0.11)">
       <use xlink:href="#ArialMT-30"/>
       <use x="55.615234" xlink:href="#ArialMT-2e"/>
       <use x="83.398438" xlink:href="#ArialMT-36"/>
      </g>
     </g>
    </g>
    <g id="text_54">
     <!-- Validation Accuracy -->
     <g style="fill:#262626;" transform="translate(734.187813 579.91875)rotate(-90)scale(0.12 -0.12)">
      <use xlink:href="#ArialMT-56"/>
      <use x="59.324219" xlink:href="#ArialMT-61"/>
      <use x="114.939453" xlink:href="#ArialMT-6c"/>
      <use x="137.15625" xlink:href="#ArialMT-69"/>
      <use x="159.373047" xlink:href="#ArialMT-64"/>
      <use x="214.988281" xlink:href="#ArialMT-61"/>
      <use x="270.603516" xlink:href="#ArialMT-74"/>
      <use x="298.386719" xlink:href="#ArialMT-69"/>
      <use x="320.603516" xlink:href="#ArialMT-6f"/>
      <use x="376.21875" xlink:href="#ArialMT-6e"/>
      <use x="431.833984" xlink:href="#ArialMT-20"/>
      <use x="454.117188" xlink:href="#ArialMT-41"/>
      <use x="520.816406" xlink:href="#ArialMT-63"/>
      <use x="570.816406" xlink:href="#ArialMT-63"/>
      <use x="620.816406" xlink:href="#ArialMT-75"/>
      <use x="676.431641" xlink:href="#ArialMT-72"/>
      <use x="709.732422" xlink:href="#ArialMT-61"/>
      <use x="765.347656" xlink:href="#ArialMT-63"/>
      <use x="815.347656" xlink:href="#ArialMT-79"/>
     </g>
    </g>
   </g>
   <g id="line2d_63">
    <path clip-path="url(#p16a7284bc2)" d="M 795.573281 639.953847 
L 795.573281 629.776224 
L 807.846687 548.355248 
L 820.120092 538.177624 
L 832.393498 528 
L 844.666904 548.355248 
L 856.940309 548.355248 
L 869.213715 538.177624 
L 881.487121 538.177624 
L 893.760526 517.822388 
L 906.033932 517.822388 
L 918.307337 497.467139 
L 930.580743 517.822376 
L 942.854149 497.467139 
L 955.127554 487.289515 
L 967.40096 466.934267 
L 979.674365 507.644764 
L 991.947771 497.467139 
L 1004.221177 466.934267 
L 1016.494582 507.644764 
L 1028.767988 487.289515 
L 1041.041393 477.111903 
L 1053.314799 477.111903 
L 1065.588205 466.934267 
L 1077.86161 497.467139 
L 1090.135016 456.756655 
L 1102.408422 487.289515 
L 1114.681827 477.111903 
L 1126.955233 456.756655 
L 1139.228638 477.111903 
L 1151.502044 477.111891 
L 1163.77545 466.934267 
L 1176.048855 477.111891 
L 1188.322261 497.467139 
L 1200.595666 477.111903 
L 1212.869072 466.934267 
L 1225.142478 477.111903 
L 1237.415883 487.289515 
L 1249.689289 487.289515 
L 1261.962695 456.756655 
L 1274.2361 487.289515 
L 1286.509506 477.111891 
L 1298.782911 456.756655 
L 1311.056317 497.467127 
L 1323.329723 466.934267 
L 1335.603128 456.756655 
L 1347.876534 477.111891 
L 1360.149939 456.756655 
L 1372.423345 466.934267 
L 1384.696751 507.644764 
L 1396.970156 456.756655 
" style="fill:none;stroke:#023eff;stroke-linecap:round;stroke-width:1.5;"/>
   </g>
   <g id="line2d_64">
    <path clip-path="url(#p16a7284bc2)" d="M 795.573281 660.309091 
L 795.573281 548.355248 
L 807.846687 528.000012 
L 820.120092 522.911194 
L 832.393498 533.088818 
L 844.666904 461.845461 
L 856.940309 487.289527 
L 869.213715 497.467139 
L 881.487121 502.555958 
L 893.760526 482.200709 
L 906.033932 482.200709 
L 918.307337 497.467139 
L 930.580743 461.845461 
L 942.854149 446.579018 
L 955.127554 482.200709 
L 967.40096 466.934267 
L 979.674365 456.756655 
L 991.947771 477.111903 
L 1004.221177 446.579042 
L 1016.494582 441.490212 
L 1028.767988 441.490212 
L 1041.041393 451.667824 
L 1053.314799 451.667824 
L 1065.588205 461.845461 
L 1077.86161 451.667824 
L 1090.135016 451.667824 
L 1102.408422 446.579042 
L 1114.681827 461.845461 
L 1126.955233 441.490212 
L 1139.228638 431.3126 
L 1151.502044 441.490212 
L 1163.77545 436.40143 
L 1176.048855 456.756655 
L 1188.322261 421.134988 
L 1200.595666 436.401406 
L 1212.869072 436.401406 
L 1225.142478 441.490212 
L 1237.415883 426.22377 
L 1249.689289 436.401406 
L 1261.962695 446.579042 
L 1274.2361 421.134988 
L 1286.509506 426.22377 
L 1298.782911 426.223794 
L 1311.056317 426.223794 
L 1323.329723 441.490212 
L 1335.603128 431.3126 
L 1347.876534 441.490212 
L 1360.149939 436.401406 
L 1372.423345 410.957352 
L 1384.696751 446.579042 
L 1396.970156 441.490212 
" style="fill:none;stroke:#ff7c00;stroke-linecap:round;stroke-width:1.5;"/>
   </g>
   <g id="line2d_65">
    <path clip-path="url(#p16a7284bc2)" d="M 795.573281 558.532873 
L 795.573281 548.355236 
L 807.846687 534.785087 
L 820.120092 528 
L 832.393498 524.607463 
L 844.666904 483.896978 
L 856.940309 490.682053 
L 869.213715 494.07459 
L 881.487121 466.934267 
L 893.760526 470.326816 
L 906.033932 460.149192 
L 918.307337 477.111891 
L 930.580743 470.326804 
L 942.854149 466.934279 
L 955.127554 477.111891 
L 967.40096 460.149204 
L 979.674365 463.541729 
L 991.947771 453.364117 
L 1004.221177 446.579018 
L 1016.494582 453.364117 
L 1028.767988 460.149204 
L 1041.041393 443.186481 
L 1053.314799 449.97158 
L 1065.588205 439.793943 
L 1077.86161 453.364093 
L 1090.135016 453.364093 
L 1102.408422 436.401406 
L 1114.681827 429.616307 
L 1126.955233 429.616307 
L 1139.228638 439.793919 
L 1151.502044 449.97158 
L 1163.77545 433.008869 
L 1176.048855 439.793943 
L 1188.322261 429.616331 
L 1200.595666 433.008844 
L 1212.869072 446.579018 
L 1225.142478 433.008869 
L 1237.415883 443.186481 
L 1249.689289 429.616331 
L 1261.962695 422.831232 
L 1274.2361 433.008869 
L 1286.509506 433.008869 
L 1298.782911 422.831232 
L 1311.056317 433.008869 
L 1323.329723 433.008869 
L 1335.603128 433.008869 
L 1347.876534 433.008869 
L 1360.149939 426.22377 
L 1372.423345 439.793943 
L 1384.696751 419.438695 
L 1396.970156 439.793943 
" style="fill:none;stroke:#1ac938;stroke-linecap:round;stroke-width:1.5;"/>
   </g>
   <g id="line2d_66">
    <path clip-path="url(#p16a7284bc2)" d="M 795.573281 660.309091 
L 795.573281 538.177624 
L 807.846687 522.911194 
L 820.120092 512.73357 
L 832.393498 507.644764 
L 844.666904 502.555945 
L 856.940309 482.200709 
L 869.213715 500.011542 
L 881.487121 487.289515 
L 893.760526 474.567488 
L 906.033932 474.567488 
L 918.307337 469.478682 
L 930.580743 466.934279 
L 942.854149 466.934267 
L 955.127554 451.667824 
L 967.40096 461.845461 
L 979.674365 441.490236 
L 991.947771 456.756655 
L 1004.221177 428.768185 
L 1016.494582 446.579042 
L 1028.767988 464.389876 
L 1041.041393 418.590573 
L 1053.314799 444.034627 
L 1065.588205 431.3126 
L 1077.86161 436.401406 
L 1090.135016 436.401406 
L 1102.408422 433.857015 
L 1114.681827 446.579018 
L 1126.955233 436.401406 
L 1139.228638 428.768185 
L 1151.502044 423.679379 
L 1163.77545 418.590573 
L 1176.048855 421.134988 
L 1188.322261 433.857015 
L 1200.595666 449.123433 
L 1212.869072 436.401406 
L 1225.142478 428.768185 
L 1237.415883 421.134988 
L 1249.689289 416.046158 
L 1261.962695 433.856991 
L 1274.2361 421.134988 
L 1286.509506 426.22377 
L 1298.782911 428.768185 
L 1311.056317 413.501742 
L 1323.329723 426.22377 
L 1335.603128 410.957352 
L 1347.876534 421.134988 
L 1360.149939 426.22377 
L 1372.423345 426.22377 
L 1384.696751 408.412961 
L 1396.970156 421.134988 
" style="fill:none;stroke:#e8000b;stroke-linecap:round;stroke-width:1.5;"/>
   </g>
   <g id="line2d_67">
    <path clip-path="url(#p16a7284bc2)" d="M 795.573281 660.309091 
L 795.573281 534.106579 
L 807.846687 517.822388 
L 820.120092 507.644752 
L 832.393498 473.040834 
L 844.666904 475.076368 
L 856.940309 473.040846 
L 869.213715 466.934279 
L 881.487121 456.756655 
L 893.760526 454.721108 
L 906.033932 444.543496 
L 918.307337 442.507973 
L 930.580743 438.436928 
L 942.854149 440.472451 
L 955.127554 450.650087 
L 967.40096 432.330337 
L 979.674365 432.330361 
L 991.947771 426.223794 
L 1004.221177 438.436928 
L 1016.494582 424.188247 
L 1028.767988 438.436928 
L 1041.041393 430.294839 
L 1053.314799 422.152749 
L 1065.588205 424.188247 
L 1077.86161 416.046158 
L 1090.135016 432.330337 
L 1102.408422 420.117202 
L 1114.681827 411.975088 
L 1126.955233 416.046133 
L 1139.228638 424.188247 
L 1151.502044 401.797476 
L 1163.77545 411.975088 
L 1176.048855 418.08168 
L 1188.322261 401.797476 
L 1200.595666 399.761954 
L 1212.869072 420.117202 
L 1225.142478 411.975113 
L 1237.415883 395.690909 
L 1249.689289 395.690909 
L 1261.962695 411.975113 
L 1274.2361 416.046158 
L 1286.509506 399.761954 
L 1298.782911 422.152749 
L 1311.056317 401.797476 
L 1323.329723 403.832999 
L 1335.603128 401.797501 
L 1347.876534 407.904068 
L 1360.149939 407.904068 
L 1372.423345 405.868545 
L 1384.696751 399.761978 
L 1396.970156 403.832999 
" style="fill:none;stroke:#8b2be2;stroke-linecap:round;stroke-width:1.5;"/>
   </g>
   <g id="patch_18">
    <path d="M 765.503438 673.54 
L 765.503438 382.46 
" style="fill:none;stroke:#cccccc;stroke-linecap:square;stroke-linejoin:miter;stroke-width:1.25;"/>
   </g>
   <g id="patch_19">
    <path d="M 1427.04 673.54 
L 1427.04 382.46 
" style="fill:none;stroke:#cccccc;stroke-linecap:square;stroke-linejoin:miter;stroke-width:1.25;"/>
   </g>
   <g id="patch_20">
    <path d="M 765.503438 673.54 
L 1427.04 673.54 
" style="fill:none;stroke:#cccccc;stroke-linecap:square;stroke-linejoin:miter;stroke-width:1.25;"/>
   </g>
   <g id="patch_21">
    <path d="M 765.503438 382.46 
L 1427.04 382.46 
" style="fill:none;stroke:#cccccc;stroke-linecap:square;stroke-linejoin:miter;stroke-width:1.25;"/>
   </g>
   <g id="legend_1">
    <g id="patch_22">
     <path d="M 1365.788906 668.04 
L 1419.34 668.04 
Q 1421.54 668.04 1421.54 665.84 
L 1421.54 589.140781 
Q 1421.54 586.940781 1419.34 586.940781 
L 1365.788906 586.940781 
Q 1363.588906 586.940781 1363.588906 589.140781 
L 1363.588906 665.84 
Q 1363.588906 668.04 1365.788906 668.04 
z
" style="fill:#ffffff;opacity:0.8;stroke:#cccccc;stroke-linejoin:miter;"/>
    </g>
    <g id="line2d_68">
     <path d="M 1367.988906 595.364375 
L 1389.988906 595.364375 
" style="fill:none;stroke:#023eff;stroke-linecap:round;stroke-width:1.5;"/>
    </g>
    <g id="line2d_69"/>
    <g id="text_55">
     <!-- 20 -->
     <g style="fill:#262626;" transform="translate(1398.788906 599.214375)scale(0.11 -0.11)">
      <use xlink:href="#ArialMT-32"/>
      <use x="55.615234" xlink:href="#ArialMT-30"/>
     </g>
    </g>
    <g id="line2d_70">
     <path d="M 1367.988906 610.924219 
L 1389.988906 610.924219 
" style="fill:none;stroke:#ff7c00;stroke-linecap:round;stroke-width:1.5;"/>
    </g>
    <g id="line2d_71"/>
    <g id="text_56">
     <!-- 40 -->
     <g style="fill:#262626;" transform="translate(1398.788906 614.774219)scale(0.11 -0.11)">
      <use xlink:href="#ArialMT-34"/>
      <use x="55.615234" xlink:href="#ArialMT-30"/>
     </g>
    </g>
    <g id="line2d_72">
     <path d="M 1367.988906 626.484063 
L 1389.988906 626.484063 
" style="fill:none;stroke:#1ac938;stroke-linecap:round;stroke-width:1.5;"/>
    </g>
    <g id="line2d_73"/>
    <g id="text_57">
     <!-- 60 -->
     <g style="fill:#262626;" transform="translate(1398.788906 630.334063)scale(0.11 -0.11)">
      <use xlink:href="#ArialMT-36"/>
      <use x="55.615234" xlink:href="#ArialMT-30"/>
     </g>
    </g>
    <g id="line2d_74">
     <path d="M 1367.988906 642.043906 
L 1389.988906 642.043906 
" style="fill:none;stroke:#e8000b;stroke-linecap:round;stroke-width:1.5;"/>
    </g>
    <g id="line2d_75"/>
    <g id="text_58">
     <!-- 80 -->
     <g style="fill:#262626;" transform="translate(1398.788906 645.893906)scale(0.11 -0.11)">
      <use xlink:href="#ArialMT-38"/>
      <use x="55.615234" xlink:href="#ArialMT-30"/>
     </g>
    </g>
    <g id="line2d_76">
     <path d="M 1367.988906 657.60375 
L 1389.988906 657.60375 
" style="fill:none;stroke:#8b2be2;stroke-linecap:round;stroke-width:1.5;"/>
    </g>
    <g id="line2d_77"/>
    <g id="text_59">
     <!-- 100 -->
     <g style="fill:#262626;" transform="translate(1398.788906 661.45375)scale(0.11 -0.11)">
      <use xlink:href="#ArialMT-31"/>
      <use x="55.615234" xlink:href="#ArialMT-30"/>
      <use x="111.230469" xlink:href="#ArialMT-30"/>
     </g>
    </g>
   </g>
  </g>
  <g id="text_60">
   <!-- CNN -->
   <g style="fill:#262626;" transform="translate(698.334375 28.715625)scale(0.2 -0.2)">
    <defs>
     <path d="M 3763 1606 
L 4369 1453 
Q 4178 706 3683 314 
Q 3188 -78 2472 -78 
Q 1731 -78 1267 223 
Q 803 525 561 1097 
Q 319 1669 319 2325 
Q 319 3041 592 3573 
Q 866 4106 1370 4382 
Q 1875 4659 2481 4659 
Q 3169 4659 3637 4309 
Q 4106 3959 4291 3325 
L 3694 3184 
Q 3534 3684 3231 3912 
Q 2928 4141 2469 4141 
Q 1941 4141 1586 3887 
Q 1231 3634 1087 3207 
Q 944 2781 944 2328 
Q 944 1744 1114 1308 
Q 1284 872 1643 656 
Q 2003 441 2422 441 
Q 2931 441 3284 734 
Q 3638 1028 3763 1606 
z
" id="ArialMT-43" transform="scale(0.015625)"/>
     <path d="M 488 0 
L 488 4581 
L 1109 4581 
L 3516 984 
L 3516 4581 
L 4097 4581 
L 4097 0 
L 3475 0 
L 1069 3600 
L 1069 0 
L 488 0 
z
" id="ArialMT-4e" transform="scale(0.015625)"/>
    </defs>
    <use xlink:href="#ArialMT-43"/>
    <use x="72.216797" xlink:href="#ArialMT-4e"/>
    <use x="144.433594" xlink:href="#ArialMT-4e"/>
   </g>
  </g>
 </g>
 <defs>
  <clipPath id="pa9ee45d018">
   <rect height="291.08" width="661.536562" x="51.96" y="44.92"/>
  </clipPath>
  <clipPath id="p08dbcf467c">
   <rect height="291.08" width="661.536562" x="765.503438" y="44.92"/>
  </clipPath>
  <clipPath id="p8a42577a0c">
   <rect height="291.08" width="661.536562" x="51.96" y="382.46"/>
  </clipPath>
  <clipPath id="p16a7284bc2">
   <rect height="291.08" width="661.536562" x="765.503438" y="382.46"/>
  </clipPath>
 </defs>
</svg>
